M48
; DRILL file {KiCad (5.1.4)-1} date 2019/11/11 10:46:24
; FORMAT={-:-/ absolute / metric / decimal}
; #@! TF.CreationDate,2019-11-11T10:46:24+08:00
; #@! TF.GenerationSoftware,Kicad,Pcbnew,(5.1.4)-1
; #@! TF.FileFunction,Plated,1,2,PTH
FMAT,2
METRIC
T1C0.400
T2C0.950
T3C1.000
T4C1.016
T5C3.200
%
G90
G05
T1
X207.465Y-46.247
T2
X209.772Y-42.418
X212.272Y-42.418
X214.772Y-42.418
X208.608Y-61.595
X211.108Y-61.595
X213.608Y-61.595
X216.108Y-61.595
X218.608Y-61.595
X210.606Y-69.342
X213.106Y-69.342
X215.606Y-69.342
X218.106Y-69.342
X194.901Y-42.418
X197.401Y-42.418
X199.901Y-42.418
X192.479Y-61.595
X194.979Y-61.595
X197.479Y-61.595
X199.979Y-61.595
X202.479Y-61.595
X191.568Y-69.342
X194.068Y-69.342
X196.568Y-69.342
X199.068Y-69.342
X201.568Y-69.342
X204.068Y-69.342
T3
X172.46Y-45.0
X172.46Y-47.54
X172.46Y-50.08
X172.46Y-52.62
X172.46Y-55.16
X172.46Y-57.7
X172.46Y-60.24
X172.46Y-62.78
X172.46Y-65.32
X172.46Y-67.86
X175.0Y-45.0
X175.0Y-47.54
X175.0Y-50.08
X175.0Y-52.62
X175.0Y-55.16
X175.0Y-57.7
X175.0Y-60.24
X175.0Y-62.78
X175.0Y-65.32
X175.0Y-67.86
X224.483Y-50.769
X224.483Y-53.539
X224.483Y-56.309
X224.483Y-59.079
X224.483Y-61.849
X227.323Y-52.154
X227.323Y-54.924
X227.323Y-57.694
X227.323Y-60.464
T4
X182.0Y-45.0
X182.0Y-47.54
X182.0Y-50.08
X182.0Y-52.62
X182.0Y-55.16
X182.0Y-57.7
X182.0Y-60.24
X182.0Y-62.78
X182.0Y-65.32
X182.0Y-67.86
X184.54Y-45.0
X184.54Y-47.54
X184.54Y-50.08
X184.54Y-52.62
X184.54Y-55.16
X184.54Y-57.7
X184.54Y-60.24
X184.54Y-62.78
X184.54Y-65.32
X184.54Y-67.86
T5
X225.903Y-43.809
X225.903Y-68.809
T0
M30
