%TF.GenerationSoftware,KiCad,Pcbnew,(5.1.4)-1*%
%TF.CreationDate,2019-11-11T10:46:24+08:00*%
%TF.ProjectId,jlink_vcom_to_rs232_adapter_plate,6a6c696e-6b5f-4766-936f-6d5f746f5f72,rev?*%
%TF.SameCoordinates,Original*%
%TF.FileFunction,Copper,L2,Bot*%
%TF.FilePolarity,Positive*%
%FSLAX46Y46*%
G04 Gerber Fmt 4.6, Leading zero omitted, Abs format (unit mm)*
G04 Created by KiCad (PCBNEW (5.1.4)-1) date 2019-11-11 10:46:24*
%MOMM*%
%LPD*%
G04 APERTURE LIST*
%ADD10O,1.700000X1.950000*%
%ADD11C,0.350000*%
%ADD12C,1.700000*%
%ADD13O,1.700000X1.700000*%
%ADD14R,1.700000X1.700000*%
%ADD15O,1.727200X1.727200*%
%ADD16R,1.727200X1.727200*%
%ADD17C,4.000000*%
%ADD18C,1.600000*%
%ADD19R,1.600000X1.600000*%
%ADD20C,0.800000*%
%ADD21C,1.000000*%
%ADD22C,0.250000*%
%ADD23C,0.025400*%
%ADD24C,0.254000*%
%ADD25C,0.350000*%
G04 APERTURE END LIST*
D10*
X202479000Y-61595000D03*
X199979000Y-61595000D03*
X197479000Y-61595000D03*
X194979000Y-61595000D03*
D11*
G36*
X193103504Y-60621204D02*
G01*
X193127773Y-60624804D01*
X193151571Y-60630765D01*
X193174671Y-60639030D01*
X193196849Y-60649520D01*
X193217893Y-60662133D01*
X193237598Y-60676747D01*
X193255777Y-60693223D01*
X193272253Y-60711402D01*
X193286867Y-60731107D01*
X193299480Y-60752151D01*
X193309970Y-60774329D01*
X193318235Y-60797429D01*
X193324196Y-60821227D01*
X193327796Y-60845496D01*
X193329000Y-60870000D01*
X193329000Y-62320000D01*
X193327796Y-62344504D01*
X193324196Y-62368773D01*
X193318235Y-62392571D01*
X193309970Y-62415671D01*
X193299480Y-62437849D01*
X193286867Y-62458893D01*
X193272253Y-62478598D01*
X193255777Y-62496777D01*
X193237598Y-62513253D01*
X193217893Y-62527867D01*
X193196849Y-62540480D01*
X193174671Y-62550970D01*
X193151571Y-62559235D01*
X193127773Y-62565196D01*
X193103504Y-62568796D01*
X193079000Y-62570000D01*
X191879000Y-62570000D01*
X191854496Y-62568796D01*
X191830227Y-62565196D01*
X191806429Y-62559235D01*
X191783329Y-62550970D01*
X191761151Y-62540480D01*
X191740107Y-62527867D01*
X191720402Y-62513253D01*
X191702223Y-62496777D01*
X191685747Y-62478598D01*
X191671133Y-62458893D01*
X191658520Y-62437849D01*
X191648030Y-62415671D01*
X191639765Y-62392571D01*
X191633804Y-62368773D01*
X191630204Y-62344504D01*
X191629000Y-62320000D01*
X191629000Y-60870000D01*
X191630204Y-60845496D01*
X191633804Y-60821227D01*
X191639765Y-60797429D01*
X191648030Y-60774329D01*
X191658520Y-60752151D01*
X191671133Y-60731107D01*
X191685747Y-60711402D01*
X191702223Y-60693223D01*
X191720402Y-60676747D01*
X191740107Y-60662133D01*
X191761151Y-60649520D01*
X191783329Y-60639030D01*
X191806429Y-60630765D01*
X191830227Y-60624804D01*
X191854496Y-60621204D01*
X191879000Y-60620000D01*
X193079000Y-60620000D01*
X193103504Y-60621204D01*
X193103504Y-60621204D01*
G37*
D12*
X192479000Y-61595000D03*
D10*
X218608000Y-61595000D03*
X216108000Y-61595000D03*
X213608000Y-61595000D03*
X211108000Y-61595000D03*
D11*
G36*
X209232504Y-60621204D02*
G01*
X209256773Y-60624804D01*
X209280571Y-60630765D01*
X209303671Y-60639030D01*
X209325849Y-60649520D01*
X209346893Y-60662133D01*
X209366598Y-60676747D01*
X209384777Y-60693223D01*
X209401253Y-60711402D01*
X209415867Y-60731107D01*
X209428480Y-60752151D01*
X209438970Y-60774329D01*
X209447235Y-60797429D01*
X209453196Y-60821227D01*
X209456796Y-60845496D01*
X209458000Y-60870000D01*
X209458000Y-62320000D01*
X209456796Y-62344504D01*
X209453196Y-62368773D01*
X209447235Y-62392571D01*
X209438970Y-62415671D01*
X209428480Y-62437849D01*
X209415867Y-62458893D01*
X209401253Y-62478598D01*
X209384777Y-62496777D01*
X209366598Y-62513253D01*
X209346893Y-62527867D01*
X209325849Y-62540480D01*
X209303671Y-62550970D01*
X209280571Y-62559235D01*
X209256773Y-62565196D01*
X209232504Y-62568796D01*
X209208000Y-62570000D01*
X208008000Y-62570000D01*
X207983496Y-62568796D01*
X207959227Y-62565196D01*
X207935429Y-62559235D01*
X207912329Y-62550970D01*
X207890151Y-62540480D01*
X207869107Y-62527867D01*
X207849402Y-62513253D01*
X207831223Y-62496777D01*
X207814747Y-62478598D01*
X207800133Y-62458893D01*
X207787520Y-62437849D01*
X207777030Y-62415671D01*
X207768765Y-62392571D01*
X207762804Y-62368773D01*
X207759204Y-62344504D01*
X207758000Y-62320000D01*
X207758000Y-60870000D01*
X207759204Y-60845496D01*
X207762804Y-60821227D01*
X207768765Y-60797429D01*
X207777030Y-60774329D01*
X207787520Y-60752151D01*
X207800133Y-60731107D01*
X207814747Y-60711402D01*
X207831223Y-60693223D01*
X207849402Y-60676747D01*
X207869107Y-60662133D01*
X207890151Y-60649520D01*
X207912329Y-60639030D01*
X207935429Y-60630765D01*
X207959227Y-60624804D01*
X207983496Y-60621204D01*
X208008000Y-60620000D01*
X209208000Y-60620000D01*
X209232504Y-60621204D01*
X209232504Y-60621204D01*
G37*
D12*
X208608000Y-61595000D03*
D13*
X172460000Y-67860000D03*
X175000000Y-67860000D03*
X172460000Y-65320000D03*
X175000000Y-65320000D03*
X172460000Y-62780000D03*
X175000000Y-62780000D03*
X172460000Y-60240000D03*
X175000000Y-60240000D03*
X172460000Y-57700000D03*
X175000000Y-57700000D03*
X172460000Y-55160000D03*
X175000000Y-55160000D03*
X172460000Y-52620000D03*
X175000000Y-52620000D03*
X172460000Y-50080000D03*
X175000000Y-50080000D03*
X172460000Y-47540000D03*
X175000000Y-47540000D03*
X172460000Y-45000000D03*
D14*
X175000000Y-45000000D03*
D15*
X184540000Y-67860000D03*
X182000000Y-67860000D03*
X184540000Y-65320000D03*
X182000000Y-65320000D03*
X184540000Y-62780000D03*
X182000000Y-62780000D03*
X184540000Y-60240000D03*
X182000000Y-60240000D03*
X184540000Y-57700000D03*
X182000000Y-57700000D03*
X184540000Y-55160000D03*
X182000000Y-55160000D03*
X184540000Y-52620000D03*
X182000000Y-52620000D03*
X184540000Y-50080000D03*
X182000000Y-50080000D03*
X184540000Y-47540000D03*
X182000000Y-47540000D03*
X184540000Y-45000000D03*
D16*
X182000000Y-45000000D03*
D10*
X214772440Y-42418000D03*
X212272440Y-42418000D03*
D11*
G36*
X210396944Y-41444204D02*
G01*
X210421213Y-41447804D01*
X210445011Y-41453765D01*
X210468111Y-41462030D01*
X210490289Y-41472520D01*
X210511333Y-41485133D01*
X210531038Y-41499747D01*
X210549217Y-41516223D01*
X210565693Y-41534402D01*
X210580307Y-41554107D01*
X210592920Y-41575151D01*
X210603410Y-41597329D01*
X210611675Y-41620429D01*
X210617636Y-41644227D01*
X210621236Y-41668496D01*
X210622440Y-41693000D01*
X210622440Y-43143000D01*
X210621236Y-43167504D01*
X210617636Y-43191773D01*
X210611675Y-43215571D01*
X210603410Y-43238671D01*
X210592920Y-43260849D01*
X210580307Y-43281893D01*
X210565693Y-43301598D01*
X210549217Y-43319777D01*
X210531038Y-43336253D01*
X210511333Y-43350867D01*
X210490289Y-43363480D01*
X210468111Y-43373970D01*
X210445011Y-43382235D01*
X210421213Y-43388196D01*
X210396944Y-43391796D01*
X210372440Y-43393000D01*
X209172440Y-43393000D01*
X209147936Y-43391796D01*
X209123667Y-43388196D01*
X209099869Y-43382235D01*
X209076769Y-43373970D01*
X209054591Y-43363480D01*
X209033547Y-43350867D01*
X209013842Y-43336253D01*
X208995663Y-43319777D01*
X208979187Y-43301598D01*
X208964573Y-43281893D01*
X208951960Y-43260849D01*
X208941470Y-43238671D01*
X208933205Y-43215571D01*
X208927244Y-43191773D01*
X208923644Y-43167504D01*
X208922440Y-43143000D01*
X208922440Y-41693000D01*
X208923644Y-41668496D01*
X208927244Y-41644227D01*
X208933205Y-41620429D01*
X208941470Y-41597329D01*
X208951960Y-41575151D01*
X208964573Y-41554107D01*
X208979187Y-41534402D01*
X208995663Y-41516223D01*
X209013842Y-41499747D01*
X209033547Y-41485133D01*
X209054591Y-41472520D01*
X209076769Y-41462030D01*
X209099869Y-41453765D01*
X209123667Y-41447804D01*
X209147936Y-41444204D01*
X209172440Y-41443000D01*
X210372440Y-41443000D01*
X210396944Y-41444204D01*
X210396944Y-41444204D01*
G37*
D12*
X209772440Y-42418000D03*
D10*
X199901220Y-42418000D03*
X197401220Y-42418000D03*
D11*
G36*
X195525724Y-41444204D02*
G01*
X195549993Y-41447804D01*
X195573791Y-41453765D01*
X195596891Y-41462030D01*
X195619069Y-41472520D01*
X195640113Y-41485133D01*
X195659818Y-41499747D01*
X195677997Y-41516223D01*
X195694473Y-41534402D01*
X195709087Y-41554107D01*
X195721700Y-41575151D01*
X195732190Y-41597329D01*
X195740455Y-41620429D01*
X195746416Y-41644227D01*
X195750016Y-41668496D01*
X195751220Y-41693000D01*
X195751220Y-43143000D01*
X195750016Y-43167504D01*
X195746416Y-43191773D01*
X195740455Y-43215571D01*
X195732190Y-43238671D01*
X195721700Y-43260849D01*
X195709087Y-43281893D01*
X195694473Y-43301598D01*
X195677997Y-43319777D01*
X195659818Y-43336253D01*
X195640113Y-43350867D01*
X195619069Y-43363480D01*
X195596891Y-43373970D01*
X195573791Y-43382235D01*
X195549993Y-43388196D01*
X195525724Y-43391796D01*
X195501220Y-43393000D01*
X194301220Y-43393000D01*
X194276716Y-43391796D01*
X194252447Y-43388196D01*
X194228649Y-43382235D01*
X194205549Y-43373970D01*
X194183371Y-43363480D01*
X194162327Y-43350867D01*
X194142622Y-43336253D01*
X194124443Y-43319777D01*
X194107967Y-43301598D01*
X194093353Y-43281893D01*
X194080740Y-43260849D01*
X194070250Y-43238671D01*
X194061985Y-43215571D01*
X194056024Y-43191773D01*
X194052424Y-43167504D01*
X194051220Y-43143000D01*
X194051220Y-41693000D01*
X194052424Y-41668496D01*
X194056024Y-41644227D01*
X194061985Y-41620429D01*
X194070250Y-41597329D01*
X194080740Y-41575151D01*
X194093353Y-41554107D01*
X194107967Y-41534402D01*
X194124443Y-41516223D01*
X194142622Y-41499747D01*
X194162327Y-41485133D01*
X194183371Y-41472520D01*
X194205549Y-41462030D01*
X194228649Y-41453765D01*
X194252447Y-41447804D01*
X194276716Y-41444204D01*
X194301220Y-41443000D01*
X195501220Y-41443000D01*
X195525724Y-41444204D01*
X195525724Y-41444204D01*
G37*
D12*
X194901220Y-42418000D03*
D17*
X225903000Y-43809000D03*
X225903000Y-68809000D03*
D18*
X227323000Y-52154000D03*
X227323000Y-54924000D03*
X227323000Y-57694000D03*
X227323000Y-60464000D03*
X224483000Y-50769000D03*
X224483000Y-53539000D03*
X224483000Y-56309000D03*
X224483000Y-59079000D03*
D19*
X224483000Y-61849000D03*
D10*
X204067887Y-69342000D03*
X201567887Y-69342000D03*
X199067887Y-69342000D03*
X196567887Y-69342000D03*
X194067887Y-69342000D03*
D11*
G36*
X192192481Y-68368203D02*
G01*
X192216740Y-68371802D01*
X192240529Y-68377761D01*
X192263620Y-68386023D01*
X192285789Y-68396508D01*
X192306824Y-68409116D01*
X192326522Y-68423725D01*
X192344693Y-68440194D01*
X192361162Y-68458365D01*
X192375771Y-68478063D01*
X192388379Y-68499098D01*
X192398864Y-68521267D01*
X192407126Y-68544358D01*
X192413085Y-68568147D01*
X192416684Y-68592406D01*
X192417887Y-68616900D01*
X192417887Y-70067100D01*
X192416684Y-70091594D01*
X192413085Y-70115853D01*
X192407126Y-70139642D01*
X192398864Y-70162733D01*
X192388379Y-70184902D01*
X192375771Y-70205937D01*
X192361162Y-70225635D01*
X192344693Y-70243806D01*
X192326522Y-70260275D01*
X192306824Y-70274884D01*
X192285789Y-70287492D01*
X192263620Y-70297977D01*
X192240529Y-70306239D01*
X192216740Y-70312198D01*
X192192481Y-70315797D01*
X192167987Y-70317000D01*
X190967787Y-70317000D01*
X190943293Y-70315797D01*
X190919034Y-70312198D01*
X190895245Y-70306239D01*
X190872154Y-70297977D01*
X190849985Y-70287492D01*
X190828950Y-70274884D01*
X190809252Y-70260275D01*
X190791081Y-70243806D01*
X190774612Y-70225635D01*
X190760003Y-70205937D01*
X190747395Y-70184902D01*
X190736910Y-70162733D01*
X190728648Y-70139642D01*
X190722689Y-70115853D01*
X190719090Y-70091594D01*
X190717887Y-70067100D01*
X190717887Y-68616900D01*
X190719090Y-68592406D01*
X190722689Y-68568147D01*
X190728648Y-68544358D01*
X190736910Y-68521267D01*
X190747395Y-68499098D01*
X190760003Y-68478063D01*
X190774612Y-68458365D01*
X190791081Y-68440194D01*
X190809252Y-68423725D01*
X190828950Y-68409116D01*
X190849985Y-68396508D01*
X190872154Y-68386023D01*
X190895245Y-68377761D01*
X190919034Y-68371802D01*
X190943293Y-68368203D01*
X190967787Y-68367000D01*
X192167987Y-68367000D01*
X192192481Y-68368203D01*
X192192481Y-68368203D01*
G37*
D12*
X191567887Y-69342000D03*
D10*
X218105774Y-69342000D03*
X215605774Y-69342000D03*
X213105774Y-69342000D03*
D11*
G36*
X211230278Y-68368204D02*
G01*
X211254547Y-68371804D01*
X211278345Y-68377765D01*
X211301445Y-68386030D01*
X211323623Y-68396520D01*
X211344667Y-68409133D01*
X211364372Y-68423747D01*
X211382551Y-68440223D01*
X211399027Y-68458402D01*
X211413641Y-68478107D01*
X211426254Y-68499151D01*
X211436744Y-68521329D01*
X211445009Y-68544429D01*
X211450970Y-68568227D01*
X211454570Y-68592496D01*
X211455774Y-68617000D01*
X211455774Y-70067000D01*
X211454570Y-70091504D01*
X211450970Y-70115773D01*
X211445009Y-70139571D01*
X211436744Y-70162671D01*
X211426254Y-70184849D01*
X211413641Y-70205893D01*
X211399027Y-70225598D01*
X211382551Y-70243777D01*
X211364372Y-70260253D01*
X211344667Y-70274867D01*
X211323623Y-70287480D01*
X211301445Y-70297970D01*
X211278345Y-70306235D01*
X211254547Y-70312196D01*
X211230278Y-70315796D01*
X211205774Y-70317000D01*
X210005774Y-70317000D01*
X209981270Y-70315796D01*
X209957001Y-70312196D01*
X209933203Y-70306235D01*
X209910103Y-70297970D01*
X209887925Y-70287480D01*
X209866881Y-70274867D01*
X209847176Y-70260253D01*
X209828997Y-70243777D01*
X209812521Y-70225598D01*
X209797907Y-70205893D01*
X209785294Y-70184849D01*
X209774804Y-70162671D01*
X209766539Y-70139571D01*
X209760578Y-70115773D01*
X209756978Y-70091504D01*
X209755774Y-70067000D01*
X209755774Y-68617000D01*
X209756978Y-68592496D01*
X209760578Y-68568227D01*
X209766539Y-68544429D01*
X209774804Y-68521329D01*
X209785294Y-68499151D01*
X209797907Y-68478107D01*
X209812521Y-68458402D01*
X209828997Y-68440223D01*
X209847176Y-68423747D01*
X209866881Y-68409133D01*
X209887925Y-68396520D01*
X209910103Y-68386030D01*
X209933203Y-68377765D01*
X209957001Y-68371804D01*
X209981270Y-68368204D01*
X210005774Y-68367000D01*
X211205774Y-68367000D01*
X211230278Y-68368204D01*
X211230278Y-68368204D01*
G37*
D12*
X210605774Y-69342000D03*
D20*
X207465000Y-46247000D03*
D21*
X202366000Y-46247000D02*
X207465000Y-46247000D01*
X182000000Y-69081314D02*
X183276686Y-70358000D01*
X182000000Y-67860000D02*
X182000000Y-69081314D01*
X183276686Y-70358000D02*
X186002000Y-70358000D01*
X186002000Y-70358000D02*
X189812000Y-66548000D01*
X189812000Y-66548000D02*
X189812000Y-58801000D01*
X189812000Y-58801000D02*
X202366000Y-46247000D01*
D22*
X197401220Y-43643000D02*
X187780000Y-53264220D01*
X197401220Y-42418000D02*
X197401220Y-43643000D01*
X182863599Y-64456401D02*
X182000000Y-65320000D01*
X183188601Y-64131399D02*
X182863599Y-64456401D01*
X184947731Y-64131399D02*
X183188601Y-64131399D01*
X187780000Y-61299130D02*
X184947731Y-64131399D01*
X187780000Y-53264220D02*
X187780000Y-61299130D01*
X194067887Y-69217000D02*
X195019000Y-68265887D01*
X194067887Y-69342000D02*
X194067887Y-69217000D01*
X194979000Y-68225887D02*
X194979000Y-61595000D01*
X195019000Y-68265887D02*
X194979000Y-68225887D01*
X197479000Y-67628113D02*
X197479000Y-61595000D01*
X199067887Y-69342000D02*
X199067887Y-69217000D01*
X199067887Y-69217000D02*
X197479000Y-67628113D01*
X213105774Y-69342000D02*
X213105774Y-67384226D01*
X216108000Y-64382000D02*
X216108000Y-61595000D01*
X213105774Y-67384226D02*
X216108000Y-64382000D01*
X199979000Y-67628113D02*
X199979000Y-61595000D01*
X201567887Y-69342000D02*
X201567887Y-69217000D01*
X201567887Y-69217000D02*
X199979000Y-67628113D01*
X199979000Y-61470000D02*
X202140000Y-59309000D01*
X199979000Y-61595000D02*
X199979000Y-61470000D01*
X213608000Y-61470000D02*
X213608000Y-61595000D01*
X211447000Y-59309000D02*
X213608000Y-61470000D01*
X202140000Y-59309000D02*
X211447000Y-59309000D01*
X194002848Y-43316372D02*
X194901220Y-42418000D01*
X188427821Y-48891399D02*
X194002848Y-43316372D01*
X183188601Y-48891399D02*
X188427821Y-48891399D01*
X182000000Y-50080000D02*
X183188601Y-48891399D01*
X203579000Y-61595000D02*
X202479000Y-61595000D01*
X204067887Y-62083887D02*
X203579000Y-61595000D01*
X204067887Y-69342000D02*
X204067887Y-62083887D01*
X202479000Y-61595000D02*
X208608000Y-61595000D01*
X209772440Y-45360440D02*
X209772440Y-42418000D01*
X220800000Y-56388000D02*
X209772440Y-45360440D01*
X224483000Y-56309000D02*
X224404000Y-56388000D01*
X224404000Y-56388000D02*
X220800000Y-56388000D01*
X225282999Y-58279001D02*
X224483000Y-59079000D01*
X212272440Y-42418000D02*
X212272440Y-46336440D01*
X220927000Y-54991000D02*
X225245000Y-54991000D01*
X225880000Y-55626000D02*
X225880000Y-57682000D01*
X212272440Y-46336440D02*
X220927000Y-54991000D01*
X225245000Y-54991000D02*
X225880000Y-55626000D01*
X225880000Y-57682000D02*
X225282999Y-58279001D01*
D23*
G36*
X182589063Y-68475349D02*
G01*
X182574961Y-68492036D01*
X182573780Y-68493684D01*
X182556011Y-68523205D01*
X182555272Y-68524629D01*
X182539594Y-68560172D01*
X182539143Y-68561351D01*
X182525555Y-68602914D01*
X182525281Y-68603877D01*
X182513784Y-68651461D01*
X182513620Y-68652249D01*
X182504213Y-68705854D01*
X182504117Y-68706502D01*
X182496801Y-68766129D01*
X182496746Y-68766668D01*
X182491520Y-68832315D01*
X182491492Y-68832768D01*
X182488357Y-68904436D01*
X182488346Y-68904820D01*
X182487470Y-68969980D01*
X181512530Y-68969980D01*
X181511653Y-68904820D01*
X181511642Y-68904436D01*
X181508507Y-68832768D01*
X181508479Y-68832315D01*
X181503253Y-68766668D01*
X181503198Y-68766129D01*
X181495882Y-68706502D01*
X181495786Y-68705854D01*
X181486379Y-68652249D01*
X181486215Y-68651461D01*
X181474718Y-68603877D01*
X181474444Y-68602914D01*
X181460856Y-68561351D01*
X181460405Y-68560172D01*
X181444727Y-68524629D01*
X181443988Y-68523205D01*
X181426219Y-68493684D01*
X181425038Y-68492036D01*
X181410937Y-68475349D01*
X182000000Y-67453626D01*
X182589063Y-68475349D01*
X182589063Y-68475349D01*
G37*
X182589063Y-68475349D02*
X182574961Y-68492036D01*
X182573780Y-68493684D01*
X182556011Y-68523205D01*
X182555272Y-68524629D01*
X182539594Y-68560172D01*
X182539143Y-68561351D01*
X182525555Y-68602914D01*
X182525281Y-68603877D01*
X182513784Y-68651461D01*
X182513620Y-68652249D01*
X182504213Y-68705854D01*
X182504117Y-68706502D01*
X182496801Y-68766129D01*
X182496746Y-68766668D01*
X182491520Y-68832315D01*
X182491492Y-68832768D01*
X182488357Y-68904436D01*
X182488346Y-68904820D01*
X182487470Y-68969980D01*
X181512530Y-68969980D01*
X181511653Y-68904820D01*
X181511642Y-68904436D01*
X181508507Y-68832768D01*
X181508479Y-68832315D01*
X181503253Y-68766668D01*
X181503198Y-68766129D01*
X181495882Y-68706502D01*
X181495786Y-68705854D01*
X181486379Y-68652249D01*
X181486215Y-68651461D01*
X181474718Y-68603877D01*
X181474444Y-68602914D01*
X181460856Y-68561351D01*
X181460405Y-68560172D01*
X181444727Y-68524629D01*
X181443988Y-68523205D01*
X181426219Y-68493684D01*
X181425038Y-68492036D01*
X181410937Y-68475349D01*
X182000000Y-67453626D01*
X182589063Y-68475349D01*
G36*
X197980348Y-43022918D02*
G01*
X197897949Y-43105135D01*
X197897768Y-43105319D01*
X197817868Y-43188355D01*
X197817654Y-43188583D01*
X197747154Y-43265551D01*
X197746899Y-43265838D01*
X197685799Y-43336738D01*
X197685490Y-43337111D01*
X197633790Y-43401943D01*
X197633412Y-43402441D01*
X197591112Y-43461205D01*
X197590646Y-43461899D01*
X197557746Y-43514595D01*
X197557178Y-43515605D01*
X197533678Y-43562233D01*
X197533023Y-43563779D01*
X197518923Y-43604338D01*
X197518335Y-43606793D01*
X197515132Y-43630300D01*
X197287308Y-43630300D01*
X197284104Y-43606793D01*
X197283516Y-43604338D01*
X197269416Y-43563779D01*
X197268761Y-43562233D01*
X197245261Y-43515605D01*
X197244693Y-43514595D01*
X197211793Y-43461899D01*
X197211327Y-43461205D01*
X197169027Y-43402441D01*
X197168649Y-43401943D01*
X197116949Y-43337111D01*
X197116640Y-43336738D01*
X197055540Y-43265838D01*
X197055285Y-43265551D01*
X196984785Y-43188583D01*
X196984571Y-43188355D01*
X196904671Y-43105319D01*
X196904490Y-43105135D01*
X196822092Y-43022918D01*
X197401220Y-42018426D01*
X197980348Y-43022918D01*
X197980348Y-43022918D01*
G37*
X197980348Y-43022918D02*
X197897949Y-43105135D01*
X197897768Y-43105319D01*
X197817868Y-43188355D01*
X197817654Y-43188583D01*
X197747154Y-43265551D01*
X197746899Y-43265838D01*
X197685799Y-43336738D01*
X197685490Y-43337111D01*
X197633790Y-43401943D01*
X197633412Y-43402441D01*
X197591112Y-43461205D01*
X197590646Y-43461899D01*
X197557746Y-43514595D01*
X197557178Y-43515605D01*
X197533678Y-43562233D01*
X197533023Y-43563779D01*
X197518923Y-43604338D01*
X197518335Y-43606793D01*
X197515132Y-43630300D01*
X197287308Y-43630300D01*
X197284104Y-43606793D01*
X197283516Y-43604338D01*
X197269416Y-43563779D01*
X197268761Y-43562233D01*
X197245261Y-43515605D01*
X197244693Y-43514595D01*
X197211793Y-43461899D01*
X197211327Y-43461205D01*
X197169027Y-43402441D01*
X197168649Y-43401943D01*
X197116949Y-43337111D01*
X197116640Y-43336738D01*
X197055540Y-43265838D01*
X197055285Y-43265551D01*
X196984785Y-43188583D01*
X196984571Y-43188355D01*
X196904671Y-43105319D01*
X196904490Y-43105135D01*
X196822092Y-43022918D01*
X197401220Y-42018426D01*
X197980348Y-43022918D01*
G36*
X182935337Y-64546100D02*
G01*
X182923701Y-64562116D01*
X182922351Y-64564468D01*
X182906378Y-64600786D01*
X182905810Y-64602347D01*
X182891873Y-64650190D01*
X182891614Y-64651246D01*
X182879715Y-64710615D01*
X182879588Y-64711361D01*
X182869727Y-64782256D01*
X182869663Y-64782806D01*
X182861838Y-64865226D01*
X182861805Y-64865645D01*
X182856018Y-64959591D01*
X182856002Y-64959921D01*
X182852252Y-65065392D01*
X182852245Y-65065657D01*
X182850532Y-65182655D01*
X182850531Y-65182873D01*
X182850831Y-65301632D01*
X181712651Y-65607349D01*
X182018368Y-64469169D01*
X182137126Y-64469468D01*
X182137344Y-64469467D01*
X182254342Y-64467754D01*
X182254607Y-64467747D01*
X182360078Y-64463997D01*
X182360408Y-64463981D01*
X182454354Y-64458194D01*
X182454773Y-64458161D01*
X182537194Y-64450336D01*
X182537744Y-64450272D01*
X182608638Y-64440411D01*
X182609384Y-64440284D01*
X182668753Y-64428385D01*
X182669809Y-64428126D01*
X182717652Y-64414189D01*
X182719213Y-64413621D01*
X182755531Y-64397648D01*
X182757882Y-64396298D01*
X182773899Y-64384662D01*
X182935337Y-64546100D01*
X182935337Y-64546100D01*
G37*
X182935337Y-64546100D02*
X182923701Y-64562116D01*
X182922351Y-64564468D01*
X182906378Y-64600786D01*
X182905810Y-64602347D01*
X182891873Y-64650190D01*
X182891614Y-64651246D01*
X182879715Y-64710615D01*
X182879588Y-64711361D01*
X182869727Y-64782256D01*
X182869663Y-64782806D01*
X182861838Y-64865226D01*
X182861805Y-64865645D01*
X182856018Y-64959591D01*
X182856002Y-64959921D01*
X182852252Y-65065392D01*
X182852245Y-65065657D01*
X182850532Y-65182655D01*
X182850531Y-65182873D01*
X182850831Y-65301632D01*
X181712651Y-65607349D01*
X182018368Y-64469169D01*
X182137126Y-64469468D01*
X182137344Y-64469467D01*
X182254342Y-64467754D01*
X182254607Y-64467747D01*
X182360078Y-64463997D01*
X182360408Y-64463981D01*
X182454354Y-64458194D01*
X182454773Y-64458161D01*
X182537194Y-64450336D01*
X182537744Y-64450272D01*
X182608638Y-64440411D01*
X182609384Y-64440284D01*
X182668753Y-64428385D01*
X182669809Y-64428126D01*
X182717652Y-64414189D01*
X182719213Y-64413621D01*
X182755531Y-64397648D01*
X182757882Y-64396298D01*
X182773899Y-64384662D01*
X182935337Y-64546100D01*
G36*
X195091663Y-68356511D02*
G01*
X195059063Y-68415747D01*
X195058590Y-68416698D01*
X195025446Y-68491032D01*
X195025091Y-68491915D01*
X194996002Y-68572989D01*
X194995743Y-68573796D01*
X194970707Y-68661609D01*
X194970522Y-68662340D01*
X194949541Y-68756893D01*
X194949413Y-68757551D01*
X194932485Y-68858843D01*
X194932400Y-68859433D01*
X194919527Y-68967465D01*
X194919475Y-68967995D01*
X194910656Y-69082766D01*
X194910629Y-69083241D01*
X194905864Y-69204751D01*
X194905854Y-69205179D01*
X194905198Y-69323747D01*
X193785346Y-69624541D01*
X194086166Y-68504593D01*
X194203583Y-68502780D01*
X194204303Y-68502749D01*
X194322063Y-68494234D01*
X194322894Y-68494146D01*
X194431415Y-68479077D01*
X194432371Y-68478907D01*
X194531653Y-68457284D01*
X194532743Y-68456995D01*
X194622785Y-68428818D01*
X194624007Y-68428366D01*
X194704810Y-68393634D01*
X194706141Y-68392967D01*
X194777704Y-68351681D01*
X194779091Y-68350754D01*
X194841415Y-68302915D01*
X194842771Y-68301711D01*
X194895855Y-68247317D01*
X194897075Y-68245863D01*
X194932195Y-68197043D01*
X195091663Y-68356511D01*
X195091663Y-68356511D01*
G37*
X195091663Y-68356511D02*
X195059063Y-68415747D01*
X195058590Y-68416698D01*
X195025446Y-68491032D01*
X195025091Y-68491915D01*
X194996002Y-68572989D01*
X194995743Y-68573796D01*
X194970707Y-68661609D01*
X194970522Y-68662340D01*
X194949541Y-68756893D01*
X194949413Y-68757551D01*
X194932485Y-68858843D01*
X194932400Y-68859433D01*
X194919527Y-68967465D01*
X194919475Y-68967995D01*
X194910656Y-69082766D01*
X194910629Y-69083241D01*
X194905864Y-69204751D01*
X194905854Y-69205179D01*
X194905198Y-69323747D01*
X193785346Y-69624541D01*
X194086166Y-68504593D01*
X194203583Y-68502780D01*
X194204303Y-68502749D01*
X194322063Y-68494234D01*
X194322894Y-68494146D01*
X194431415Y-68479077D01*
X194432371Y-68478907D01*
X194531653Y-68457284D01*
X194532743Y-68456995D01*
X194622785Y-68428818D01*
X194624007Y-68428366D01*
X194704810Y-68393634D01*
X194706141Y-68392967D01*
X194777704Y-68351681D01*
X194779091Y-68350754D01*
X194841415Y-68302915D01*
X194842771Y-68301711D01*
X194895855Y-68247317D01*
X194897075Y-68245863D01*
X194932195Y-68197043D01*
X195091663Y-68356511D01*
G36*
X195558271Y-62200165D02*
G01*
X195475476Y-62287648D01*
X195474825Y-62288392D01*
X195394925Y-62387187D01*
X195394312Y-62388011D01*
X195323812Y-62491244D01*
X195323255Y-62492138D01*
X195262155Y-62599809D01*
X195261667Y-62600759D01*
X195209967Y-62712867D01*
X195209562Y-62713852D01*
X195167262Y-62830398D01*
X195166945Y-62831398D01*
X195134045Y-62952382D01*
X195133817Y-62953376D01*
X195110317Y-63078798D01*
X195110174Y-63079766D01*
X195096074Y-63209626D01*
X195096008Y-63210553D01*
X195091737Y-63332595D01*
X194866263Y-63332595D01*
X194861992Y-63210553D01*
X194861926Y-63209626D01*
X194847826Y-63079766D01*
X194847683Y-63078798D01*
X194824183Y-62953376D01*
X194823955Y-62952382D01*
X194791055Y-62831398D01*
X194790738Y-62830398D01*
X194748438Y-62713852D01*
X194748033Y-62712867D01*
X194696333Y-62600759D01*
X194695845Y-62599809D01*
X194634745Y-62492138D01*
X194634188Y-62491244D01*
X194563688Y-62388011D01*
X194563075Y-62387187D01*
X194483175Y-62288392D01*
X194482524Y-62287648D01*
X194399729Y-62200165D01*
X194979000Y-61195426D01*
X195558271Y-62200165D01*
X195558271Y-62200165D01*
G37*
X195558271Y-62200165D02*
X195475476Y-62287648D01*
X195474825Y-62288392D01*
X195394925Y-62387187D01*
X195394312Y-62388011D01*
X195323812Y-62491244D01*
X195323255Y-62492138D01*
X195262155Y-62599809D01*
X195261667Y-62600759D01*
X195209967Y-62712867D01*
X195209562Y-62713852D01*
X195167262Y-62830398D01*
X195166945Y-62831398D01*
X195134045Y-62952382D01*
X195133817Y-62953376D01*
X195110317Y-63078798D01*
X195110174Y-63079766D01*
X195096074Y-63209626D01*
X195096008Y-63210553D01*
X195091737Y-63332595D01*
X194866263Y-63332595D01*
X194861992Y-63210553D01*
X194861926Y-63209626D01*
X194847826Y-63079766D01*
X194847683Y-63078798D01*
X194824183Y-62953376D01*
X194823955Y-62952382D01*
X194791055Y-62831398D01*
X194790738Y-62830398D01*
X194748438Y-62713852D01*
X194748033Y-62712867D01*
X194696333Y-62600759D01*
X194695845Y-62599809D01*
X194634745Y-62492138D01*
X194634188Y-62491244D01*
X194563688Y-62388011D01*
X194563075Y-62387187D01*
X194483175Y-62288392D01*
X194482524Y-62287648D01*
X194399729Y-62200165D01*
X194979000Y-61195426D01*
X195558271Y-62200165D01*
G36*
X198058271Y-62200165D02*
G01*
X197975476Y-62287648D01*
X197974825Y-62288392D01*
X197894925Y-62387187D01*
X197894312Y-62388011D01*
X197823812Y-62491244D01*
X197823255Y-62492138D01*
X197762155Y-62599809D01*
X197761667Y-62600759D01*
X197709967Y-62712867D01*
X197709562Y-62713852D01*
X197667262Y-62830398D01*
X197666945Y-62831398D01*
X197634045Y-62952382D01*
X197633817Y-62953376D01*
X197610317Y-63078798D01*
X197610174Y-63079766D01*
X197596074Y-63209626D01*
X197596008Y-63210553D01*
X197591737Y-63332595D01*
X197366263Y-63332595D01*
X197361992Y-63210553D01*
X197361926Y-63209626D01*
X197347826Y-63079766D01*
X197347683Y-63078798D01*
X197324183Y-62953376D01*
X197323955Y-62952382D01*
X197291055Y-62831398D01*
X197290738Y-62830398D01*
X197248438Y-62713852D01*
X197248033Y-62712867D01*
X197196333Y-62600759D01*
X197195845Y-62599809D01*
X197134745Y-62492138D01*
X197134188Y-62491244D01*
X197063688Y-62388011D01*
X197063075Y-62387187D01*
X196983175Y-62288392D01*
X196982524Y-62287648D01*
X196899729Y-62200165D01*
X197479000Y-61195426D01*
X198058271Y-62200165D01*
X198058271Y-62200165D01*
G37*
X198058271Y-62200165D02*
X197975476Y-62287648D01*
X197974825Y-62288392D01*
X197894925Y-62387187D01*
X197894312Y-62388011D01*
X197823812Y-62491244D01*
X197823255Y-62492138D01*
X197762155Y-62599809D01*
X197761667Y-62600759D01*
X197709967Y-62712867D01*
X197709562Y-62713852D01*
X197667262Y-62830398D01*
X197666945Y-62831398D01*
X197634045Y-62952382D01*
X197633817Y-62953376D01*
X197610317Y-63078798D01*
X197610174Y-63079766D01*
X197596074Y-63209626D01*
X197596008Y-63210553D01*
X197591737Y-63332595D01*
X197366263Y-63332595D01*
X197361992Y-63210553D01*
X197361926Y-63209626D01*
X197347826Y-63079766D01*
X197347683Y-63078798D01*
X197324183Y-62953376D01*
X197323955Y-62952382D01*
X197291055Y-62831398D01*
X197290738Y-62830398D01*
X197248438Y-62713852D01*
X197248033Y-62712867D01*
X197196333Y-62600759D01*
X197195845Y-62599809D01*
X197134745Y-62492138D01*
X197134188Y-62491244D01*
X197063688Y-62388011D01*
X197063075Y-62387187D01*
X196983175Y-62288392D01*
X196982524Y-62287648D01*
X196899729Y-62200165D01*
X197479000Y-61195426D01*
X198058271Y-62200165D01*
G36*
X198007248Y-68014591D02*
G01*
X198007879Y-68015279D01*
X198109673Y-68118383D01*
X198110416Y-68119077D01*
X198215720Y-68209897D01*
X198216581Y-68210578D01*
X198325393Y-68289113D01*
X198326374Y-68289754D01*
X198438696Y-68356004D01*
X198439785Y-68356577D01*
X198555615Y-68410542D01*
X198556790Y-68411020D01*
X198676129Y-68452700D01*
X198677361Y-68453061D01*
X198800209Y-68482457D01*
X198801461Y-68482691D01*
X198927817Y-68499802D01*
X198929049Y-68499908D01*
X199049553Y-68504386D01*
X199350428Y-69624541D01*
X198230367Y-69323691D01*
X198227049Y-69202038D01*
X198226988Y-69201087D01*
X198213627Y-69070981D01*
X198213494Y-69070037D01*
X198190348Y-68940939D01*
X198190147Y-68940018D01*
X198157217Y-68811929D01*
X198156955Y-68811045D01*
X198114240Y-68683965D01*
X198113926Y-68683129D01*
X198061426Y-68557057D01*
X198061070Y-68556277D01*
X197998785Y-68431215D01*
X197998398Y-68430497D01*
X197926328Y-68306443D01*
X197925921Y-68305789D01*
X197844067Y-68182745D01*
X197843649Y-68182153D01*
X197758627Y-68068930D01*
X197917882Y-67909675D01*
X198007248Y-68014591D01*
X198007248Y-68014591D01*
G37*
X198007248Y-68014591D02*
X198007879Y-68015279D01*
X198109673Y-68118383D01*
X198110416Y-68119077D01*
X198215720Y-68209897D01*
X198216581Y-68210578D01*
X198325393Y-68289113D01*
X198326374Y-68289754D01*
X198438696Y-68356004D01*
X198439785Y-68356577D01*
X198555615Y-68410542D01*
X198556790Y-68411020D01*
X198676129Y-68452700D01*
X198677361Y-68453061D01*
X198800209Y-68482457D01*
X198801461Y-68482691D01*
X198927817Y-68499802D01*
X198929049Y-68499908D01*
X199049553Y-68504386D01*
X199350428Y-69624541D01*
X198230367Y-69323691D01*
X198227049Y-69202038D01*
X198226988Y-69201087D01*
X198213627Y-69070981D01*
X198213494Y-69070037D01*
X198190348Y-68940939D01*
X198190147Y-68940018D01*
X198157217Y-68811929D01*
X198156955Y-68811045D01*
X198114240Y-68683965D01*
X198113926Y-68683129D01*
X198061426Y-68557057D01*
X198061070Y-68556277D01*
X197998785Y-68431215D01*
X197998398Y-68430497D01*
X197926328Y-68306443D01*
X197925921Y-68305789D01*
X197844067Y-68182745D01*
X197843649Y-68182153D01*
X197758627Y-68068930D01*
X197917882Y-67909675D01*
X198007248Y-68014591D01*
G36*
X213222782Y-67726446D02*
G01*
X213222848Y-67727373D01*
X213236948Y-67857233D01*
X213237091Y-67858201D01*
X213260591Y-67983623D01*
X213260819Y-67984617D01*
X213293719Y-68105601D01*
X213294036Y-68106601D01*
X213336336Y-68223147D01*
X213336741Y-68224132D01*
X213388441Y-68336241D01*
X213388929Y-68337191D01*
X213450028Y-68444861D01*
X213450585Y-68445755D01*
X213521086Y-68548988D01*
X213521699Y-68549812D01*
X213601599Y-68648607D01*
X213602250Y-68649351D01*
X213685045Y-68736835D01*
X213105774Y-69741574D01*
X212526503Y-68736835D01*
X212609298Y-68649351D01*
X212609949Y-68648607D01*
X212689849Y-68549812D01*
X212690462Y-68548988D01*
X212760962Y-68445755D01*
X212761519Y-68444861D01*
X212822619Y-68337191D01*
X212823107Y-68336241D01*
X212874807Y-68224132D01*
X212875212Y-68223147D01*
X212917512Y-68106601D01*
X212917829Y-68105600D01*
X212950728Y-67984616D01*
X212950956Y-67983623D01*
X212974457Y-67858201D01*
X212974600Y-67857233D01*
X212988700Y-67727373D01*
X212988766Y-67726446D01*
X212993037Y-67604405D01*
X213218511Y-67604405D01*
X213222782Y-67726446D01*
X213222782Y-67726446D01*
G37*
X213222782Y-67726446D02*
X213222848Y-67727373D01*
X213236948Y-67857233D01*
X213237091Y-67858201D01*
X213260591Y-67983623D01*
X213260819Y-67984617D01*
X213293719Y-68105601D01*
X213294036Y-68106601D01*
X213336336Y-68223147D01*
X213336741Y-68224132D01*
X213388441Y-68336241D01*
X213388929Y-68337191D01*
X213450028Y-68444861D01*
X213450585Y-68445755D01*
X213521086Y-68548988D01*
X213521699Y-68549812D01*
X213601599Y-68648607D01*
X213602250Y-68649351D01*
X213685045Y-68736835D01*
X213105774Y-69741574D01*
X212526503Y-68736835D01*
X212609298Y-68649351D01*
X212609949Y-68648607D01*
X212689849Y-68549812D01*
X212690462Y-68548988D01*
X212760962Y-68445755D01*
X212761519Y-68444861D01*
X212822619Y-68337191D01*
X212823107Y-68336241D01*
X212874807Y-68224132D01*
X212875212Y-68223147D01*
X212917512Y-68106601D01*
X212917829Y-68105600D01*
X212950728Y-67984616D01*
X212950956Y-67983623D01*
X212974457Y-67858201D01*
X212974600Y-67857233D01*
X212988700Y-67727373D01*
X212988766Y-67726446D01*
X212993037Y-67604405D01*
X213218511Y-67604405D01*
X213222782Y-67726446D01*
G36*
X216687271Y-62200165D02*
G01*
X216604476Y-62287648D01*
X216603825Y-62288392D01*
X216523925Y-62387187D01*
X216523312Y-62388011D01*
X216452812Y-62491244D01*
X216452255Y-62492138D01*
X216391155Y-62599809D01*
X216390667Y-62600759D01*
X216338967Y-62712867D01*
X216338562Y-62713852D01*
X216296262Y-62830398D01*
X216295945Y-62831398D01*
X216263045Y-62952382D01*
X216262817Y-62953376D01*
X216239317Y-63078798D01*
X216239174Y-63079766D01*
X216225074Y-63209626D01*
X216225008Y-63210553D01*
X216220737Y-63332595D01*
X215995263Y-63332595D01*
X215990992Y-63210553D01*
X215990926Y-63209626D01*
X215976826Y-63079766D01*
X215976683Y-63078798D01*
X215953183Y-62953376D01*
X215952955Y-62952382D01*
X215920055Y-62831398D01*
X215919738Y-62830398D01*
X215877438Y-62713852D01*
X215877033Y-62712867D01*
X215825333Y-62600759D01*
X215824845Y-62599809D01*
X215763745Y-62492138D01*
X215763188Y-62491244D01*
X215692688Y-62388011D01*
X215692075Y-62387187D01*
X215612175Y-62288392D01*
X215611524Y-62287648D01*
X215528729Y-62200165D01*
X216108000Y-61195426D01*
X216687271Y-62200165D01*
X216687271Y-62200165D01*
G37*
X216687271Y-62200165D02*
X216604476Y-62287648D01*
X216603825Y-62288392D01*
X216523925Y-62387187D01*
X216523312Y-62388011D01*
X216452812Y-62491244D01*
X216452255Y-62492138D01*
X216391155Y-62599809D01*
X216390667Y-62600759D01*
X216338967Y-62712867D01*
X216338562Y-62713852D01*
X216296262Y-62830398D01*
X216295945Y-62831398D01*
X216263045Y-62952382D01*
X216262817Y-62953376D01*
X216239317Y-63078798D01*
X216239174Y-63079766D01*
X216225074Y-63209626D01*
X216225008Y-63210553D01*
X216220737Y-63332595D01*
X215995263Y-63332595D01*
X215990992Y-63210553D01*
X215990926Y-63209626D01*
X215976826Y-63079766D01*
X215976683Y-63078798D01*
X215953183Y-62953376D01*
X215952955Y-62952382D01*
X215920055Y-62831398D01*
X215919738Y-62830398D01*
X215877438Y-62713852D01*
X215877033Y-62712867D01*
X215825333Y-62600759D01*
X215824845Y-62599809D01*
X215763745Y-62492138D01*
X215763188Y-62491244D01*
X215692688Y-62388011D01*
X215692075Y-62387187D01*
X215612175Y-62288392D01*
X215611524Y-62287648D01*
X215528729Y-62200165D01*
X216108000Y-61195426D01*
X216687271Y-62200165D01*
G36*
X200558271Y-62200165D02*
G01*
X200475476Y-62287648D01*
X200474825Y-62288392D01*
X200394925Y-62387187D01*
X200394312Y-62388011D01*
X200323812Y-62491244D01*
X200323255Y-62492138D01*
X200262155Y-62599809D01*
X200261667Y-62600759D01*
X200209967Y-62712867D01*
X200209562Y-62713852D01*
X200167262Y-62830398D01*
X200166945Y-62831398D01*
X200134045Y-62952382D01*
X200133817Y-62953376D01*
X200110317Y-63078798D01*
X200110174Y-63079766D01*
X200096074Y-63209626D01*
X200096008Y-63210553D01*
X200091737Y-63332595D01*
X199866263Y-63332595D01*
X199861992Y-63210553D01*
X199861926Y-63209626D01*
X199847826Y-63079766D01*
X199847683Y-63078798D01*
X199824183Y-62953376D01*
X199823955Y-62952382D01*
X199791055Y-62831398D01*
X199790738Y-62830398D01*
X199748438Y-62713852D01*
X199748033Y-62712867D01*
X199696333Y-62600759D01*
X199695845Y-62599809D01*
X199634745Y-62492138D01*
X199634188Y-62491244D01*
X199563688Y-62388011D01*
X199563075Y-62387187D01*
X199483175Y-62288392D01*
X199482524Y-62287648D01*
X199399729Y-62200165D01*
X199979000Y-61195426D01*
X200558271Y-62200165D01*
X200558271Y-62200165D01*
G37*
X200558271Y-62200165D02*
X200475476Y-62287648D01*
X200474825Y-62288392D01*
X200394925Y-62387187D01*
X200394312Y-62388011D01*
X200323812Y-62491244D01*
X200323255Y-62492138D01*
X200262155Y-62599809D01*
X200261667Y-62600759D01*
X200209967Y-62712867D01*
X200209562Y-62713852D01*
X200167262Y-62830398D01*
X200166945Y-62831398D01*
X200134045Y-62952382D01*
X200133817Y-62953376D01*
X200110317Y-63078798D01*
X200110174Y-63079766D01*
X200096074Y-63209626D01*
X200096008Y-63210553D01*
X200091737Y-63332595D01*
X199866263Y-63332595D01*
X199861992Y-63210553D01*
X199861926Y-63209626D01*
X199847826Y-63079766D01*
X199847683Y-63078798D01*
X199824183Y-62953376D01*
X199823955Y-62952382D01*
X199791055Y-62831398D01*
X199790738Y-62830398D01*
X199748438Y-62713852D01*
X199748033Y-62712867D01*
X199696333Y-62600759D01*
X199695845Y-62599809D01*
X199634745Y-62492138D01*
X199634188Y-62491244D01*
X199563688Y-62388011D01*
X199563075Y-62387187D01*
X199483175Y-62288392D01*
X199482524Y-62287648D01*
X199399729Y-62200165D01*
X199979000Y-61195426D01*
X200558271Y-62200165D01*
G36*
X200507248Y-68014591D02*
G01*
X200507879Y-68015279D01*
X200609673Y-68118383D01*
X200610416Y-68119077D01*
X200715720Y-68209897D01*
X200716581Y-68210578D01*
X200825393Y-68289113D01*
X200826374Y-68289754D01*
X200938696Y-68356004D01*
X200939785Y-68356577D01*
X201055615Y-68410542D01*
X201056790Y-68411020D01*
X201176129Y-68452700D01*
X201177361Y-68453061D01*
X201300209Y-68482457D01*
X201301461Y-68482691D01*
X201427817Y-68499802D01*
X201429049Y-68499908D01*
X201549553Y-68504386D01*
X201850428Y-69624541D01*
X200730367Y-69323691D01*
X200727049Y-69202038D01*
X200726988Y-69201087D01*
X200713627Y-69070981D01*
X200713494Y-69070037D01*
X200690348Y-68940939D01*
X200690147Y-68940018D01*
X200657217Y-68811929D01*
X200656955Y-68811045D01*
X200614240Y-68683965D01*
X200613926Y-68683129D01*
X200561426Y-68557057D01*
X200561070Y-68556277D01*
X200498785Y-68431215D01*
X200498398Y-68430497D01*
X200426328Y-68306443D01*
X200425921Y-68305789D01*
X200344067Y-68182745D01*
X200343649Y-68182153D01*
X200258627Y-68068930D01*
X200417882Y-67909675D01*
X200507248Y-68014591D01*
X200507248Y-68014591D01*
G37*
X200507248Y-68014591D02*
X200507879Y-68015279D01*
X200609673Y-68118383D01*
X200610416Y-68119077D01*
X200715720Y-68209897D01*
X200716581Y-68210578D01*
X200825393Y-68289113D01*
X200826374Y-68289754D01*
X200938696Y-68356004D01*
X200939785Y-68356577D01*
X201055615Y-68410542D01*
X201056790Y-68411020D01*
X201176129Y-68452700D01*
X201177361Y-68453061D01*
X201300209Y-68482457D01*
X201301461Y-68482691D01*
X201427817Y-68499802D01*
X201429049Y-68499908D01*
X201549553Y-68504386D01*
X201850428Y-69624541D01*
X200730367Y-69323691D01*
X200727049Y-69202038D01*
X200726988Y-69201087D01*
X200713627Y-69070981D01*
X200713494Y-69070037D01*
X200690348Y-68940939D01*
X200690147Y-68940018D01*
X200657217Y-68811929D01*
X200656955Y-68811045D01*
X200614240Y-68683965D01*
X200613926Y-68683129D01*
X200561426Y-68557057D01*
X200561070Y-68556277D01*
X200498785Y-68431215D01*
X200498398Y-68430497D01*
X200426328Y-68306443D01*
X200425921Y-68305789D01*
X200344067Y-68182745D01*
X200343649Y-68182153D01*
X200258627Y-68068930D01*
X200417882Y-67909675D01*
X200507248Y-68014591D01*
G36*
X201288260Y-60321930D02*
G01*
X201203238Y-60435153D01*
X201202819Y-60435745D01*
X201120965Y-60558789D01*
X201120558Y-60559443D01*
X201048488Y-60683497D01*
X201048101Y-60684215D01*
X200985817Y-60809277D01*
X200985461Y-60810057D01*
X200932961Y-60936129D01*
X200932647Y-60936965D01*
X200889931Y-61064045D01*
X200889669Y-61064929D01*
X200856739Y-61193018D01*
X200856538Y-61193939D01*
X200833392Y-61323037D01*
X200833259Y-61323981D01*
X200819899Y-61454087D01*
X200819838Y-61455038D01*
X200816520Y-61576691D01*
X199696459Y-61877541D01*
X199997334Y-60757386D01*
X200117837Y-60752908D01*
X200119069Y-60752802D01*
X200245425Y-60735691D01*
X200246677Y-60735457D01*
X200369525Y-60706061D01*
X200370757Y-60705700D01*
X200490096Y-60664020D01*
X200491271Y-60663542D01*
X200607101Y-60609577D01*
X200608190Y-60609004D01*
X200720512Y-60542754D01*
X200721493Y-60542113D01*
X200830305Y-60463578D01*
X200831166Y-60462897D01*
X200936470Y-60372077D01*
X200937213Y-60371383D01*
X201039007Y-60268279D01*
X201039638Y-60267591D01*
X201129005Y-60162675D01*
X201288260Y-60321930D01*
X201288260Y-60321930D01*
G37*
X201288260Y-60321930D02*
X201203238Y-60435153D01*
X201202819Y-60435745D01*
X201120965Y-60558789D01*
X201120558Y-60559443D01*
X201048488Y-60683497D01*
X201048101Y-60684215D01*
X200985817Y-60809277D01*
X200985461Y-60810057D01*
X200932961Y-60936129D01*
X200932647Y-60936965D01*
X200889931Y-61064045D01*
X200889669Y-61064929D01*
X200856739Y-61193018D01*
X200856538Y-61193939D01*
X200833392Y-61323037D01*
X200833259Y-61323981D01*
X200819899Y-61454087D01*
X200819838Y-61455038D01*
X200816520Y-61576691D01*
X199696459Y-61877541D01*
X199997334Y-60757386D01*
X200117837Y-60752908D01*
X200119069Y-60752802D01*
X200245425Y-60735691D01*
X200246677Y-60735457D01*
X200369525Y-60706061D01*
X200370757Y-60705700D01*
X200490096Y-60664020D01*
X200491271Y-60663542D01*
X200607101Y-60609577D01*
X200608190Y-60609004D01*
X200720512Y-60542754D01*
X200721493Y-60542113D01*
X200830305Y-60463578D01*
X200831166Y-60462897D01*
X200936470Y-60372077D01*
X200937213Y-60371383D01*
X201039007Y-60268279D01*
X201039638Y-60267591D01*
X201129005Y-60162675D01*
X201288260Y-60321930D01*
G36*
X212547361Y-60267591D02*
G01*
X212547992Y-60268279D01*
X212649786Y-60371383D01*
X212650529Y-60372077D01*
X212755833Y-60462897D01*
X212756694Y-60463578D01*
X212865506Y-60542113D01*
X212866487Y-60542754D01*
X212978809Y-60609004D01*
X212979898Y-60609577D01*
X213095728Y-60663542D01*
X213096903Y-60664020D01*
X213216242Y-60705700D01*
X213217474Y-60706061D01*
X213340322Y-60735457D01*
X213341574Y-60735691D01*
X213467930Y-60752802D01*
X213469162Y-60752908D01*
X213589666Y-60757386D01*
X213890541Y-61877541D01*
X212770480Y-61576691D01*
X212767162Y-61455038D01*
X212767101Y-61454087D01*
X212753740Y-61323981D01*
X212753607Y-61323037D01*
X212730461Y-61193939D01*
X212730260Y-61193018D01*
X212697330Y-61064929D01*
X212697068Y-61064045D01*
X212654353Y-60936965D01*
X212654039Y-60936129D01*
X212601539Y-60810057D01*
X212601183Y-60809277D01*
X212538898Y-60684215D01*
X212538511Y-60683497D01*
X212466441Y-60559443D01*
X212466034Y-60558789D01*
X212384180Y-60435745D01*
X212383762Y-60435153D01*
X212298740Y-60321930D01*
X212457995Y-60162675D01*
X212547361Y-60267591D01*
X212547361Y-60267591D01*
G37*
X212547361Y-60267591D02*
X212547992Y-60268279D01*
X212649786Y-60371383D01*
X212650529Y-60372077D01*
X212755833Y-60462897D01*
X212756694Y-60463578D01*
X212865506Y-60542113D01*
X212866487Y-60542754D01*
X212978809Y-60609004D01*
X212979898Y-60609577D01*
X213095728Y-60663542D01*
X213096903Y-60664020D01*
X213216242Y-60705700D01*
X213217474Y-60706061D01*
X213340322Y-60735457D01*
X213341574Y-60735691D01*
X213467930Y-60752802D01*
X213469162Y-60752908D01*
X213589666Y-60757386D01*
X213890541Y-61877541D01*
X212770480Y-61576691D01*
X212767162Y-61455038D01*
X212767101Y-61454087D01*
X212753740Y-61323981D01*
X212753607Y-61323037D01*
X212730461Y-61193939D01*
X212730260Y-61193018D01*
X212697330Y-61064929D01*
X212697068Y-61064045D01*
X212654353Y-60936965D01*
X212654039Y-60936129D01*
X212601539Y-60810057D01*
X212601183Y-60809277D01*
X212538898Y-60684215D01*
X212538511Y-60683497D01*
X212466441Y-60559443D01*
X212466034Y-60558789D01*
X212384180Y-60435745D01*
X212383762Y-60435153D01*
X212298740Y-60321930D01*
X212457995Y-60162675D01*
X212547361Y-60267591D01*
G36*
X194882978Y-43255271D02*
G01*
X194766229Y-43255440D01*
X194765899Y-43255445D01*
X194649721Y-43258627D01*
X194649329Y-43258644D01*
X194543444Y-43264826D01*
X194542970Y-43264862D01*
X194447381Y-43274044D01*
X194446800Y-43274114D01*
X194361504Y-43286294D01*
X194360780Y-43286418D01*
X194285779Y-43301598D01*
X194284863Y-43301819D01*
X194220156Y-43319999D01*
X194218985Y-43320391D01*
X194164573Y-43341569D01*
X194163076Y-43342267D01*
X194118957Y-43366445D01*
X194117105Y-43367682D01*
X194092162Y-43387725D01*
X193931495Y-43227058D01*
X193951537Y-43202114D01*
X193952774Y-43200262D01*
X193976952Y-43156143D01*
X193977650Y-43154646D01*
X193998828Y-43100234D01*
X193999220Y-43099063D01*
X194017400Y-43034356D01*
X194017621Y-43033440D01*
X194032801Y-42958439D01*
X194032925Y-42957715D01*
X194045105Y-42872419D01*
X194045175Y-42871838D01*
X194054357Y-42776249D01*
X194054393Y-42775775D01*
X194060575Y-42669891D01*
X194060592Y-42669499D01*
X194063774Y-42553320D01*
X194063779Y-42552990D01*
X194063949Y-42436242D01*
X195183761Y-42135459D01*
X194882978Y-43255271D01*
X194882978Y-43255271D01*
G37*
X194882978Y-43255271D02*
X194766229Y-43255440D01*
X194765899Y-43255445D01*
X194649721Y-43258627D01*
X194649329Y-43258644D01*
X194543444Y-43264826D01*
X194542970Y-43264862D01*
X194447381Y-43274044D01*
X194446800Y-43274114D01*
X194361504Y-43286294D01*
X194360780Y-43286418D01*
X194285779Y-43301598D01*
X194284863Y-43301819D01*
X194220156Y-43319999D01*
X194218985Y-43320391D01*
X194164573Y-43341569D01*
X194163076Y-43342267D01*
X194118957Y-43366445D01*
X194117105Y-43367682D01*
X194092162Y-43387725D01*
X193931495Y-43227058D01*
X193951537Y-43202114D01*
X193952774Y-43200262D01*
X193976952Y-43156143D01*
X193977650Y-43154646D01*
X193998828Y-43100234D01*
X193999220Y-43099063D01*
X194017400Y-43034356D01*
X194017621Y-43033440D01*
X194032801Y-42958439D01*
X194032925Y-42957715D01*
X194045105Y-42872419D01*
X194045175Y-42871838D01*
X194054357Y-42776249D01*
X194054393Y-42775775D01*
X194060575Y-42669891D01*
X194060592Y-42669499D01*
X194063774Y-42553320D01*
X194063779Y-42552990D01*
X194063949Y-42436242D01*
X195183761Y-42135459D01*
X194882978Y-43255271D01*
G36*
X183259387Y-48980146D02*
G01*
X183187889Y-49057723D01*
X183187203Y-49058533D01*
X183115979Y-49150101D01*
X183115351Y-49150984D01*
X183052664Y-49247577D01*
X183052109Y-49248519D01*
X182997960Y-49350138D01*
X182997491Y-49351116D01*
X182951879Y-49457761D01*
X182951503Y-49458753D01*
X182914429Y-49570423D01*
X182914146Y-49571408D01*
X182885608Y-49688104D01*
X182885412Y-49689062D01*
X182865412Y-49810784D01*
X182865296Y-49811699D01*
X182853833Y-49938447D01*
X182853784Y-49939309D01*
X182851070Y-50061568D01*
X181712651Y-50367349D01*
X182018432Y-49228930D01*
X182140690Y-49226215D01*
X182141552Y-49226166D01*
X182268300Y-49214703D01*
X182269215Y-49214587D01*
X182390937Y-49194587D01*
X182391895Y-49194391D01*
X182508591Y-49165853D01*
X182509576Y-49165570D01*
X182621246Y-49128496D01*
X182622238Y-49128120D01*
X182728883Y-49082508D01*
X182729861Y-49082039D01*
X182831480Y-49027890D01*
X182832422Y-49027335D01*
X182929015Y-48964648D01*
X182929898Y-48964020D01*
X183021466Y-48892796D01*
X183022276Y-48892110D01*
X183099854Y-48820613D01*
X183259387Y-48980146D01*
X183259387Y-48980146D01*
G37*
X183259387Y-48980146D02*
X183187889Y-49057723D01*
X183187203Y-49058533D01*
X183115979Y-49150101D01*
X183115351Y-49150984D01*
X183052664Y-49247577D01*
X183052109Y-49248519D01*
X182997960Y-49350138D01*
X182997491Y-49351116D01*
X182951879Y-49457761D01*
X182951503Y-49458753D01*
X182914429Y-49570423D01*
X182914146Y-49571408D01*
X182885608Y-49688104D01*
X182885412Y-49689062D01*
X182865412Y-49810784D01*
X182865296Y-49811699D01*
X182853833Y-49938447D01*
X182853784Y-49939309D01*
X182851070Y-50061568D01*
X181712651Y-50367349D01*
X182018432Y-49228930D01*
X182140690Y-49226215D01*
X182141552Y-49226166D01*
X182268300Y-49214703D01*
X182269215Y-49214587D01*
X182390937Y-49194587D01*
X182391895Y-49194391D01*
X182508591Y-49165853D01*
X182509576Y-49165570D01*
X182621246Y-49128496D01*
X182622238Y-49128120D01*
X182728883Y-49082508D01*
X182729861Y-49082039D01*
X182831480Y-49027890D01*
X182832422Y-49027335D01*
X182929015Y-48964648D01*
X182929898Y-48964020D01*
X183021466Y-48892796D01*
X183022276Y-48892110D01*
X183099854Y-48820613D01*
X183259387Y-48980146D01*
G36*
X204184895Y-67726446D02*
G01*
X204184961Y-67727373D01*
X204199061Y-67857233D01*
X204199204Y-67858201D01*
X204222704Y-67983623D01*
X204222932Y-67984617D01*
X204255832Y-68105601D01*
X204256149Y-68106601D01*
X204298449Y-68223147D01*
X204298854Y-68224132D01*
X204350554Y-68336241D01*
X204351042Y-68337191D01*
X204412141Y-68444861D01*
X204412698Y-68445755D01*
X204483199Y-68548988D01*
X204483812Y-68549812D01*
X204563712Y-68648607D01*
X204564363Y-68649351D01*
X204647158Y-68736835D01*
X204067887Y-69741574D01*
X203488616Y-68736835D01*
X203571411Y-68649351D01*
X203572062Y-68648607D01*
X203651962Y-68549812D01*
X203652575Y-68548988D01*
X203723075Y-68445755D01*
X203723632Y-68444861D01*
X203784732Y-68337191D01*
X203785220Y-68336241D01*
X203836920Y-68224132D01*
X203837325Y-68223147D01*
X203879625Y-68106601D01*
X203879942Y-68105600D01*
X203912841Y-67984616D01*
X203913069Y-67983623D01*
X203936570Y-67858201D01*
X203936713Y-67857233D01*
X203950813Y-67727373D01*
X203950879Y-67726446D01*
X203955150Y-67604405D01*
X204180624Y-67604405D01*
X204184895Y-67726446D01*
X204184895Y-67726446D01*
G37*
X204184895Y-67726446D02*
X204184961Y-67727373D01*
X204199061Y-67857233D01*
X204199204Y-67858201D01*
X204222704Y-67983623D01*
X204222932Y-67984617D01*
X204255832Y-68105601D01*
X204256149Y-68106601D01*
X204298449Y-68223147D01*
X204298854Y-68224132D01*
X204350554Y-68336241D01*
X204351042Y-68337191D01*
X204412141Y-68444861D01*
X204412698Y-68445755D01*
X204483199Y-68548988D01*
X204483812Y-68549812D01*
X204563712Y-68648607D01*
X204564363Y-68649351D01*
X204647158Y-68736835D01*
X204067887Y-69741574D01*
X203488616Y-68736835D01*
X203571411Y-68649351D01*
X203572062Y-68648607D01*
X203651962Y-68549812D01*
X203652575Y-68548988D01*
X203723075Y-68445755D01*
X203723632Y-68444861D01*
X203784732Y-68337191D01*
X203785220Y-68336241D01*
X203836920Y-68224132D01*
X203837325Y-68223147D01*
X203879625Y-68106601D01*
X203879942Y-68105600D01*
X203912841Y-67984616D01*
X203913069Y-67983623D01*
X203936570Y-67858201D01*
X203936713Y-67857233D01*
X203950813Y-67727373D01*
X203950879Y-67726446D01*
X203955150Y-67604405D01*
X204180624Y-67604405D01*
X204184895Y-67726446D01*
G36*
X203171648Y-61098524D02*
G01*
X203172392Y-61099175D01*
X203271187Y-61179075D01*
X203272011Y-61179688D01*
X203375244Y-61250188D01*
X203376138Y-61250745D01*
X203483809Y-61311845D01*
X203484759Y-61312333D01*
X203596867Y-61364033D01*
X203597852Y-61364438D01*
X203714398Y-61406738D01*
X203715398Y-61407055D01*
X203836382Y-61439955D01*
X203837376Y-61440183D01*
X203962798Y-61463683D01*
X203963766Y-61463826D01*
X204093626Y-61477926D01*
X204094553Y-61477992D01*
X204216595Y-61482263D01*
X204216595Y-61707737D01*
X204094553Y-61712008D01*
X204093626Y-61712074D01*
X203963766Y-61726174D01*
X203962798Y-61726317D01*
X203837376Y-61749817D01*
X203836382Y-61750045D01*
X203715398Y-61782945D01*
X203714398Y-61783262D01*
X203597852Y-61825562D01*
X203596867Y-61825967D01*
X203484759Y-61877667D01*
X203483809Y-61878155D01*
X203376138Y-61939255D01*
X203375244Y-61939812D01*
X203272011Y-62010312D01*
X203271187Y-62010925D01*
X203172392Y-62090825D01*
X203171648Y-62091476D01*
X203084165Y-62174271D01*
X202079426Y-61595000D01*
X203084165Y-61015729D01*
X203171648Y-61098524D01*
X203171648Y-61098524D01*
G37*
X203171648Y-61098524D02*
X203172392Y-61099175D01*
X203271187Y-61179075D01*
X203272011Y-61179688D01*
X203375244Y-61250188D01*
X203376138Y-61250745D01*
X203483809Y-61311845D01*
X203484759Y-61312333D01*
X203596867Y-61364033D01*
X203597852Y-61364438D01*
X203714398Y-61406738D01*
X203715398Y-61407055D01*
X203836382Y-61439955D01*
X203837376Y-61440183D01*
X203962798Y-61463683D01*
X203963766Y-61463826D01*
X204093626Y-61477926D01*
X204094553Y-61477992D01*
X204216595Y-61482263D01*
X204216595Y-61707737D01*
X204094553Y-61712008D01*
X204093626Y-61712074D01*
X203963766Y-61726174D01*
X203962798Y-61726317D01*
X203837376Y-61749817D01*
X203836382Y-61750045D01*
X203715398Y-61782945D01*
X203714398Y-61783262D01*
X203597852Y-61825562D01*
X203596867Y-61825967D01*
X203484759Y-61877667D01*
X203483809Y-61878155D01*
X203376138Y-61939255D01*
X203375244Y-61939812D01*
X203272011Y-62010312D01*
X203271187Y-62010925D01*
X203172392Y-62090825D01*
X203171648Y-62091476D01*
X203084165Y-62174271D01*
X202079426Y-61595000D01*
X203084165Y-61015729D01*
X203171648Y-61098524D01*
G36*
X209007574Y-61595000D02*
G01*
X208002835Y-62174271D01*
X207915351Y-62091476D01*
X207914607Y-62090825D01*
X207815812Y-62010925D01*
X207814988Y-62010312D01*
X207711755Y-61939812D01*
X207710861Y-61939255D01*
X207603191Y-61878155D01*
X207602241Y-61877667D01*
X207490132Y-61825967D01*
X207489147Y-61825562D01*
X207372601Y-61783262D01*
X207371601Y-61782945D01*
X207250617Y-61750045D01*
X207249623Y-61749817D01*
X207124201Y-61726317D01*
X207123233Y-61726174D01*
X206993373Y-61712074D01*
X206992446Y-61712008D01*
X206870405Y-61707737D01*
X206870405Y-61482263D01*
X206992446Y-61477992D01*
X206993373Y-61477926D01*
X207123233Y-61463826D01*
X207124201Y-61463683D01*
X207249623Y-61440183D01*
X207250617Y-61439955D01*
X207371601Y-61407055D01*
X207372601Y-61406738D01*
X207489147Y-61364438D01*
X207490132Y-61364033D01*
X207602241Y-61312333D01*
X207603191Y-61311845D01*
X207710861Y-61250745D01*
X207711755Y-61250188D01*
X207814988Y-61179688D01*
X207815812Y-61179075D01*
X207914607Y-61099175D01*
X207915351Y-61098524D01*
X208002835Y-61015729D01*
X209007574Y-61595000D01*
X209007574Y-61595000D01*
G37*
X209007574Y-61595000D02*
X208002835Y-62174271D01*
X207915351Y-62091476D01*
X207914607Y-62090825D01*
X207815812Y-62010925D01*
X207814988Y-62010312D01*
X207711755Y-61939812D01*
X207710861Y-61939255D01*
X207603191Y-61878155D01*
X207602241Y-61877667D01*
X207490132Y-61825967D01*
X207489147Y-61825562D01*
X207372601Y-61783262D01*
X207371601Y-61782945D01*
X207250617Y-61750045D01*
X207249623Y-61749817D01*
X207124201Y-61726317D01*
X207123233Y-61726174D01*
X206993373Y-61712074D01*
X206992446Y-61712008D01*
X206870405Y-61707737D01*
X206870405Y-61482263D01*
X206992446Y-61477992D01*
X206993373Y-61477926D01*
X207123233Y-61463826D01*
X207124201Y-61463683D01*
X207249623Y-61440183D01*
X207250617Y-61439955D01*
X207371601Y-61407055D01*
X207372601Y-61406738D01*
X207489147Y-61364438D01*
X207490132Y-61364033D01*
X207602241Y-61312333D01*
X207603191Y-61311845D01*
X207710861Y-61250745D01*
X207711755Y-61250188D01*
X207814988Y-61179688D01*
X207815812Y-61179075D01*
X207914607Y-61099175D01*
X207915351Y-61098524D01*
X208002835Y-61015729D01*
X209007574Y-61595000D01*
G36*
X210351711Y-43023165D02*
G01*
X210268916Y-43110648D01*
X210268265Y-43111392D01*
X210188365Y-43210187D01*
X210187752Y-43211011D01*
X210117252Y-43314244D01*
X210116695Y-43315138D01*
X210055595Y-43422809D01*
X210055107Y-43423759D01*
X210003407Y-43535867D01*
X210003002Y-43536852D01*
X209960702Y-43653398D01*
X209960385Y-43654398D01*
X209927484Y-43775382D01*
X209927256Y-43776376D01*
X209903757Y-43901798D01*
X209903614Y-43902766D01*
X209889514Y-44032626D01*
X209889448Y-44033553D01*
X209885177Y-44155595D01*
X209659703Y-44155595D01*
X209655432Y-44033553D01*
X209655366Y-44032626D01*
X209641266Y-43902766D01*
X209641123Y-43901798D01*
X209617623Y-43776376D01*
X209617395Y-43775382D01*
X209584495Y-43654398D01*
X209584178Y-43653398D01*
X209541878Y-43536852D01*
X209541473Y-43535867D01*
X209489773Y-43423759D01*
X209489285Y-43422809D01*
X209428184Y-43315138D01*
X209427627Y-43314244D01*
X209357128Y-43211011D01*
X209356515Y-43210187D01*
X209276615Y-43111392D01*
X209275964Y-43110648D01*
X209193169Y-43023165D01*
X209772440Y-42018426D01*
X210351711Y-43023165D01*
X210351711Y-43023165D01*
G37*
X210351711Y-43023165D02*
X210268916Y-43110648D01*
X210268265Y-43111392D01*
X210188365Y-43210187D01*
X210187752Y-43211011D01*
X210117252Y-43314244D01*
X210116695Y-43315138D01*
X210055595Y-43422809D01*
X210055107Y-43423759D01*
X210003407Y-43535867D01*
X210003002Y-43536852D01*
X209960702Y-43653398D01*
X209960385Y-43654398D01*
X209927484Y-43775382D01*
X209927256Y-43776376D01*
X209903757Y-43901798D01*
X209903614Y-43902766D01*
X209889514Y-44032626D01*
X209889448Y-44033553D01*
X209885177Y-44155595D01*
X209659703Y-44155595D01*
X209655432Y-44033553D01*
X209655366Y-44032626D01*
X209641266Y-43902766D01*
X209641123Y-43901798D01*
X209617623Y-43776376D01*
X209617395Y-43775382D01*
X209584495Y-43654398D01*
X209584178Y-43653398D01*
X209541878Y-43536852D01*
X209541473Y-43535867D01*
X209489773Y-43423759D01*
X209489285Y-43422809D01*
X209428184Y-43315138D01*
X209427627Y-43314244D01*
X209357128Y-43211011D01*
X209356515Y-43210187D01*
X209276615Y-43111392D01*
X209275964Y-43110648D01*
X209193169Y-43023165D01*
X209772440Y-42018426D01*
X210351711Y-43023165D01*
G36*
X224857574Y-56309000D02*
G01*
X223913463Y-56853316D01*
X223832207Y-56777834D01*
X223831267Y-56777042D01*
X223737455Y-56705462D01*
X223736412Y-56704746D01*
X223636910Y-56643446D01*
X223635791Y-56642832D01*
X223530599Y-56591812D01*
X223529437Y-56591318D01*
X223418555Y-56550578D01*
X223417386Y-56550212D01*
X223300814Y-56519752D01*
X223299671Y-56519509D01*
X223177409Y-56499329D01*
X223176321Y-56499197D01*
X223048369Y-56489297D01*
X223047353Y-56489259D01*
X222913711Y-56489639D01*
X222912778Y-56489676D01*
X222787115Y-56499290D01*
X222787115Y-56274058D01*
X222915495Y-56256219D01*
X222916215Y-56256098D01*
X223049857Y-56229618D01*
X223050615Y-56229444D01*
X223178567Y-56195844D01*
X223179354Y-56195609D01*
X223301616Y-56154889D01*
X223302425Y-56154589D01*
X223418997Y-56106749D01*
X223419815Y-56106379D01*
X223530697Y-56051419D01*
X223531512Y-56050977D01*
X223636704Y-55988897D01*
X223637500Y-55988386D01*
X223737002Y-55919186D01*
X223737766Y-55918612D01*
X223831578Y-55842292D01*
X223832295Y-55841662D01*
X223913544Y-55764730D01*
X224857574Y-56309000D01*
X224857574Y-56309000D01*
G37*
X224857574Y-56309000D02*
X223913463Y-56853316D01*
X223832207Y-56777834D01*
X223831267Y-56777042D01*
X223737455Y-56705462D01*
X223736412Y-56704746D01*
X223636910Y-56643446D01*
X223635791Y-56642832D01*
X223530599Y-56591812D01*
X223529437Y-56591318D01*
X223418555Y-56550578D01*
X223417386Y-56550212D01*
X223300814Y-56519752D01*
X223299671Y-56519509D01*
X223177409Y-56499329D01*
X223176321Y-56499197D01*
X223048369Y-56489297D01*
X223047353Y-56489259D01*
X222913711Y-56489639D01*
X222912778Y-56489676D01*
X222787115Y-56499290D01*
X222787115Y-56274058D01*
X222915495Y-56256219D01*
X222916215Y-56256098D01*
X223049857Y-56229618D01*
X223050615Y-56229444D01*
X223178567Y-56195844D01*
X223179354Y-56195609D01*
X223301616Y-56154889D01*
X223302425Y-56154589D01*
X223418997Y-56106749D01*
X223419815Y-56106379D01*
X223530697Y-56051419D01*
X223531512Y-56050977D01*
X223636704Y-55988897D01*
X223637500Y-55988386D01*
X223737002Y-55919186D01*
X223737766Y-55918612D01*
X223831578Y-55842292D01*
X223832295Y-55841662D01*
X223913544Y-55764730D01*
X224857574Y-56309000D01*
G36*
X225354648Y-58368611D02*
G01*
X225343301Y-58383857D01*
X225341963Y-58386107D01*
X225326077Y-58420448D01*
X225325475Y-58422010D01*
X225311602Y-58466642D01*
X225311316Y-58467731D01*
X225299455Y-58522655D01*
X225299311Y-58523440D01*
X225289462Y-58588656D01*
X225289388Y-58589241D01*
X225281551Y-58664747D01*
X225281512Y-58665198D01*
X225275688Y-58750996D01*
X225275669Y-58751353D01*
X225271857Y-58847443D01*
X225271849Y-58847731D01*
X225270048Y-58954112D01*
X225270046Y-58954350D01*
X225270241Y-59061266D01*
X224218137Y-59343863D01*
X224500734Y-58291759D01*
X224607649Y-58291953D01*
X224607887Y-58291951D01*
X224714268Y-58290151D01*
X224714557Y-58290143D01*
X224810647Y-58286330D01*
X224811003Y-58286311D01*
X224896801Y-58280487D01*
X224897252Y-58280448D01*
X224972759Y-58272611D01*
X224973344Y-58272537D01*
X225038559Y-58262688D01*
X225039344Y-58262544D01*
X225094268Y-58250683D01*
X225095357Y-58250397D01*
X225139989Y-58236524D01*
X225141551Y-58235922D01*
X225175892Y-58220036D01*
X225178142Y-58218698D01*
X225193389Y-58207352D01*
X225354648Y-58368611D01*
X225354648Y-58368611D01*
G37*
X225354648Y-58368611D02*
X225343301Y-58383857D01*
X225341963Y-58386107D01*
X225326077Y-58420448D01*
X225325475Y-58422010D01*
X225311602Y-58466642D01*
X225311316Y-58467731D01*
X225299455Y-58522655D01*
X225299311Y-58523440D01*
X225289462Y-58588656D01*
X225289388Y-58589241D01*
X225281551Y-58664747D01*
X225281512Y-58665198D01*
X225275688Y-58750996D01*
X225275669Y-58751353D01*
X225271857Y-58847443D01*
X225271849Y-58847731D01*
X225270048Y-58954112D01*
X225270046Y-58954350D01*
X225270241Y-59061266D01*
X224218137Y-59343863D01*
X224500734Y-58291759D01*
X224607649Y-58291953D01*
X224607887Y-58291951D01*
X224714268Y-58290151D01*
X224714557Y-58290143D01*
X224810647Y-58286330D01*
X224811003Y-58286311D01*
X224896801Y-58280487D01*
X224897252Y-58280448D01*
X224972759Y-58272611D01*
X224973344Y-58272537D01*
X225038559Y-58262688D01*
X225039344Y-58262544D01*
X225094268Y-58250683D01*
X225095357Y-58250397D01*
X225139989Y-58236524D01*
X225141551Y-58235922D01*
X225175892Y-58220036D01*
X225178142Y-58218698D01*
X225193389Y-58207352D01*
X225354648Y-58368611D01*
G36*
X212851711Y-43023165D02*
G01*
X212768916Y-43110648D01*
X212768265Y-43111392D01*
X212688365Y-43210187D01*
X212687752Y-43211011D01*
X212617252Y-43314244D01*
X212616695Y-43315138D01*
X212555595Y-43422809D01*
X212555107Y-43423759D01*
X212503407Y-43535867D01*
X212503002Y-43536852D01*
X212460702Y-43653398D01*
X212460385Y-43654398D01*
X212427484Y-43775382D01*
X212427256Y-43776376D01*
X212403757Y-43901798D01*
X212403614Y-43902766D01*
X212389514Y-44032626D01*
X212389448Y-44033553D01*
X212385177Y-44155595D01*
X212159703Y-44155595D01*
X212155432Y-44033553D01*
X212155366Y-44032626D01*
X212141266Y-43902766D01*
X212141123Y-43901798D01*
X212117623Y-43776376D01*
X212117395Y-43775382D01*
X212084495Y-43654398D01*
X212084178Y-43653398D01*
X212041878Y-43536852D01*
X212041473Y-43535867D01*
X211989773Y-43423759D01*
X211989285Y-43422809D01*
X211928184Y-43315138D01*
X211927627Y-43314244D01*
X211857128Y-43211011D01*
X211856515Y-43210187D01*
X211776615Y-43111392D01*
X211775964Y-43110648D01*
X211693169Y-43023165D01*
X212272440Y-42018426D01*
X212851711Y-43023165D01*
X212851711Y-43023165D01*
G37*
X212851711Y-43023165D02*
X212768916Y-43110648D01*
X212768265Y-43111392D01*
X212688365Y-43210187D01*
X212687752Y-43211011D01*
X212617252Y-43314244D01*
X212616695Y-43315138D01*
X212555595Y-43422809D01*
X212555107Y-43423759D01*
X212503407Y-43535867D01*
X212503002Y-43536852D01*
X212460702Y-43653398D01*
X212460385Y-43654398D01*
X212427484Y-43775382D01*
X212427256Y-43776376D01*
X212403757Y-43901798D01*
X212403614Y-43902766D01*
X212389514Y-44032626D01*
X212389448Y-44033553D01*
X212385177Y-44155595D01*
X212159703Y-44155595D01*
X212155432Y-44033553D01*
X212155366Y-44032626D01*
X212141266Y-43902766D01*
X212141123Y-43901798D01*
X212117623Y-43776376D01*
X212117395Y-43775382D01*
X212084495Y-43654398D01*
X212084178Y-43653398D01*
X212041878Y-43536852D01*
X212041473Y-43535867D01*
X211989773Y-43423759D01*
X211989285Y-43422809D01*
X211928184Y-43315138D01*
X211927627Y-43314244D01*
X211857128Y-43211011D01*
X211856515Y-43210187D01*
X211776615Y-43111392D01*
X211775964Y-43110648D01*
X211693169Y-43023165D01*
X212272440Y-42018426D01*
X212851711Y-43023165D01*
D24*
G36*
X229594001Y-75159000D02*
G01*
X170406000Y-75159000D01*
X170406000Y-67860000D01*
X173763044Y-67860000D01*
X173786812Y-68101318D01*
X173857202Y-68333363D01*
X173971509Y-68547216D01*
X174125340Y-68734660D01*
X174312784Y-68888491D01*
X174526637Y-69002798D01*
X174758682Y-69073188D01*
X174939528Y-69091000D01*
X175060472Y-69091000D01*
X175241318Y-69073188D01*
X175473363Y-69002798D01*
X175687216Y-68888491D01*
X175874660Y-68734660D01*
X176028491Y-68547216D01*
X176142798Y-68333363D01*
X176213188Y-68101318D01*
X176236956Y-67860000D01*
X180749378Y-67860000D01*
X180773408Y-68103984D01*
X180844576Y-68338592D01*
X180960146Y-68554808D01*
X181098594Y-68723507D01*
X181100688Y-68732175D01*
X181106313Y-68764224D01*
X181111440Y-68806017D01*
X181115480Y-68856762D01*
X181118067Y-68915898D01*
X181119001Y-68985275D01*
X181119001Y-69038034D01*
X181114738Y-69081314D01*
X181131749Y-69254019D01*
X181182125Y-69420088D01*
X181263932Y-69573139D01*
X181300232Y-69617370D01*
X181374026Y-69707289D01*
X181407640Y-69734875D01*
X182623125Y-70950361D01*
X182650711Y-70983975D01*
X182684323Y-71011559D01*
X182784860Y-71094068D01*
X182937911Y-71175875D01*
X183103980Y-71226252D01*
X183233413Y-71239000D01*
X183233416Y-71239000D01*
X183276686Y-71243262D01*
X183319956Y-71239000D01*
X185958730Y-71239000D01*
X186002000Y-71243262D01*
X186045270Y-71239000D01*
X186045273Y-71239000D01*
X186174706Y-71226252D01*
X186340775Y-71175875D01*
X186493825Y-71094068D01*
X186627975Y-70983975D01*
X186655566Y-70950355D01*
X188449392Y-69156529D01*
X192836887Y-69156529D01*
X192836887Y-69527472D01*
X192854699Y-69708318D01*
X192925089Y-69940363D01*
X193039396Y-70154216D01*
X193193228Y-70341660D01*
X193380672Y-70495491D01*
X193594525Y-70609798D01*
X193826570Y-70680188D01*
X194067887Y-70703956D01*
X194309205Y-70680188D01*
X194541250Y-70609798D01*
X194755103Y-70495491D01*
X194942547Y-70341660D01*
X195096378Y-70154215D01*
X195210685Y-69940362D01*
X195281075Y-69708317D01*
X195298887Y-69527471D01*
X195298887Y-69326764D01*
X195299513Y-69213764D01*
X195301757Y-69156529D01*
X195336887Y-69156529D01*
X195336887Y-69527472D01*
X195354699Y-69708318D01*
X195425089Y-69940363D01*
X195539396Y-70154216D01*
X195693228Y-70341660D01*
X195880672Y-70495491D01*
X196094525Y-70609798D01*
X196326570Y-70680188D01*
X196567887Y-70703956D01*
X196809205Y-70680188D01*
X197041250Y-70609798D01*
X197255103Y-70495491D01*
X197442547Y-70341660D01*
X197596378Y-70154215D01*
X197710685Y-69940362D01*
X197781075Y-69708317D01*
X197798887Y-69527471D01*
X197798887Y-69156528D01*
X197781075Y-68975682D01*
X197710685Y-68743637D01*
X197596378Y-68529784D01*
X197442547Y-68342340D01*
X197255102Y-68188509D01*
X197041249Y-68074202D01*
X196809204Y-68003812D01*
X196567887Y-67980044D01*
X196326569Y-68003812D01*
X196094524Y-68074202D01*
X195880671Y-68188509D01*
X195693227Y-68342340D01*
X195539396Y-68529785D01*
X195425089Y-68743638D01*
X195354699Y-68975683D01*
X195336887Y-69156529D01*
X195301757Y-69156529D01*
X195303746Y-69105813D01*
X195311405Y-69006134D01*
X195322278Y-68914890D01*
X195336068Y-68832372D01*
X195352423Y-68758666D01*
X195370864Y-68693986D01*
X195390838Y-68638316D01*
X195411671Y-68591592D01*
X195422638Y-68571664D01*
X195441758Y-68548366D01*
X195488745Y-68460462D01*
X195517678Y-68365080D01*
X195527448Y-68265887D01*
X195517678Y-68166694D01*
X195488745Y-68071313D01*
X195485000Y-68064307D01*
X195485000Y-63351963D01*
X195488979Y-63238261D01*
X195499989Y-63136859D01*
X195517963Y-63040930D01*
X195542715Y-62949912D01*
X195574184Y-62863206D01*
X195612474Y-62780177D01*
X195614885Y-62775928D01*
X195666216Y-62748491D01*
X195853660Y-62594660D01*
X196007491Y-62407215D01*
X196121798Y-62193362D01*
X196192188Y-61961317D01*
X196210000Y-61780471D01*
X196210000Y-61409529D01*
X196248000Y-61409529D01*
X196248000Y-61780472D01*
X196265812Y-61961318D01*
X196336202Y-62193363D01*
X196450509Y-62407216D01*
X196604341Y-62594660D01*
X196791785Y-62748491D01*
X196843114Y-62775927D01*
X196845526Y-62780177D01*
X196883816Y-62863206D01*
X196915285Y-62949912D01*
X196940037Y-63040930D01*
X196958011Y-63136859D01*
X196969021Y-63238261D01*
X196973001Y-63351983D01*
X196973000Y-67603267D01*
X196970553Y-67628113D01*
X196973000Y-67652959D01*
X196973000Y-67652966D01*
X196980322Y-67727305D01*
X197009255Y-67822687D01*
X197056241Y-67910592D01*
X197119473Y-67987640D01*
X197138785Y-68003489D01*
X197453378Y-68318082D01*
X197522295Y-68409859D01*
X197591725Y-68514227D01*
X197651827Y-68617681D01*
X197702925Y-68720280D01*
X197745326Y-68822100D01*
X197779363Y-68923364D01*
X197805325Y-69024348D01*
X197823447Y-69125426D01*
X197833886Y-69227081D01*
X197836887Y-69337104D01*
X197836887Y-69527472D01*
X197854699Y-69708318D01*
X197925089Y-69940363D01*
X198039396Y-70154216D01*
X198193228Y-70341660D01*
X198380672Y-70495491D01*
X198594525Y-70609798D01*
X198826570Y-70680188D01*
X199067887Y-70703956D01*
X199309205Y-70680188D01*
X199541250Y-70609798D01*
X199755103Y-70495491D01*
X199942547Y-70341660D01*
X200096378Y-70154215D01*
X200210685Y-69940362D01*
X200281075Y-69708317D01*
X200298887Y-69527471D01*
X200298887Y-69156528D01*
X200281075Y-68975682D01*
X200210685Y-68743637D01*
X200096378Y-68529784D01*
X199942547Y-68342340D01*
X199755102Y-68188509D01*
X199541249Y-68074202D01*
X199309204Y-68003812D01*
X199067887Y-67980044D01*
X198826569Y-68003812D01*
X198698345Y-68042708D01*
X198622798Y-68007511D01*
X198541541Y-67959584D01*
X198485912Y-67919433D01*
X197985000Y-67418522D01*
X197985000Y-63351963D01*
X197988979Y-63238261D01*
X197999989Y-63136859D01*
X198017963Y-63040930D01*
X198042715Y-62949912D01*
X198074184Y-62863206D01*
X198112474Y-62780177D01*
X198114885Y-62775928D01*
X198166216Y-62748491D01*
X198353660Y-62594660D01*
X198507491Y-62407215D01*
X198621798Y-62193362D01*
X198692188Y-61961317D01*
X198710000Y-61780471D01*
X198710000Y-61409529D01*
X198748000Y-61409529D01*
X198748000Y-61780472D01*
X198765812Y-61961318D01*
X198836202Y-62193363D01*
X198950509Y-62407216D01*
X199104341Y-62594660D01*
X199291785Y-62748491D01*
X199343114Y-62775927D01*
X199345526Y-62780177D01*
X199383816Y-62863206D01*
X199415285Y-62949912D01*
X199440037Y-63040930D01*
X199458011Y-63136859D01*
X199469021Y-63238261D01*
X199473001Y-63351983D01*
X199473000Y-67603267D01*
X199470553Y-67628113D01*
X199473000Y-67652959D01*
X199473000Y-67652966D01*
X199480322Y-67727305D01*
X199509255Y-67822687D01*
X199556241Y-67910592D01*
X199619473Y-67987640D01*
X199638785Y-68003489D01*
X199953378Y-68318082D01*
X200022295Y-68409859D01*
X200091725Y-68514227D01*
X200151827Y-68617681D01*
X200202925Y-68720280D01*
X200245326Y-68822100D01*
X200279363Y-68923364D01*
X200305325Y-69024348D01*
X200323447Y-69125426D01*
X200333886Y-69227081D01*
X200336887Y-69337104D01*
X200336887Y-69527472D01*
X200354699Y-69708318D01*
X200425089Y-69940363D01*
X200539396Y-70154216D01*
X200693228Y-70341660D01*
X200880672Y-70495491D01*
X201094525Y-70609798D01*
X201326570Y-70680188D01*
X201567887Y-70703956D01*
X201809205Y-70680188D01*
X202041250Y-70609798D01*
X202255103Y-70495491D01*
X202442547Y-70341660D01*
X202596378Y-70154215D01*
X202710685Y-69940362D01*
X202781075Y-69708317D01*
X202798887Y-69527471D01*
X202798887Y-69156528D01*
X202781075Y-68975682D01*
X202710685Y-68743637D01*
X202596378Y-68529784D01*
X202442547Y-68342340D01*
X202255102Y-68188509D01*
X202041249Y-68074202D01*
X201809204Y-68003812D01*
X201567887Y-67980044D01*
X201326569Y-68003812D01*
X201198345Y-68042708D01*
X201122798Y-68007511D01*
X201041541Y-67959584D01*
X200985912Y-67919433D01*
X200485000Y-67418522D01*
X200485000Y-63351963D01*
X200488979Y-63238261D01*
X200499989Y-63136859D01*
X200517963Y-63040930D01*
X200542715Y-62949912D01*
X200574184Y-62863206D01*
X200612474Y-62780177D01*
X200614885Y-62775928D01*
X200666216Y-62748491D01*
X200853660Y-62594660D01*
X201007491Y-62407215D01*
X201121798Y-62193362D01*
X201192188Y-61961317D01*
X201210000Y-61780471D01*
X201210000Y-61590104D01*
X201213001Y-61480077D01*
X201220245Y-61409529D01*
X201248000Y-61409529D01*
X201248000Y-61780472D01*
X201265812Y-61961318D01*
X201336202Y-62193363D01*
X201450509Y-62407216D01*
X201604341Y-62594660D01*
X201791785Y-62748491D01*
X202005638Y-62862798D01*
X202237683Y-62933188D01*
X202479000Y-62956956D01*
X202720318Y-62933188D01*
X202952363Y-62862798D01*
X203166216Y-62748491D01*
X203353660Y-62594660D01*
X203507491Y-62407215D01*
X203561888Y-62305446D01*
X203561887Y-67585030D01*
X203557908Y-67698738D01*
X203546899Y-67800131D01*
X203528919Y-67896085D01*
X203504175Y-67987080D01*
X203472705Y-68073788D01*
X203434413Y-68156822D01*
X203432001Y-68161073D01*
X203380671Y-68188509D01*
X203193227Y-68342340D01*
X203039396Y-68529785D01*
X202925089Y-68743638D01*
X202854699Y-68975683D01*
X202836887Y-69156529D01*
X202836887Y-69527472D01*
X202854699Y-69708318D01*
X202925089Y-69940363D01*
X203039396Y-70154216D01*
X203193228Y-70341660D01*
X203380672Y-70495491D01*
X203594525Y-70609798D01*
X203826570Y-70680188D01*
X204067887Y-70703956D01*
X204309205Y-70680188D01*
X204541250Y-70609798D01*
X204755103Y-70495491D01*
X204942547Y-70341660D01*
X205096378Y-70154215D01*
X205210685Y-69940362D01*
X205281075Y-69708317D01*
X205298887Y-69527471D01*
X205298887Y-69156529D01*
X211874774Y-69156529D01*
X211874774Y-69527472D01*
X211892586Y-69708318D01*
X211962976Y-69940363D01*
X212077283Y-70154216D01*
X212231115Y-70341660D01*
X212418559Y-70495491D01*
X212632412Y-70609798D01*
X212864457Y-70680188D01*
X213105774Y-70703956D01*
X213347092Y-70680188D01*
X213579137Y-70609798D01*
X213792990Y-70495491D01*
X213980434Y-70341660D01*
X214134265Y-70154215D01*
X214248572Y-69940362D01*
X214318962Y-69708317D01*
X214336774Y-69527471D01*
X214336774Y-69156529D01*
X214374774Y-69156529D01*
X214374774Y-69527472D01*
X214392586Y-69708318D01*
X214462976Y-69940363D01*
X214577283Y-70154216D01*
X214731115Y-70341660D01*
X214918559Y-70495491D01*
X215132412Y-70609798D01*
X215364457Y-70680188D01*
X215605774Y-70703956D01*
X215847092Y-70680188D01*
X216079137Y-70609798D01*
X216292990Y-70495491D01*
X216480434Y-70341660D01*
X216634265Y-70154215D01*
X216748572Y-69940362D01*
X216818962Y-69708317D01*
X216836774Y-69527471D01*
X216836774Y-69156529D01*
X216874774Y-69156529D01*
X216874774Y-69527472D01*
X216892586Y-69708318D01*
X216962976Y-69940363D01*
X217077283Y-70154216D01*
X217231115Y-70341660D01*
X217418559Y-70495491D01*
X217632412Y-70609798D01*
X217864457Y-70680188D01*
X218105774Y-70703956D01*
X218347092Y-70680188D01*
X218579137Y-70609798D01*
X218792990Y-70495491D01*
X218980434Y-70341660D01*
X219134265Y-70154215D01*
X219248572Y-69940362D01*
X219318962Y-69708317D01*
X219336774Y-69527471D01*
X219336774Y-69156528D01*
X219318962Y-68975682D01*
X219248572Y-68743637D01*
X219158162Y-68574492D01*
X223522000Y-68574492D01*
X223522000Y-69043508D01*
X223613500Y-69503512D01*
X223792985Y-69936827D01*
X224053556Y-70326799D01*
X224385201Y-70658444D01*
X224775173Y-70919015D01*
X225208488Y-71098500D01*
X225668492Y-71190000D01*
X226137508Y-71190000D01*
X226597512Y-71098500D01*
X227030827Y-70919015D01*
X227420799Y-70658444D01*
X227752444Y-70326799D01*
X228013015Y-69936827D01*
X228192500Y-69503512D01*
X228284000Y-69043508D01*
X228284000Y-68574492D01*
X228192500Y-68114488D01*
X228013015Y-67681173D01*
X227752444Y-67291201D01*
X227420799Y-66959556D01*
X227030827Y-66698985D01*
X226597512Y-66519500D01*
X226137508Y-66428000D01*
X225668492Y-66428000D01*
X225208488Y-66519500D01*
X224775173Y-66698985D01*
X224385201Y-66959556D01*
X224053556Y-67291201D01*
X223792985Y-67681173D01*
X223613500Y-68114488D01*
X223522000Y-68574492D01*
X219158162Y-68574492D01*
X219134265Y-68529784D01*
X218980434Y-68342340D01*
X218792989Y-68188509D01*
X218579136Y-68074202D01*
X218347091Y-68003812D01*
X218105774Y-67980044D01*
X217864456Y-68003812D01*
X217632411Y-68074202D01*
X217418558Y-68188509D01*
X217231114Y-68342340D01*
X217077283Y-68529785D01*
X216962976Y-68743638D01*
X216892586Y-68975683D01*
X216874774Y-69156529D01*
X216836774Y-69156529D01*
X216836774Y-69156528D01*
X216818962Y-68975682D01*
X216748572Y-68743637D01*
X216634265Y-68529784D01*
X216480434Y-68342340D01*
X216292989Y-68188509D01*
X216079136Y-68074202D01*
X215847091Y-68003812D01*
X215605774Y-67980044D01*
X215364456Y-68003812D01*
X215132411Y-68074202D01*
X214918558Y-68188509D01*
X214731114Y-68342340D01*
X214577283Y-68529785D01*
X214462976Y-68743638D01*
X214392586Y-68975683D01*
X214374774Y-69156529D01*
X214336774Y-69156529D01*
X214336774Y-69156528D01*
X214318962Y-68975682D01*
X214248572Y-68743637D01*
X214134265Y-68529784D01*
X213980434Y-68342340D01*
X213792989Y-68188509D01*
X213741659Y-68161073D01*
X213739249Y-68156825D01*
X213700956Y-68073788D01*
X213669489Y-67987087D01*
X213644737Y-67896069D01*
X213626763Y-67800140D01*
X213615753Y-67698738D01*
X213612071Y-67593520D01*
X216448220Y-64757372D01*
X216467527Y-64741527D01*
X216530759Y-64664479D01*
X216577745Y-64576575D01*
X216606678Y-64481193D01*
X216614000Y-64406854D01*
X216614000Y-64406853D01*
X216616448Y-64382000D01*
X216614000Y-64357146D01*
X216614000Y-63351963D01*
X216617979Y-63238261D01*
X216628989Y-63136859D01*
X216646963Y-63040930D01*
X216671715Y-62949912D01*
X216703184Y-62863206D01*
X216741474Y-62780177D01*
X216743885Y-62775928D01*
X216795216Y-62748491D01*
X216982660Y-62594660D01*
X217136491Y-62407215D01*
X217250798Y-62193362D01*
X217321188Y-61961317D01*
X217339000Y-61780471D01*
X217339000Y-61409529D01*
X217377000Y-61409529D01*
X217377000Y-61780472D01*
X217394812Y-61961318D01*
X217465202Y-62193363D01*
X217579509Y-62407216D01*
X217733341Y-62594660D01*
X217920785Y-62748491D01*
X218134638Y-62862798D01*
X218366683Y-62933188D01*
X218608000Y-62956956D01*
X218849318Y-62933188D01*
X219081363Y-62862798D01*
X219295216Y-62748491D01*
X219482660Y-62594660D01*
X219636491Y-62407215D01*
X219750798Y-62193362D01*
X219821188Y-61961317D01*
X219839000Y-61780471D01*
X219839000Y-61409528D01*
X219821188Y-61228682D01*
X219766683Y-61049000D01*
X223300157Y-61049000D01*
X223300157Y-62649000D01*
X223307513Y-62723689D01*
X223329299Y-62795508D01*
X223364678Y-62861696D01*
X223412289Y-62919711D01*
X223470304Y-62967322D01*
X223536492Y-63002701D01*
X223608311Y-63024487D01*
X223683000Y-63031843D01*
X225283000Y-63031843D01*
X225357689Y-63024487D01*
X225429508Y-63002701D01*
X225495696Y-62967322D01*
X225553711Y-62919711D01*
X225601322Y-62861696D01*
X225636701Y-62795508D01*
X225658487Y-62723689D01*
X225665843Y-62649000D01*
X225665843Y-61049000D01*
X225658487Y-60974311D01*
X225636701Y-60902492D01*
X225601322Y-60836304D01*
X225553711Y-60778289D01*
X225495696Y-60730678D01*
X225429508Y-60695299D01*
X225357689Y-60673513D01*
X225283000Y-60666157D01*
X223683000Y-60666157D01*
X223608311Y-60673513D01*
X223536492Y-60695299D01*
X223470304Y-60730678D01*
X223412289Y-60778289D01*
X223364678Y-60836304D01*
X223329299Y-60902492D01*
X223307513Y-60974311D01*
X223300157Y-61049000D01*
X219766683Y-61049000D01*
X219750798Y-60996637D01*
X219636491Y-60782784D01*
X219482660Y-60595340D01*
X219295215Y-60441509D01*
X219119678Y-60347682D01*
X226142000Y-60347682D01*
X226142000Y-60580318D01*
X226187386Y-60808485D01*
X226276412Y-61023413D01*
X226405658Y-61216843D01*
X226570157Y-61381342D01*
X226763587Y-61510588D01*
X226978515Y-61599614D01*
X227206682Y-61645000D01*
X227439318Y-61645000D01*
X227667485Y-61599614D01*
X227882413Y-61510588D01*
X228075843Y-61381342D01*
X228240342Y-61216843D01*
X228369588Y-61023413D01*
X228458614Y-60808485D01*
X228504000Y-60580318D01*
X228504000Y-60347682D01*
X228458614Y-60119515D01*
X228369588Y-59904587D01*
X228240342Y-59711157D01*
X228075843Y-59546658D01*
X227882413Y-59417412D01*
X227667485Y-59328386D01*
X227439318Y-59283000D01*
X227206682Y-59283000D01*
X226978515Y-59328386D01*
X226763587Y-59417412D01*
X226570157Y-59546658D01*
X226405658Y-59711157D01*
X226276412Y-59904587D01*
X226187386Y-60119515D01*
X226142000Y-60347682D01*
X219119678Y-60347682D01*
X219081362Y-60327202D01*
X218849317Y-60256812D01*
X218608000Y-60233044D01*
X218366682Y-60256812D01*
X218134637Y-60327202D01*
X217920784Y-60441509D01*
X217733340Y-60595340D01*
X217579509Y-60782785D01*
X217465202Y-60996638D01*
X217394812Y-61228683D01*
X217377000Y-61409529D01*
X217339000Y-61409529D01*
X217339000Y-61409528D01*
X217321188Y-61228682D01*
X217250798Y-60996637D01*
X217136491Y-60782784D01*
X216982660Y-60595340D01*
X216795215Y-60441509D01*
X216581362Y-60327202D01*
X216349317Y-60256812D01*
X216108000Y-60233044D01*
X215866682Y-60256812D01*
X215634637Y-60327202D01*
X215420784Y-60441509D01*
X215233340Y-60595340D01*
X215079509Y-60782785D01*
X214965202Y-60996638D01*
X214894812Y-61228683D01*
X214877000Y-61409529D01*
X214877000Y-61780472D01*
X214894812Y-61961318D01*
X214965202Y-62193363D01*
X215079509Y-62407216D01*
X215233341Y-62594660D01*
X215420785Y-62748491D01*
X215472114Y-62775927D01*
X215474526Y-62780177D01*
X215512816Y-62863206D01*
X215544285Y-62949912D01*
X215569037Y-63040930D01*
X215587011Y-63136859D01*
X215598021Y-63238261D01*
X215602000Y-63351974D01*
X215602000Y-64172408D01*
X212765555Y-67008854D01*
X212746248Y-67024699D01*
X212683016Y-67101747D01*
X212662375Y-67140363D01*
X212636029Y-67189652D01*
X212607096Y-67285034D01*
X212597327Y-67384226D01*
X212599775Y-67409082D01*
X212599775Y-67585012D01*
X212595795Y-67698738D01*
X212584786Y-67800131D01*
X212566806Y-67896085D01*
X212542062Y-67987080D01*
X212510592Y-68073788D01*
X212472300Y-68156822D01*
X212469888Y-68161073D01*
X212418558Y-68188509D01*
X212231114Y-68342340D01*
X212077283Y-68529785D01*
X211962976Y-68743638D01*
X211892586Y-68975683D01*
X211874774Y-69156529D01*
X205298887Y-69156529D01*
X205298887Y-69156528D01*
X205281075Y-68975682D01*
X205210685Y-68743637D01*
X205096378Y-68529784D01*
X204942547Y-68342340D01*
X204755102Y-68188509D01*
X204703772Y-68161073D01*
X204701362Y-68156825D01*
X204663069Y-68073788D01*
X204631602Y-67987087D01*
X204606850Y-67896069D01*
X204588876Y-67800140D01*
X204577866Y-67698738D01*
X204573887Y-67585037D01*
X204573887Y-62108741D01*
X204574649Y-62101000D01*
X206851037Y-62101000D01*
X206964738Y-62104979D01*
X207066140Y-62115989D01*
X207162069Y-62133963D01*
X207253087Y-62158715D01*
X207339788Y-62190182D01*
X207375157Y-62206493D01*
X207375157Y-62320000D01*
X207387317Y-62443462D01*
X207423329Y-62562179D01*
X207481810Y-62671589D01*
X207560512Y-62767488D01*
X207656411Y-62846190D01*
X207765821Y-62904671D01*
X207884538Y-62940683D01*
X208008000Y-62952843D01*
X209208000Y-62952843D01*
X209331462Y-62940683D01*
X209450179Y-62904671D01*
X209559589Y-62846190D01*
X209655488Y-62767488D01*
X209734190Y-62671589D01*
X209792671Y-62562179D01*
X209828683Y-62443462D01*
X209840843Y-62320000D01*
X209840843Y-60870000D01*
X209828683Y-60746538D01*
X209792671Y-60627821D01*
X209734190Y-60518411D01*
X209655488Y-60422512D01*
X209559589Y-60343810D01*
X209450179Y-60285329D01*
X209331462Y-60249317D01*
X209208000Y-60237157D01*
X208008000Y-60237157D01*
X207884538Y-60249317D01*
X207765821Y-60285329D01*
X207656411Y-60343810D01*
X207560512Y-60422512D01*
X207481810Y-60518411D01*
X207423329Y-60627821D01*
X207387317Y-60746538D01*
X207375157Y-60870000D01*
X207375157Y-60983507D01*
X207339788Y-60999818D01*
X207253087Y-61031285D01*
X207162069Y-61056037D01*
X207066140Y-61074011D01*
X206964738Y-61085021D01*
X206851037Y-61089000D01*
X204235963Y-61089000D01*
X204122261Y-61085021D01*
X204020859Y-61074011D01*
X203924930Y-61056037D01*
X203833912Y-61031285D01*
X203747206Y-60999816D01*
X203664177Y-60961526D01*
X203584209Y-60916147D01*
X203575651Y-60910303D01*
X203507491Y-60782784D01*
X203353660Y-60595340D01*
X203166215Y-60441509D01*
X202952362Y-60327202D01*
X202720317Y-60256812D01*
X202479000Y-60233044D01*
X202237682Y-60256812D01*
X202005637Y-60327202D01*
X201791784Y-60441509D01*
X201604340Y-60595340D01*
X201450509Y-60782785D01*
X201336202Y-60996638D01*
X201265812Y-61228683D01*
X201248000Y-61409529D01*
X201220245Y-61409529D01*
X201223439Y-61378428D01*
X201241561Y-61277348D01*
X201267523Y-61176365D01*
X201301561Y-61075102D01*
X201343963Y-60973279D01*
X201395060Y-60870679D01*
X201455161Y-60767227D01*
X201524587Y-60662866D01*
X201593510Y-60571082D01*
X202349592Y-59815000D01*
X211237409Y-59815000D01*
X211993492Y-60571083D01*
X212062408Y-60662859D01*
X212131838Y-60767227D01*
X212191940Y-60870681D01*
X212243038Y-60973280D01*
X212285439Y-61075100D01*
X212319476Y-61176364D01*
X212345438Y-61277348D01*
X212363560Y-61378426D01*
X212373999Y-61480081D01*
X212377000Y-61590104D01*
X212377000Y-61780472D01*
X212394812Y-61961318D01*
X212465202Y-62193363D01*
X212579509Y-62407216D01*
X212733341Y-62594660D01*
X212920785Y-62748491D01*
X213134638Y-62862798D01*
X213366683Y-62933188D01*
X213608000Y-62956956D01*
X213849318Y-62933188D01*
X214081363Y-62862798D01*
X214295216Y-62748491D01*
X214482660Y-62594660D01*
X214636491Y-62407215D01*
X214750798Y-62193362D01*
X214821188Y-61961317D01*
X214839000Y-61780471D01*
X214839000Y-61409528D01*
X214821188Y-61228682D01*
X214750798Y-60996637D01*
X214636491Y-60782784D01*
X214482660Y-60595340D01*
X214295215Y-60441509D01*
X214081362Y-60327202D01*
X213849317Y-60256812D01*
X213608000Y-60233044D01*
X213366682Y-60256812D01*
X213238458Y-60295708D01*
X213162911Y-60260511D01*
X213081654Y-60212584D01*
X213026025Y-60172434D01*
X211822376Y-58968785D01*
X211806527Y-58949473D01*
X211729479Y-58886241D01*
X211641575Y-58839255D01*
X211546193Y-58810322D01*
X211471854Y-58803000D01*
X211471846Y-58803000D01*
X211447000Y-58800553D01*
X211422154Y-58803000D01*
X202164854Y-58803000D01*
X202140000Y-58800552D01*
X202115146Y-58803000D01*
X202040807Y-58810322D01*
X201945425Y-58839255D01*
X201857521Y-58886241D01*
X201780473Y-58949473D01*
X201764628Y-58968780D01*
X200560978Y-60172431D01*
X200505345Y-60212584D01*
X200424088Y-60260511D01*
X200348541Y-60295708D01*
X200220317Y-60256812D01*
X199979000Y-60233044D01*
X199737682Y-60256812D01*
X199505637Y-60327202D01*
X199291784Y-60441509D01*
X199104340Y-60595340D01*
X198950509Y-60782785D01*
X198836202Y-60996638D01*
X198765812Y-61228683D01*
X198748000Y-61409529D01*
X198710000Y-61409529D01*
X198710000Y-61409528D01*
X198692188Y-61228682D01*
X198621798Y-60996637D01*
X198507491Y-60782784D01*
X198353660Y-60595340D01*
X198166215Y-60441509D01*
X197952362Y-60327202D01*
X197720317Y-60256812D01*
X197479000Y-60233044D01*
X197237682Y-60256812D01*
X197005637Y-60327202D01*
X196791784Y-60441509D01*
X196604340Y-60595340D01*
X196450509Y-60782785D01*
X196336202Y-60996638D01*
X196265812Y-61228683D01*
X196248000Y-61409529D01*
X196210000Y-61409529D01*
X196210000Y-61409528D01*
X196192188Y-61228682D01*
X196121798Y-60996637D01*
X196007491Y-60782784D01*
X195853660Y-60595340D01*
X195666215Y-60441509D01*
X195452362Y-60327202D01*
X195220317Y-60256812D01*
X194979000Y-60233044D01*
X194737682Y-60256812D01*
X194505637Y-60327202D01*
X194291784Y-60441509D01*
X194104340Y-60595340D01*
X193950509Y-60782785D01*
X193836202Y-60996638D01*
X193765812Y-61228683D01*
X193748000Y-61409529D01*
X193748000Y-61780472D01*
X193765812Y-61961318D01*
X193836202Y-62193363D01*
X193950509Y-62407216D01*
X194104341Y-62594660D01*
X194291785Y-62748491D01*
X194343114Y-62775927D01*
X194345526Y-62780177D01*
X194383816Y-62863206D01*
X194415285Y-62949912D01*
X194440037Y-63040930D01*
X194458011Y-63136859D01*
X194469021Y-63238261D01*
X194473001Y-63351984D01*
X194473000Y-68053499D01*
X194309204Y-68003812D01*
X194067887Y-67980044D01*
X193826569Y-68003812D01*
X193594524Y-68074202D01*
X193380671Y-68188509D01*
X193193227Y-68342340D01*
X193039396Y-68529785D01*
X192925089Y-68743638D01*
X192854699Y-68975683D01*
X192836887Y-69156529D01*
X188449392Y-69156529D01*
X190404362Y-67201560D01*
X190437975Y-67173975D01*
X190497250Y-67101747D01*
X190548068Y-67039826D01*
X190629875Y-66886775D01*
X190646640Y-66831509D01*
X190680252Y-66720706D01*
X190693000Y-66591273D01*
X190693000Y-66591270D01*
X190697262Y-66548000D01*
X190693000Y-66504730D01*
X190693000Y-59165921D01*
X202730922Y-47128000D01*
X207508273Y-47128000D01*
X207637706Y-47115252D01*
X207803775Y-47064875D01*
X207956825Y-46983068D01*
X208090975Y-46872975D01*
X208201068Y-46738825D01*
X208282875Y-46585775D01*
X208333252Y-46419706D01*
X208350262Y-46247000D01*
X208333252Y-46074294D01*
X208282875Y-45908225D01*
X208201068Y-45755175D01*
X208090975Y-45621025D01*
X207956825Y-45510932D01*
X207803775Y-45429125D01*
X207637706Y-45378748D01*
X207508273Y-45366000D01*
X202409269Y-45366000D01*
X202365999Y-45361738D01*
X202322729Y-45366000D01*
X202322727Y-45366000D01*
X202193294Y-45378748D01*
X202027225Y-45429125D01*
X201874174Y-45510932D01*
X201820615Y-45554887D01*
X201740025Y-45621025D01*
X201712439Y-45654639D01*
X189219640Y-58147439D01*
X189186026Y-58175025D01*
X189158441Y-58208638D01*
X189075932Y-58309175D01*
X188994125Y-58462226D01*
X188978665Y-58513192D01*
X188948892Y-58611342D01*
X188943749Y-58628295D01*
X188926738Y-58801000D01*
X188931001Y-58844280D01*
X188931000Y-66183078D01*
X185637079Y-69477000D01*
X183641608Y-69477000D01*
X182898933Y-68734326D01*
X182899311Y-68732175D01*
X182901405Y-68723509D01*
X183039854Y-68554808D01*
X183155424Y-68338592D01*
X183226592Y-68103984D01*
X183250622Y-67860000D01*
X183226592Y-67616016D01*
X183155424Y-67381408D01*
X183039854Y-67165192D01*
X182884323Y-66975677D01*
X182694808Y-66820146D01*
X182478592Y-66704576D01*
X182243984Y-66633408D01*
X182061143Y-66615400D01*
X181938857Y-66615400D01*
X181756016Y-66633408D01*
X181521408Y-66704576D01*
X181305192Y-66820146D01*
X181115677Y-66975677D01*
X180960146Y-67165192D01*
X180844576Y-67381408D01*
X180773408Y-67616016D01*
X180749378Y-67860000D01*
X176236956Y-67860000D01*
X176213188Y-67618682D01*
X176142798Y-67386637D01*
X176028491Y-67172784D01*
X175874660Y-66985340D01*
X175687216Y-66831509D01*
X175473363Y-66717202D01*
X175241318Y-66646812D01*
X175060472Y-66629000D01*
X174939528Y-66629000D01*
X174758682Y-66646812D01*
X174526637Y-66717202D01*
X174312784Y-66831509D01*
X174125340Y-66985340D01*
X173971509Y-67172784D01*
X173857202Y-67386637D01*
X173786812Y-67618682D01*
X173763044Y-67860000D01*
X170406000Y-67860000D01*
X170406000Y-65320000D01*
X173763044Y-65320000D01*
X173786812Y-65561318D01*
X173857202Y-65793363D01*
X173971509Y-66007216D01*
X174125340Y-66194660D01*
X174312784Y-66348491D01*
X174526637Y-66462798D01*
X174758682Y-66533188D01*
X174939528Y-66551000D01*
X175060472Y-66551000D01*
X175241318Y-66533188D01*
X175473363Y-66462798D01*
X175687216Y-66348491D01*
X175874660Y-66194660D01*
X176028491Y-66007216D01*
X176142798Y-65793363D01*
X176213188Y-65561318D01*
X176236956Y-65320000D01*
X180749378Y-65320000D01*
X180773408Y-65563984D01*
X180844576Y-65798592D01*
X180960146Y-66014808D01*
X181115677Y-66204323D01*
X181305192Y-66359854D01*
X181521408Y-66475424D01*
X181756016Y-66546592D01*
X181938857Y-66564600D01*
X182061143Y-66564600D01*
X182243984Y-66546592D01*
X182478592Y-66475424D01*
X182694808Y-66359854D01*
X182884323Y-66204323D01*
X183039854Y-66014808D01*
X183155424Y-65798592D01*
X183226592Y-65563984D01*
X183250622Y-65320000D01*
X183244420Y-65257029D01*
X183244238Y-65185126D01*
X183245845Y-65075390D01*
X183249277Y-64978864D01*
X183254372Y-64896144D01*
X183260815Y-64828285D01*
X183267968Y-64776855D01*
X183270283Y-64765308D01*
X183398192Y-64637399D01*
X184922885Y-64637399D01*
X184947731Y-64639846D01*
X184972577Y-64637399D01*
X184972585Y-64637399D01*
X185046924Y-64630077D01*
X185142306Y-64601144D01*
X185230210Y-64554158D01*
X185307258Y-64490926D01*
X185323107Y-64471614D01*
X188120220Y-61674502D01*
X188139527Y-61658657D01*
X188202759Y-61581609D01*
X188249745Y-61493705D01*
X188262035Y-61453188D01*
X188278678Y-61398324D01*
X188280207Y-61382798D01*
X188286000Y-61323984D01*
X188286000Y-61323977D01*
X188288447Y-61299131D01*
X188286000Y-61274285D01*
X188286000Y-53473811D01*
X197741440Y-44018372D01*
X197760747Y-44002527D01*
X197823979Y-43925479D01*
X197870965Y-43837575D01*
X197899898Y-43742193D01*
X197903666Y-43703935D01*
X197917963Y-43681036D01*
X197939520Y-43651089D01*
X198088436Y-43571491D01*
X198275880Y-43417660D01*
X198429711Y-43230215D01*
X198544018Y-43016362D01*
X198614408Y-42784317D01*
X198632220Y-42603471D01*
X198632220Y-42232528D01*
X198614408Y-42051682D01*
X198544018Y-41819637D01*
X198476330Y-41693000D01*
X208539597Y-41693000D01*
X208539597Y-43143000D01*
X208551757Y-43266462D01*
X208587769Y-43385179D01*
X208646250Y-43494589D01*
X208724952Y-43590488D01*
X208820851Y-43669190D01*
X208930261Y-43727671D01*
X209048978Y-43763683D01*
X209172440Y-43775843D01*
X209209522Y-43775843D01*
X209233477Y-43863930D01*
X209251451Y-43959859D01*
X209262461Y-44061261D01*
X209266440Y-44174974D01*
X209266440Y-45335594D01*
X209263993Y-45360440D01*
X209266440Y-45385286D01*
X209266440Y-45385293D01*
X209273762Y-45459632D01*
X209302695Y-45555014D01*
X209349681Y-45642919D01*
X209412913Y-45719967D01*
X209432225Y-45735816D01*
X220424628Y-56728220D01*
X220440473Y-56747527D01*
X220517521Y-56810759D01*
X220605425Y-56857745D01*
X220700807Y-56886678D01*
X220800000Y-56896448D01*
X220824854Y-56894000D01*
X223151022Y-56894000D01*
X223218248Y-56905096D01*
X223300054Y-56926472D01*
X223375861Y-56954325D01*
X223446725Y-56988695D01*
X223513741Y-57029982D01*
X223577775Y-57078840D01*
X223646454Y-57142639D01*
X223730157Y-57226342D01*
X223923587Y-57355588D01*
X224138515Y-57444614D01*
X224366682Y-57490000D01*
X224599318Y-57490000D01*
X224827485Y-57444614D01*
X225042413Y-57355588D01*
X225235843Y-57226342D01*
X225374001Y-57088184D01*
X225374001Y-57472407D01*
X224972124Y-57874285D01*
X224967937Y-57875189D01*
X224923302Y-57881930D01*
X224863363Y-57888151D01*
X224789679Y-57893153D01*
X224703271Y-57896581D01*
X224604800Y-57898248D01*
X224600526Y-57898240D01*
X224599318Y-57898000D01*
X224366682Y-57898000D01*
X224138515Y-57943386D01*
X223923587Y-58032412D01*
X223730157Y-58161658D01*
X223565658Y-58326157D01*
X223436412Y-58519587D01*
X223347386Y-58734515D01*
X223302000Y-58962682D01*
X223302000Y-59195318D01*
X223347386Y-59423485D01*
X223436412Y-59638413D01*
X223565658Y-59831843D01*
X223730157Y-59996342D01*
X223923587Y-60125588D01*
X224138515Y-60214614D01*
X224366682Y-60260000D01*
X224599318Y-60260000D01*
X224827485Y-60214614D01*
X225042413Y-60125588D01*
X225235843Y-59996342D01*
X225400342Y-59831843D01*
X225529588Y-59638413D01*
X225618614Y-59423485D01*
X225664000Y-59195318D01*
X225664000Y-58962682D01*
X225663760Y-58961474D01*
X225663752Y-58957201D01*
X225665418Y-58858762D01*
X225668849Y-58772288D01*
X225673848Y-58698639D01*
X225680070Y-58638693D01*
X225686810Y-58594064D01*
X225687714Y-58589877D01*
X226202535Y-58075057D01*
X226276412Y-58253413D01*
X226405658Y-58446843D01*
X226570157Y-58611342D01*
X226763587Y-58740588D01*
X226978515Y-58829614D01*
X227206682Y-58875000D01*
X227439318Y-58875000D01*
X227667485Y-58829614D01*
X227882413Y-58740588D01*
X228075843Y-58611342D01*
X228240342Y-58446843D01*
X228369588Y-58253413D01*
X228458614Y-58038485D01*
X228504000Y-57810318D01*
X228504000Y-57577682D01*
X228458614Y-57349515D01*
X228369588Y-57134587D01*
X228240342Y-56941157D01*
X228075843Y-56776658D01*
X227882413Y-56647412D01*
X227667485Y-56558386D01*
X227439318Y-56513000D01*
X227206682Y-56513000D01*
X226978515Y-56558386D01*
X226763587Y-56647412D01*
X226570157Y-56776658D01*
X226405658Y-56941157D01*
X226386000Y-56970577D01*
X226386000Y-55650854D01*
X226386295Y-55647864D01*
X226405658Y-55676843D01*
X226570157Y-55841342D01*
X226763587Y-55970588D01*
X226978515Y-56059614D01*
X227206682Y-56105000D01*
X227439318Y-56105000D01*
X227667485Y-56059614D01*
X227882413Y-55970588D01*
X228075843Y-55841342D01*
X228240342Y-55676843D01*
X228369588Y-55483413D01*
X228458614Y-55268485D01*
X228504000Y-55040318D01*
X228504000Y-54807682D01*
X228458614Y-54579515D01*
X228369588Y-54364587D01*
X228240342Y-54171157D01*
X228075843Y-54006658D01*
X227882413Y-53877412D01*
X227667485Y-53788386D01*
X227439318Y-53743000D01*
X227206682Y-53743000D01*
X226978515Y-53788386D01*
X226763587Y-53877412D01*
X226570157Y-54006658D01*
X226405658Y-54171157D01*
X226276412Y-54364587D01*
X226187386Y-54579515D01*
X226142000Y-54807682D01*
X226142000Y-55040318D01*
X226174799Y-55205207D01*
X225620376Y-54650785D01*
X225604527Y-54631473D01*
X225527479Y-54568241D01*
X225439575Y-54521255D01*
X225344193Y-54492322D01*
X225269854Y-54485000D01*
X225269846Y-54485000D01*
X225245000Y-54482553D01*
X225220154Y-54485000D01*
X225192953Y-54485000D01*
X225235843Y-54456342D01*
X225400342Y-54291843D01*
X225529588Y-54098413D01*
X225618614Y-53883485D01*
X225664000Y-53655318D01*
X225664000Y-53422682D01*
X225618614Y-53194515D01*
X225529588Y-52979587D01*
X225400342Y-52786157D01*
X225235843Y-52621658D01*
X225042413Y-52492412D01*
X224827485Y-52403386D01*
X224599318Y-52358000D01*
X224366682Y-52358000D01*
X224138515Y-52403386D01*
X223923587Y-52492412D01*
X223730157Y-52621658D01*
X223565658Y-52786157D01*
X223436412Y-52979587D01*
X223347386Y-53194515D01*
X223302000Y-53422682D01*
X223302000Y-53655318D01*
X223347386Y-53883485D01*
X223436412Y-54098413D01*
X223565658Y-54291843D01*
X223730157Y-54456342D01*
X223773047Y-54485000D01*
X221136592Y-54485000D01*
X218689274Y-52037682D01*
X226142000Y-52037682D01*
X226142000Y-52270318D01*
X226187386Y-52498485D01*
X226276412Y-52713413D01*
X226405658Y-52906843D01*
X226570157Y-53071342D01*
X226763587Y-53200588D01*
X226978515Y-53289614D01*
X227206682Y-53335000D01*
X227439318Y-53335000D01*
X227667485Y-53289614D01*
X227882413Y-53200588D01*
X228075843Y-53071342D01*
X228240342Y-52906843D01*
X228369588Y-52713413D01*
X228458614Y-52498485D01*
X228504000Y-52270318D01*
X228504000Y-52037682D01*
X228458614Y-51809515D01*
X228369588Y-51594587D01*
X228240342Y-51401157D01*
X228075843Y-51236658D01*
X227882413Y-51107412D01*
X227667485Y-51018386D01*
X227439318Y-50973000D01*
X227206682Y-50973000D01*
X226978515Y-51018386D01*
X226763587Y-51107412D01*
X226570157Y-51236658D01*
X226405658Y-51401157D01*
X226276412Y-51594587D01*
X226187386Y-51809515D01*
X226142000Y-52037682D01*
X218689274Y-52037682D01*
X212778440Y-46126849D01*
X212778440Y-44174963D01*
X212782419Y-44061261D01*
X212793429Y-43959864D01*
X212811404Y-43863923D01*
X212836153Y-43772915D01*
X212867624Y-43686206D01*
X212905914Y-43603177D01*
X212908325Y-43598928D01*
X212954041Y-43574492D01*
X223522000Y-43574492D01*
X223522000Y-44043508D01*
X223613500Y-44503512D01*
X223792985Y-44936827D01*
X224053556Y-45326799D01*
X224385201Y-45658444D01*
X224775173Y-45919015D01*
X225208488Y-46098500D01*
X225668492Y-46190000D01*
X226137508Y-46190000D01*
X226597512Y-46098500D01*
X227030827Y-45919015D01*
X227420799Y-45658444D01*
X227752444Y-45326799D01*
X228013015Y-44936827D01*
X228192500Y-44503512D01*
X228284000Y-44043508D01*
X228284000Y-43574492D01*
X228192500Y-43114488D01*
X228013015Y-42681173D01*
X227752444Y-42291201D01*
X227420799Y-41959556D01*
X227030827Y-41698985D01*
X226597512Y-41519500D01*
X226137508Y-41428000D01*
X225668492Y-41428000D01*
X225208488Y-41519500D01*
X224775173Y-41698985D01*
X224385201Y-41959556D01*
X224053556Y-42291201D01*
X223792985Y-42681173D01*
X223613500Y-43114488D01*
X223522000Y-43574492D01*
X212954041Y-43574492D01*
X212959656Y-43571491D01*
X213147100Y-43417660D01*
X213300931Y-43230215D01*
X213415238Y-43016362D01*
X213485628Y-42784317D01*
X213503440Y-42603471D01*
X213503440Y-42232528D01*
X213485628Y-42051682D01*
X213415238Y-41819637D01*
X213300931Y-41605784D01*
X213147100Y-41418340D01*
X212959655Y-41264509D01*
X212745802Y-41150202D01*
X212513757Y-41079812D01*
X212272440Y-41056044D01*
X212031122Y-41079812D01*
X211799077Y-41150202D01*
X211585224Y-41264509D01*
X211397780Y-41418340D01*
X211243949Y-41605785D01*
X211129642Y-41819638D01*
X211059252Y-42051683D01*
X211041440Y-42232529D01*
X211041440Y-42603472D01*
X211059252Y-42784318D01*
X211129642Y-43016363D01*
X211243949Y-43230216D01*
X211397781Y-43417660D01*
X211585225Y-43571491D01*
X211636553Y-43598927D01*
X211638967Y-43603180D01*
X211677256Y-43686206D01*
X211708725Y-43772912D01*
X211733477Y-43863930D01*
X211751451Y-43959859D01*
X211762461Y-44061261D01*
X211766440Y-44174976D01*
X211766441Y-46311584D01*
X211763993Y-46336440D01*
X211773762Y-46435632D01*
X211802695Y-46531014D01*
X211802696Y-46531015D01*
X211849682Y-46618919D01*
X211912914Y-46695967D01*
X211932221Y-46711812D01*
X220551628Y-55331220D01*
X220567473Y-55350527D01*
X220644521Y-55413759D01*
X220732425Y-55460745D01*
X220827806Y-55489678D01*
X220837694Y-55490652D01*
X220902146Y-55497000D01*
X220902153Y-55497000D01*
X220926999Y-55499447D01*
X220951845Y-55497000D01*
X223623688Y-55497000D01*
X223572016Y-55545926D01*
X223500442Y-55604155D01*
X223424368Y-55657061D01*
X223343393Y-55704849D01*
X223257052Y-55747645D01*
X223164918Y-55785456D01*
X223066653Y-55818184D01*
X222961896Y-55845693D01*
X222850451Y-55867775D01*
X222748079Y-55882000D01*
X221009592Y-55882000D01*
X210278440Y-45150849D01*
X210278440Y-44174963D01*
X210282419Y-44061261D01*
X210293429Y-43959864D01*
X210311404Y-43863923D01*
X210335357Y-43775843D01*
X210372440Y-43775843D01*
X210495902Y-43763683D01*
X210614619Y-43727671D01*
X210724029Y-43669190D01*
X210819928Y-43590488D01*
X210898630Y-43494589D01*
X210957111Y-43385179D01*
X210993123Y-43266462D01*
X211005283Y-43143000D01*
X211005283Y-41693000D01*
X210993123Y-41569538D01*
X210957111Y-41450821D01*
X210898630Y-41341411D01*
X210819928Y-41245512D01*
X210724029Y-41166810D01*
X210614619Y-41108329D01*
X210495902Y-41072317D01*
X210372440Y-41060157D01*
X209172440Y-41060157D01*
X209048978Y-41072317D01*
X208930261Y-41108329D01*
X208820851Y-41166810D01*
X208724952Y-41245512D01*
X208646250Y-41341411D01*
X208587769Y-41450821D01*
X208551757Y-41569538D01*
X208539597Y-41693000D01*
X198476330Y-41693000D01*
X198429711Y-41605784D01*
X198275880Y-41418340D01*
X198088435Y-41264509D01*
X197874582Y-41150202D01*
X197642537Y-41079812D01*
X197401220Y-41056044D01*
X197159902Y-41079812D01*
X196927857Y-41150202D01*
X196714004Y-41264509D01*
X196526560Y-41418340D01*
X196372729Y-41605785D01*
X196258422Y-41819638D01*
X196188032Y-42051683D01*
X196170220Y-42232529D01*
X196170220Y-42603472D01*
X196188032Y-42784318D01*
X196258422Y-43016363D01*
X196372729Y-43230216D01*
X196526561Y-43417660D01*
X196714005Y-43571491D01*
X196742113Y-43586515D01*
X187439785Y-52888844D01*
X187420473Y-52904693D01*
X187357241Y-52981741D01*
X187310255Y-53069646D01*
X187281322Y-53165028D01*
X187274000Y-53239367D01*
X187274000Y-53239374D01*
X187271553Y-53264220D01*
X187274000Y-53289066D01*
X187274001Y-61089537D01*
X184738140Y-63625399D01*
X183213446Y-63625399D01*
X183188600Y-63622952D01*
X183163754Y-63625399D01*
X183163747Y-63625399D01*
X183099295Y-63631747D01*
X183089407Y-63632721D01*
X183017083Y-63654660D01*
X182994026Y-63661654D01*
X182906122Y-63708640D01*
X182829074Y-63771872D01*
X182813225Y-63791184D01*
X182554694Y-64049715D01*
X182543146Y-64052030D01*
X182491711Y-64059184D01*
X182423855Y-64065627D01*
X182341135Y-64070722D01*
X182244609Y-64074154D01*
X182134871Y-64075761D01*
X182062967Y-64075580D01*
X182061143Y-64075400D01*
X181938857Y-64075400D01*
X181756016Y-64093408D01*
X181521408Y-64164576D01*
X181305192Y-64280146D01*
X181115677Y-64435677D01*
X180960146Y-64625192D01*
X180844576Y-64841408D01*
X180773408Y-65076016D01*
X180749378Y-65320000D01*
X176236956Y-65320000D01*
X176213188Y-65078682D01*
X176142798Y-64846637D01*
X176028491Y-64632784D01*
X175874660Y-64445340D01*
X175687216Y-64291509D01*
X175473363Y-64177202D01*
X175241318Y-64106812D01*
X175060472Y-64089000D01*
X174939528Y-64089000D01*
X174758682Y-64106812D01*
X174526637Y-64177202D01*
X174312784Y-64291509D01*
X174125340Y-64445340D01*
X173971509Y-64632784D01*
X173857202Y-64846637D01*
X173786812Y-65078682D01*
X173763044Y-65320000D01*
X170406000Y-65320000D01*
X170406000Y-62780000D01*
X173763044Y-62780000D01*
X173786812Y-63021318D01*
X173857202Y-63253363D01*
X173971509Y-63467216D01*
X174125340Y-63654660D01*
X174312784Y-63808491D01*
X174526637Y-63922798D01*
X174758682Y-63993188D01*
X174939528Y-64011000D01*
X175060472Y-64011000D01*
X175241318Y-63993188D01*
X175473363Y-63922798D01*
X175687216Y-63808491D01*
X175874660Y-63654660D01*
X176028491Y-63467216D01*
X176142798Y-63253363D01*
X176213188Y-63021318D01*
X176236956Y-62780000D01*
X180749378Y-62780000D01*
X180773408Y-63023984D01*
X180844576Y-63258592D01*
X180960146Y-63474808D01*
X181115677Y-63664323D01*
X181305192Y-63819854D01*
X181521408Y-63935424D01*
X181756016Y-64006592D01*
X181938857Y-64024600D01*
X182061143Y-64024600D01*
X182243984Y-64006592D01*
X182478592Y-63935424D01*
X182694808Y-63819854D01*
X182884323Y-63664323D01*
X183039854Y-63474808D01*
X183155424Y-63258592D01*
X183226592Y-63023984D01*
X183250622Y-62780000D01*
X183226592Y-62536016D01*
X183155424Y-62301408D01*
X183039854Y-62085192D01*
X182884323Y-61895677D01*
X182694808Y-61740146D01*
X182478592Y-61624576D01*
X182243984Y-61553408D01*
X182061143Y-61535400D01*
X181938857Y-61535400D01*
X181756016Y-61553408D01*
X181521408Y-61624576D01*
X181305192Y-61740146D01*
X181115677Y-61895677D01*
X180960146Y-62085192D01*
X180844576Y-62301408D01*
X180773408Y-62536016D01*
X180749378Y-62780000D01*
X176236956Y-62780000D01*
X176213188Y-62538682D01*
X176142798Y-62306637D01*
X176028491Y-62092784D01*
X175874660Y-61905340D01*
X175687216Y-61751509D01*
X175473363Y-61637202D01*
X175241318Y-61566812D01*
X175060472Y-61549000D01*
X174939528Y-61549000D01*
X174758682Y-61566812D01*
X174526637Y-61637202D01*
X174312784Y-61751509D01*
X174125340Y-61905340D01*
X173971509Y-62092784D01*
X173857202Y-62306637D01*
X173786812Y-62538682D01*
X173763044Y-62780000D01*
X170406000Y-62780000D01*
X170406000Y-60240000D01*
X173763044Y-60240000D01*
X173786812Y-60481318D01*
X173857202Y-60713363D01*
X173971509Y-60927216D01*
X174125340Y-61114660D01*
X174312784Y-61268491D01*
X174526637Y-61382798D01*
X174758682Y-61453188D01*
X174939528Y-61471000D01*
X175060472Y-61471000D01*
X175241318Y-61453188D01*
X175473363Y-61382798D01*
X175687216Y-61268491D01*
X175874660Y-61114660D01*
X176028491Y-60927216D01*
X176142798Y-60713363D01*
X176213188Y-60481318D01*
X176236956Y-60240000D01*
X180749378Y-60240000D01*
X180773408Y-60483984D01*
X180844576Y-60718592D01*
X180960146Y-60934808D01*
X181115677Y-61124323D01*
X181305192Y-61279854D01*
X181521408Y-61395424D01*
X181756016Y-61466592D01*
X181938857Y-61484600D01*
X182061143Y-61484600D01*
X182243984Y-61466592D01*
X182478592Y-61395424D01*
X182694808Y-61279854D01*
X182884323Y-61124323D01*
X183039854Y-60934808D01*
X183155424Y-60718592D01*
X183226592Y-60483984D01*
X183250622Y-60240000D01*
X183226592Y-59996016D01*
X183155424Y-59761408D01*
X183039854Y-59545192D01*
X182884323Y-59355677D01*
X182694808Y-59200146D01*
X182478592Y-59084576D01*
X182243984Y-59013408D01*
X182061143Y-58995400D01*
X181938857Y-58995400D01*
X181756016Y-59013408D01*
X181521408Y-59084576D01*
X181305192Y-59200146D01*
X181115677Y-59355677D01*
X180960146Y-59545192D01*
X180844576Y-59761408D01*
X180773408Y-59996016D01*
X180749378Y-60240000D01*
X176236956Y-60240000D01*
X176213188Y-59998682D01*
X176142798Y-59766637D01*
X176028491Y-59552784D01*
X175874660Y-59365340D01*
X175687216Y-59211509D01*
X175473363Y-59097202D01*
X175241318Y-59026812D01*
X175060472Y-59009000D01*
X174939528Y-59009000D01*
X174758682Y-59026812D01*
X174526637Y-59097202D01*
X174312784Y-59211509D01*
X174125340Y-59365340D01*
X173971509Y-59552784D01*
X173857202Y-59766637D01*
X173786812Y-59998682D01*
X173763044Y-60240000D01*
X170406000Y-60240000D01*
X170406000Y-57700000D01*
X173763044Y-57700000D01*
X173786812Y-57941318D01*
X173857202Y-58173363D01*
X173971509Y-58387216D01*
X174125340Y-58574660D01*
X174312784Y-58728491D01*
X174526637Y-58842798D01*
X174758682Y-58913188D01*
X174939528Y-58931000D01*
X175060472Y-58931000D01*
X175241318Y-58913188D01*
X175473363Y-58842798D01*
X175687216Y-58728491D01*
X175874660Y-58574660D01*
X176028491Y-58387216D01*
X176142798Y-58173363D01*
X176213188Y-57941318D01*
X176236956Y-57700000D01*
X180749378Y-57700000D01*
X180773408Y-57943984D01*
X180844576Y-58178592D01*
X180960146Y-58394808D01*
X181115677Y-58584323D01*
X181305192Y-58739854D01*
X181521408Y-58855424D01*
X181756016Y-58926592D01*
X181938857Y-58944600D01*
X182061143Y-58944600D01*
X182243984Y-58926592D01*
X182478592Y-58855424D01*
X182694808Y-58739854D01*
X182884323Y-58584323D01*
X183039854Y-58394808D01*
X183155424Y-58178592D01*
X183226592Y-57943984D01*
X183250622Y-57700000D01*
X183226592Y-57456016D01*
X183155424Y-57221408D01*
X183039854Y-57005192D01*
X182884323Y-56815677D01*
X182694808Y-56660146D01*
X182478592Y-56544576D01*
X182243984Y-56473408D01*
X182061143Y-56455400D01*
X181938857Y-56455400D01*
X181756016Y-56473408D01*
X181521408Y-56544576D01*
X181305192Y-56660146D01*
X181115677Y-56815677D01*
X180960146Y-57005192D01*
X180844576Y-57221408D01*
X180773408Y-57456016D01*
X180749378Y-57700000D01*
X176236956Y-57700000D01*
X176213188Y-57458682D01*
X176142798Y-57226637D01*
X176028491Y-57012784D01*
X175874660Y-56825340D01*
X175687216Y-56671509D01*
X175473363Y-56557202D01*
X175241318Y-56486812D01*
X175060472Y-56469000D01*
X174939528Y-56469000D01*
X174758682Y-56486812D01*
X174526637Y-56557202D01*
X174312784Y-56671509D01*
X174125340Y-56825340D01*
X173971509Y-57012784D01*
X173857202Y-57226637D01*
X173786812Y-57458682D01*
X173763044Y-57700000D01*
X170406000Y-57700000D01*
X170406000Y-55160000D01*
X173763044Y-55160000D01*
X173786812Y-55401318D01*
X173857202Y-55633363D01*
X173971509Y-55847216D01*
X174125340Y-56034660D01*
X174312784Y-56188491D01*
X174526637Y-56302798D01*
X174758682Y-56373188D01*
X174939528Y-56391000D01*
X175060472Y-56391000D01*
X175241318Y-56373188D01*
X175473363Y-56302798D01*
X175687216Y-56188491D01*
X175874660Y-56034660D01*
X176028491Y-55847216D01*
X176142798Y-55633363D01*
X176213188Y-55401318D01*
X176236956Y-55160000D01*
X180749378Y-55160000D01*
X180773408Y-55403984D01*
X180844576Y-55638592D01*
X180960146Y-55854808D01*
X181115677Y-56044323D01*
X181305192Y-56199854D01*
X181521408Y-56315424D01*
X181756016Y-56386592D01*
X181938857Y-56404600D01*
X182061143Y-56404600D01*
X182243984Y-56386592D01*
X182478592Y-56315424D01*
X182694808Y-56199854D01*
X182884323Y-56044323D01*
X183039854Y-55854808D01*
X183155424Y-55638592D01*
X183226592Y-55403984D01*
X183250622Y-55160000D01*
X183226592Y-54916016D01*
X183155424Y-54681408D01*
X183039854Y-54465192D01*
X182884323Y-54275677D01*
X182694808Y-54120146D01*
X182478592Y-54004576D01*
X182243984Y-53933408D01*
X182061143Y-53915400D01*
X181938857Y-53915400D01*
X181756016Y-53933408D01*
X181521408Y-54004576D01*
X181305192Y-54120146D01*
X181115677Y-54275677D01*
X180960146Y-54465192D01*
X180844576Y-54681408D01*
X180773408Y-54916016D01*
X180749378Y-55160000D01*
X176236956Y-55160000D01*
X176213188Y-54918682D01*
X176142798Y-54686637D01*
X176028491Y-54472784D01*
X175874660Y-54285340D01*
X175687216Y-54131509D01*
X175473363Y-54017202D01*
X175241318Y-53946812D01*
X175060472Y-53929000D01*
X174939528Y-53929000D01*
X174758682Y-53946812D01*
X174526637Y-54017202D01*
X174312784Y-54131509D01*
X174125340Y-54285340D01*
X173971509Y-54472784D01*
X173857202Y-54686637D01*
X173786812Y-54918682D01*
X173763044Y-55160000D01*
X170406000Y-55160000D01*
X170406000Y-52620000D01*
X173763044Y-52620000D01*
X173786812Y-52861318D01*
X173857202Y-53093363D01*
X173971509Y-53307216D01*
X174125340Y-53494660D01*
X174312784Y-53648491D01*
X174526637Y-53762798D01*
X174758682Y-53833188D01*
X174939528Y-53851000D01*
X175060472Y-53851000D01*
X175241318Y-53833188D01*
X175473363Y-53762798D01*
X175687216Y-53648491D01*
X175874660Y-53494660D01*
X176028491Y-53307216D01*
X176142798Y-53093363D01*
X176213188Y-52861318D01*
X176236956Y-52620000D01*
X180749378Y-52620000D01*
X180773408Y-52863984D01*
X180844576Y-53098592D01*
X180960146Y-53314808D01*
X181115677Y-53504323D01*
X181305192Y-53659854D01*
X181521408Y-53775424D01*
X181756016Y-53846592D01*
X181938857Y-53864600D01*
X182061143Y-53864600D01*
X182243984Y-53846592D01*
X182478592Y-53775424D01*
X182694808Y-53659854D01*
X182884323Y-53504323D01*
X183039854Y-53314808D01*
X183155424Y-53098592D01*
X183226592Y-52863984D01*
X183250622Y-52620000D01*
X183226592Y-52376016D01*
X183155424Y-52141408D01*
X183039854Y-51925192D01*
X182884323Y-51735677D01*
X182694808Y-51580146D01*
X182478592Y-51464576D01*
X182243984Y-51393408D01*
X182061143Y-51375400D01*
X181938857Y-51375400D01*
X181756016Y-51393408D01*
X181521408Y-51464576D01*
X181305192Y-51580146D01*
X181115677Y-51735677D01*
X180960146Y-51925192D01*
X180844576Y-52141408D01*
X180773408Y-52376016D01*
X180749378Y-52620000D01*
X176236956Y-52620000D01*
X176213188Y-52378682D01*
X176142798Y-52146637D01*
X176028491Y-51932784D01*
X175874660Y-51745340D01*
X175687216Y-51591509D01*
X175473363Y-51477202D01*
X175241318Y-51406812D01*
X175060472Y-51389000D01*
X174939528Y-51389000D01*
X174758682Y-51406812D01*
X174526637Y-51477202D01*
X174312784Y-51591509D01*
X174125340Y-51745340D01*
X173971509Y-51932784D01*
X173857202Y-52146637D01*
X173786812Y-52378682D01*
X173763044Y-52620000D01*
X170406000Y-52620000D01*
X170406000Y-50080000D01*
X173763044Y-50080000D01*
X173786812Y-50321318D01*
X173857202Y-50553363D01*
X173971509Y-50767216D01*
X174125340Y-50954660D01*
X174312784Y-51108491D01*
X174526637Y-51222798D01*
X174758682Y-51293188D01*
X174939528Y-51311000D01*
X175060472Y-51311000D01*
X175241318Y-51293188D01*
X175473363Y-51222798D01*
X175687216Y-51108491D01*
X175874660Y-50954660D01*
X176028491Y-50767216D01*
X176142798Y-50553363D01*
X176213188Y-50321318D01*
X176236956Y-50080000D01*
X180749378Y-50080000D01*
X180773408Y-50323984D01*
X180844576Y-50558592D01*
X180960146Y-50774808D01*
X181115677Y-50964323D01*
X181305192Y-51119854D01*
X181521408Y-51235424D01*
X181756016Y-51306592D01*
X181938857Y-51324600D01*
X182061143Y-51324600D01*
X182243984Y-51306592D01*
X182478592Y-51235424D01*
X182694808Y-51119854D01*
X182884323Y-50964323D01*
X183039854Y-50774808D01*
X183155424Y-50558592D01*
X183226592Y-50323984D01*
X183250622Y-50080000D01*
X183245592Y-50028924D01*
X183247099Y-49960999D01*
X183256147Y-49860958D01*
X183271524Y-49767371D01*
X183292922Y-49679872D01*
X183320126Y-49597932D01*
X183353070Y-49520906D01*
X183391841Y-49448146D01*
X183424775Y-49397399D01*
X188402975Y-49397399D01*
X188427821Y-49399846D01*
X188452667Y-49397399D01*
X188452675Y-49397399D01*
X188527014Y-49390077D01*
X188622396Y-49361144D01*
X188710300Y-49314158D01*
X188787348Y-49250926D01*
X188803197Y-49231614D01*
X194262757Y-43772055D01*
X194301220Y-43775843D01*
X195501220Y-43775843D01*
X195624682Y-43763683D01*
X195743399Y-43727671D01*
X195852809Y-43669190D01*
X195948708Y-43590488D01*
X196027410Y-43494589D01*
X196085891Y-43385179D01*
X196121903Y-43266462D01*
X196134063Y-43143000D01*
X196134063Y-41693000D01*
X196121903Y-41569538D01*
X196085891Y-41450821D01*
X196027410Y-41341411D01*
X195948708Y-41245512D01*
X195852809Y-41166810D01*
X195743399Y-41108329D01*
X195624682Y-41072317D01*
X195501220Y-41060157D01*
X194301220Y-41060157D01*
X194177758Y-41072317D01*
X194059041Y-41108329D01*
X193949631Y-41166810D01*
X193853732Y-41245512D01*
X193775030Y-41341411D01*
X193716549Y-41450821D01*
X193680537Y-41569538D01*
X193668377Y-41693000D01*
X193668377Y-42609896D01*
X193667201Y-42652831D01*
X193661779Y-42745708D01*
X193654119Y-42825448D01*
X193644737Y-42891147D01*
X193634551Y-42941477D01*
X193625212Y-42974715D01*
X193622854Y-42980774D01*
X188218230Y-48385399D01*
X183213455Y-48385399D01*
X183188601Y-48382951D01*
X183163747Y-48385399D01*
X183089408Y-48392721D01*
X182994026Y-48421654D01*
X182906122Y-48468640D01*
X182829074Y-48531872D01*
X182819322Y-48543755D01*
X182767171Y-48591818D01*
X182701040Y-48643257D01*
X182631853Y-48688158D01*
X182559093Y-48726929D01*
X182482067Y-48759873D01*
X182400127Y-48787077D01*
X182312628Y-48808475D01*
X182219041Y-48823852D01*
X182118999Y-48832900D01*
X182006394Y-48835400D01*
X181938857Y-48835400D01*
X181756016Y-48853408D01*
X181521408Y-48924576D01*
X181305192Y-49040146D01*
X181115677Y-49195677D01*
X180960146Y-49385192D01*
X180844576Y-49601408D01*
X180773408Y-49836016D01*
X180749378Y-50080000D01*
X176236956Y-50080000D01*
X176213188Y-49838682D01*
X176142798Y-49606637D01*
X176028491Y-49392784D01*
X175874660Y-49205340D01*
X175687216Y-49051509D01*
X175473363Y-48937202D01*
X175241318Y-48866812D01*
X175060472Y-48849000D01*
X174939528Y-48849000D01*
X174758682Y-48866812D01*
X174526637Y-48937202D01*
X174312784Y-49051509D01*
X174125340Y-49205340D01*
X173971509Y-49392784D01*
X173857202Y-49606637D01*
X173786812Y-49838682D01*
X173763044Y-50080000D01*
X170406000Y-50080000D01*
X170406000Y-47540000D01*
X173763044Y-47540000D01*
X173786812Y-47781318D01*
X173857202Y-48013363D01*
X173971509Y-48227216D01*
X174125340Y-48414660D01*
X174312784Y-48568491D01*
X174526637Y-48682798D01*
X174758682Y-48753188D01*
X174939528Y-48771000D01*
X175060472Y-48771000D01*
X175241318Y-48753188D01*
X175473363Y-48682798D01*
X175687216Y-48568491D01*
X175874660Y-48414660D01*
X176028491Y-48227216D01*
X176142798Y-48013363D01*
X176213188Y-47781318D01*
X176236956Y-47540000D01*
X180749378Y-47540000D01*
X180773408Y-47783984D01*
X180844576Y-48018592D01*
X180960146Y-48234808D01*
X181115677Y-48424323D01*
X181305192Y-48579854D01*
X181521408Y-48695424D01*
X181756016Y-48766592D01*
X181938857Y-48784600D01*
X182061143Y-48784600D01*
X182243984Y-48766592D01*
X182478592Y-48695424D01*
X182694808Y-48579854D01*
X182884323Y-48424323D01*
X183039854Y-48234808D01*
X183155424Y-48018592D01*
X183226592Y-47783984D01*
X183250622Y-47540000D01*
X183226592Y-47296016D01*
X183155424Y-47061408D01*
X183039854Y-46845192D01*
X182884323Y-46655677D01*
X182694808Y-46500146D01*
X182478592Y-46384576D01*
X182243984Y-46313408D01*
X182061143Y-46295400D01*
X181938857Y-46295400D01*
X181756016Y-46313408D01*
X181521408Y-46384576D01*
X181305192Y-46500146D01*
X181115677Y-46655677D01*
X180960146Y-46845192D01*
X180844576Y-47061408D01*
X180773408Y-47296016D01*
X180749378Y-47540000D01*
X176236956Y-47540000D01*
X176213188Y-47298682D01*
X176142798Y-47066637D01*
X176028491Y-46852784D01*
X175874660Y-46665340D01*
X175687216Y-46511509D01*
X175473363Y-46397202D01*
X175241318Y-46326812D01*
X175060472Y-46309000D01*
X174939528Y-46309000D01*
X174758682Y-46326812D01*
X174526637Y-46397202D01*
X174312784Y-46511509D01*
X174125340Y-46665340D01*
X173971509Y-46852784D01*
X173857202Y-47066637D01*
X173786812Y-47298682D01*
X173763044Y-47540000D01*
X170406000Y-47540000D01*
X170406000Y-45000000D01*
X171223044Y-45000000D01*
X171246812Y-45241318D01*
X171317202Y-45473363D01*
X171431509Y-45687216D01*
X171585340Y-45874660D01*
X171772784Y-46028491D01*
X171986637Y-46142798D01*
X172218682Y-46213188D01*
X172399528Y-46231000D01*
X172520472Y-46231000D01*
X172701318Y-46213188D01*
X172933363Y-46142798D01*
X173147216Y-46028491D01*
X173334660Y-45874660D01*
X173488491Y-45687216D01*
X173602798Y-45473363D01*
X173673188Y-45241318D01*
X173696956Y-45000000D01*
X173673188Y-44758682D01*
X173602798Y-44526637D01*
X173488491Y-44312784D01*
X173354898Y-44150000D01*
X173767157Y-44150000D01*
X173767157Y-45850000D01*
X173774513Y-45924689D01*
X173796299Y-45996508D01*
X173831678Y-46062696D01*
X173879289Y-46120711D01*
X173937304Y-46168322D01*
X174003492Y-46203701D01*
X174075311Y-46225487D01*
X174150000Y-46232843D01*
X175850000Y-46232843D01*
X175924689Y-46225487D01*
X175996508Y-46203701D01*
X176062696Y-46168322D01*
X176120711Y-46120711D01*
X176168322Y-46062696D01*
X176203701Y-45996508D01*
X176225487Y-45924689D01*
X176232843Y-45850000D01*
X176232843Y-44150000D01*
X176231504Y-44136400D01*
X180753557Y-44136400D01*
X180753557Y-45863600D01*
X180760913Y-45938289D01*
X180782699Y-46010108D01*
X180818078Y-46076296D01*
X180865689Y-46134311D01*
X180923704Y-46181922D01*
X180989892Y-46217301D01*
X181061711Y-46239087D01*
X181136400Y-46246443D01*
X182863600Y-46246443D01*
X182938289Y-46239087D01*
X183010108Y-46217301D01*
X183076296Y-46181922D01*
X183134311Y-46134311D01*
X183181922Y-46076296D01*
X183217301Y-46010108D01*
X183239087Y-45938289D01*
X183246443Y-45863600D01*
X183246443Y-45000000D01*
X183289378Y-45000000D01*
X183313408Y-45243984D01*
X183384576Y-45478592D01*
X183500146Y-45694808D01*
X183655677Y-45884323D01*
X183845192Y-46039854D01*
X184061408Y-46155424D01*
X184296016Y-46226592D01*
X184478857Y-46244600D01*
X184601143Y-46244600D01*
X184783984Y-46226592D01*
X185018592Y-46155424D01*
X185234808Y-46039854D01*
X185424323Y-45884323D01*
X185579854Y-45694808D01*
X185695424Y-45478592D01*
X185766592Y-45243984D01*
X185790622Y-45000000D01*
X185766592Y-44756016D01*
X185695424Y-44521408D01*
X185579854Y-44305192D01*
X185424323Y-44115677D01*
X185234808Y-43960146D01*
X185018592Y-43844576D01*
X184783984Y-43773408D01*
X184601143Y-43755400D01*
X184478857Y-43755400D01*
X184296016Y-43773408D01*
X184061408Y-43844576D01*
X183845192Y-43960146D01*
X183655677Y-44115677D01*
X183500146Y-44305192D01*
X183384576Y-44521408D01*
X183313408Y-44756016D01*
X183289378Y-45000000D01*
X183246443Y-45000000D01*
X183246443Y-44136400D01*
X183239087Y-44061711D01*
X183217301Y-43989892D01*
X183181922Y-43923704D01*
X183134311Y-43865689D01*
X183076296Y-43818078D01*
X183010108Y-43782699D01*
X182938289Y-43760913D01*
X182863600Y-43753557D01*
X181136400Y-43753557D01*
X181061711Y-43760913D01*
X180989892Y-43782699D01*
X180923704Y-43818078D01*
X180865689Y-43865689D01*
X180818078Y-43923704D01*
X180782699Y-43989892D01*
X180760913Y-44061711D01*
X180753557Y-44136400D01*
X176231504Y-44136400D01*
X176225487Y-44075311D01*
X176203701Y-44003492D01*
X176168322Y-43937304D01*
X176120711Y-43879289D01*
X176062696Y-43831678D01*
X175996508Y-43796299D01*
X175924689Y-43774513D01*
X175850000Y-43767157D01*
X174150000Y-43767157D01*
X174075311Y-43774513D01*
X174003492Y-43796299D01*
X173937304Y-43831678D01*
X173879289Y-43879289D01*
X173831678Y-43937304D01*
X173796299Y-44003492D01*
X173774513Y-44075311D01*
X173767157Y-44150000D01*
X173354898Y-44150000D01*
X173334660Y-44125340D01*
X173147216Y-43971509D01*
X172933363Y-43857202D01*
X172701318Y-43786812D01*
X172520472Y-43769000D01*
X172399528Y-43769000D01*
X172218682Y-43786812D01*
X171986637Y-43857202D01*
X171772784Y-43971509D01*
X171585340Y-44125340D01*
X171431509Y-44312784D01*
X171317202Y-44526637D01*
X171246812Y-44758682D01*
X171223044Y-45000000D01*
X170406000Y-45000000D01*
X170406000Y-37871000D01*
X229594000Y-37871000D01*
X229594001Y-75159000D01*
X229594001Y-75159000D01*
G37*
X229594001Y-75159000D02*
X170406000Y-75159000D01*
X170406000Y-67860000D01*
X173763044Y-67860000D01*
X173786812Y-68101318D01*
X173857202Y-68333363D01*
X173971509Y-68547216D01*
X174125340Y-68734660D01*
X174312784Y-68888491D01*
X174526637Y-69002798D01*
X174758682Y-69073188D01*
X174939528Y-69091000D01*
X175060472Y-69091000D01*
X175241318Y-69073188D01*
X175473363Y-69002798D01*
X175687216Y-68888491D01*
X175874660Y-68734660D01*
X176028491Y-68547216D01*
X176142798Y-68333363D01*
X176213188Y-68101318D01*
X176236956Y-67860000D01*
X180749378Y-67860000D01*
X180773408Y-68103984D01*
X180844576Y-68338592D01*
X180960146Y-68554808D01*
X181098594Y-68723507D01*
X181100688Y-68732175D01*
X181106313Y-68764224D01*
X181111440Y-68806017D01*
X181115480Y-68856762D01*
X181118067Y-68915898D01*
X181119001Y-68985275D01*
X181119001Y-69038034D01*
X181114738Y-69081314D01*
X181131749Y-69254019D01*
X181182125Y-69420088D01*
X181263932Y-69573139D01*
X181300232Y-69617370D01*
X181374026Y-69707289D01*
X181407640Y-69734875D01*
X182623125Y-70950361D01*
X182650711Y-70983975D01*
X182684323Y-71011559D01*
X182784860Y-71094068D01*
X182937911Y-71175875D01*
X183103980Y-71226252D01*
X183233413Y-71239000D01*
X183233416Y-71239000D01*
X183276686Y-71243262D01*
X183319956Y-71239000D01*
X185958730Y-71239000D01*
X186002000Y-71243262D01*
X186045270Y-71239000D01*
X186045273Y-71239000D01*
X186174706Y-71226252D01*
X186340775Y-71175875D01*
X186493825Y-71094068D01*
X186627975Y-70983975D01*
X186655566Y-70950355D01*
X188449392Y-69156529D01*
X192836887Y-69156529D01*
X192836887Y-69527472D01*
X192854699Y-69708318D01*
X192925089Y-69940363D01*
X193039396Y-70154216D01*
X193193228Y-70341660D01*
X193380672Y-70495491D01*
X193594525Y-70609798D01*
X193826570Y-70680188D01*
X194067887Y-70703956D01*
X194309205Y-70680188D01*
X194541250Y-70609798D01*
X194755103Y-70495491D01*
X194942547Y-70341660D01*
X195096378Y-70154215D01*
X195210685Y-69940362D01*
X195281075Y-69708317D01*
X195298887Y-69527471D01*
X195298887Y-69326764D01*
X195299513Y-69213764D01*
X195301757Y-69156529D01*
X195336887Y-69156529D01*
X195336887Y-69527472D01*
X195354699Y-69708318D01*
X195425089Y-69940363D01*
X195539396Y-70154216D01*
X195693228Y-70341660D01*
X195880672Y-70495491D01*
X196094525Y-70609798D01*
X196326570Y-70680188D01*
X196567887Y-70703956D01*
X196809205Y-70680188D01*
X197041250Y-70609798D01*
X197255103Y-70495491D01*
X197442547Y-70341660D01*
X197596378Y-70154215D01*
X197710685Y-69940362D01*
X197781075Y-69708317D01*
X197798887Y-69527471D01*
X197798887Y-69156528D01*
X197781075Y-68975682D01*
X197710685Y-68743637D01*
X197596378Y-68529784D01*
X197442547Y-68342340D01*
X197255102Y-68188509D01*
X197041249Y-68074202D01*
X196809204Y-68003812D01*
X196567887Y-67980044D01*
X196326569Y-68003812D01*
X196094524Y-68074202D01*
X195880671Y-68188509D01*
X195693227Y-68342340D01*
X195539396Y-68529785D01*
X195425089Y-68743638D01*
X195354699Y-68975683D01*
X195336887Y-69156529D01*
X195301757Y-69156529D01*
X195303746Y-69105813D01*
X195311405Y-69006134D01*
X195322278Y-68914890D01*
X195336068Y-68832372D01*
X195352423Y-68758666D01*
X195370864Y-68693986D01*
X195390838Y-68638316D01*
X195411671Y-68591592D01*
X195422638Y-68571664D01*
X195441758Y-68548366D01*
X195488745Y-68460462D01*
X195517678Y-68365080D01*
X195527448Y-68265887D01*
X195517678Y-68166694D01*
X195488745Y-68071313D01*
X195485000Y-68064307D01*
X195485000Y-63351963D01*
X195488979Y-63238261D01*
X195499989Y-63136859D01*
X195517963Y-63040930D01*
X195542715Y-62949912D01*
X195574184Y-62863206D01*
X195612474Y-62780177D01*
X195614885Y-62775928D01*
X195666216Y-62748491D01*
X195853660Y-62594660D01*
X196007491Y-62407215D01*
X196121798Y-62193362D01*
X196192188Y-61961317D01*
X196210000Y-61780471D01*
X196210000Y-61409529D01*
X196248000Y-61409529D01*
X196248000Y-61780472D01*
X196265812Y-61961318D01*
X196336202Y-62193363D01*
X196450509Y-62407216D01*
X196604341Y-62594660D01*
X196791785Y-62748491D01*
X196843114Y-62775927D01*
X196845526Y-62780177D01*
X196883816Y-62863206D01*
X196915285Y-62949912D01*
X196940037Y-63040930D01*
X196958011Y-63136859D01*
X196969021Y-63238261D01*
X196973001Y-63351983D01*
X196973000Y-67603267D01*
X196970553Y-67628113D01*
X196973000Y-67652959D01*
X196973000Y-67652966D01*
X196980322Y-67727305D01*
X197009255Y-67822687D01*
X197056241Y-67910592D01*
X197119473Y-67987640D01*
X197138785Y-68003489D01*
X197453378Y-68318082D01*
X197522295Y-68409859D01*
X197591725Y-68514227D01*
X197651827Y-68617681D01*
X197702925Y-68720280D01*
X197745326Y-68822100D01*
X197779363Y-68923364D01*
X197805325Y-69024348D01*
X197823447Y-69125426D01*
X197833886Y-69227081D01*
X197836887Y-69337104D01*
X197836887Y-69527472D01*
X197854699Y-69708318D01*
X197925089Y-69940363D01*
X198039396Y-70154216D01*
X198193228Y-70341660D01*
X198380672Y-70495491D01*
X198594525Y-70609798D01*
X198826570Y-70680188D01*
X199067887Y-70703956D01*
X199309205Y-70680188D01*
X199541250Y-70609798D01*
X199755103Y-70495491D01*
X199942547Y-70341660D01*
X200096378Y-70154215D01*
X200210685Y-69940362D01*
X200281075Y-69708317D01*
X200298887Y-69527471D01*
X200298887Y-69156528D01*
X200281075Y-68975682D01*
X200210685Y-68743637D01*
X200096378Y-68529784D01*
X199942547Y-68342340D01*
X199755102Y-68188509D01*
X199541249Y-68074202D01*
X199309204Y-68003812D01*
X199067887Y-67980044D01*
X198826569Y-68003812D01*
X198698345Y-68042708D01*
X198622798Y-68007511D01*
X198541541Y-67959584D01*
X198485912Y-67919433D01*
X197985000Y-67418522D01*
X197985000Y-63351963D01*
X197988979Y-63238261D01*
X197999989Y-63136859D01*
X198017963Y-63040930D01*
X198042715Y-62949912D01*
X198074184Y-62863206D01*
X198112474Y-62780177D01*
X198114885Y-62775928D01*
X198166216Y-62748491D01*
X198353660Y-62594660D01*
X198507491Y-62407215D01*
X198621798Y-62193362D01*
X198692188Y-61961317D01*
X198710000Y-61780471D01*
X198710000Y-61409529D01*
X198748000Y-61409529D01*
X198748000Y-61780472D01*
X198765812Y-61961318D01*
X198836202Y-62193363D01*
X198950509Y-62407216D01*
X199104341Y-62594660D01*
X199291785Y-62748491D01*
X199343114Y-62775927D01*
X199345526Y-62780177D01*
X199383816Y-62863206D01*
X199415285Y-62949912D01*
X199440037Y-63040930D01*
X199458011Y-63136859D01*
X199469021Y-63238261D01*
X199473001Y-63351983D01*
X199473000Y-67603267D01*
X199470553Y-67628113D01*
X199473000Y-67652959D01*
X199473000Y-67652966D01*
X199480322Y-67727305D01*
X199509255Y-67822687D01*
X199556241Y-67910592D01*
X199619473Y-67987640D01*
X199638785Y-68003489D01*
X199953378Y-68318082D01*
X200022295Y-68409859D01*
X200091725Y-68514227D01*
X200151827Y-68617681D01*
X200202925Y-68720280D01*
X200245326Y-68822100D01*
X200279363Y-68923364D01*
X200305325Y-69024348D01*
X200323447Y-69125426D01*
X200333886Y-69227081D01*
X200336887Y-69337104D01*
X200336887Y-69527472D01*
X200354699Y-69708318D01*
X200425089Y-69940363D01*
X200539396Y-70154216D01*
X200693228Y-70341660D01*
X200880672Y-70495491D01*
X201094525Y-70609798D01*
X201326570Y-70680188D01*
X201567887Y-70703956D01*
X201809205Y-70680188D01*
X202041250Y-70609798D01*
X202255103Y-70495491D01*
X202442547Y-70341660D01*
X202596378Y-70154215D01*
X202710685Y-69940362D01*
X202781075Y-69708317D01*
X202798887Y-69527471D01*
X202798887Y-69156528D01*
X202781075Y-68975682D01*
X202710685Y-68743637D01*
X202596378Y-68529784D01*
X202442547Y-68342340D01*
X202255102Y-68188509D01*
X202041249Y-68074202D01*
X201809204Y-68003812D01*
X201567887Y-67980044D01*
X201326569Y-68003812D01*
X201198345Y-68042708D01*
X201122798Y-68007511D01*
X201041541Y-67959584D01*
X200985912Y-67919433D01*
X200485000Y-67418522D01*
X200485000Y-63351963D01*
X200488979Y-63238261D01*
X200499989Y-63136859D01*
X200517963Y-63040930D01*
X200542715Y-62949912D01*
X200574184Y-62863206D01*
X200612474Y-62780177D01*
X200614885Y-62775928D01*
X200666216Y-62748491D01*
X200853660Y-62594660D01*
X201007491Y-62407215D01*
X201121798Y-62193362D01*
X201192188Y-61961317D01*
X201210000Y-61780471D01*
X201210000Y-61590104D01*
X201213001Y-61480077D01*
X201220245Y-61409529D01*
X201248000Y-61409529D01*
X201248000Y-61780472D01*
X201265812Y-61961318D01*
X201336202Y-62193363D01*
X201450509Y-62407216D01*
X201604341Y-62594660D01*
X201791785Y-62748491D01*
X202005638Y-62862798D01*
X202237683Y-62933188D01*
X202479000Y-62956956D01*
X202720318Y-62933188D01*
X202952363Y-62862798D01*
X203166216Y-62748491D01*
X203353660Y-62594660D01*
X203507491Y-62407215D01*
X203561888Y-62305446D01*
X203561887Y-67585030D01*
X203557908Y-67698738D01*
X203546899Y-67800131D01*
X203528919Y-67896085D01*
X203504175Y-67987080D01*
X203472705Y-68073788D01*
X203434413Y-68156822D01*
X203432001Y-68161073D01*
X203380671Y-68188509D01*
X203193227Y-68342340D01*
X203039396Y-68529785D01*
X202925089Y-68743638D01*
X202854699Y-68975683D01*
X202836887Y-69156529D01*
X202836887Y-69527472D01*
X202854699Y-69708318D01*
X202925089Y-69940363D01*
X203039396Y-70154216D01*
X203193228Y-70341660D01*
X203380672Y-70495491D01*
X203594525Y-70609798D01*
X203826570Y-70680188D01*
X204067887Y-70703956D01*
X204309205Y-70680188D01*
X204541250Y-70609798D01*
X204755103Y-70495491D01*
X204942547Y-70341660D01*
X205096378Y-70154215D01*
X205210685Y-69940362D01*
X205281075Y-69708317D01*
X205298887Y-69527471D01*
X205298887Y-69156529D01*
X211874774Y-69156529D01*
X211874774Y-69527472D01*
X211892586Y-69708318D01*
X211962976Y-69940363D01*
X212077283Y-70154216D01*
X212231115Y-70341660D01*
X212418559Y-70495491D01*
X212632412Y-70609798D01*
X212864457Y-70680188D01*
X213105774Y-70703956D01*
X213347092Y-70680188D01*
X213579137Y-70609798D01*
X213792990Y-70495491D01*
X213980434Y-70341660D01*
X214134265Y-70154215D01*
X214248572Y-69940362D01*
X214318962Y-69708317D01*
X214336774Y-69527471D01*
X214336774Y-69156529D01*
X214374774Y-69156529D01*
X214374774Y-69527472D01*
X214392586Y-69708318D01*
X214462976Y-69940363D01*
X214577283Y-70154216D01*
X214731115Y-70341660D01*
X214918559Y-70495491D01*
X215132412Y-70609798D01*
X215364457Y-70680188D01*
X215605774Y-70703956D01*
X215847092Y-70680188D01*
X216079137Y-70609798D01*
X216292990Y-70495491D01*
X216480434Y-70341660D01*
X216634265Y-70154215D01*
X216748572Y-69940362D01*
X216818962Y-69708317D01*
X216836774Y-69527471D01*
X216836774Y-69156529D01*
X216874774Y-69156529D01*
X216874774Y-69527472D01*
X216892586Y-69708318D01*
X216962976Y-69940363D01*
X217077283Y-70154216D01*
X217231115Y-70341660D01*
X217418559Y-70495491D01*
X217632412Y-70609798D01*
X217864457Y-70680188D01*
X218105774Y-70703956D01*
X218347092Y-70680188D01*
X218579137Y-70609798D01*
X218792990Y-70495491D01*
X218980434Y-70341660D01*
X219134265Y-70154215D01*
X219248572Y-69940362D01*
X219318962Y-69708317D01*
X219336774Y-69527471D01*
X219336774Y-69156528D01*
X219318962Y-68975682D01*
X219248572Y-68743637D01*
X219158162Y-68574492D01*
X223522000Y-68574492D01*
X223522000Y-69043508D01*
X223613500Y-69503512D01*
X223792985Y-69936827D01*
X224053556Y-70326799D01*
X224385201Y-70658444D01*
X224775173Y-70919015D01*
X225208488Y-71098500D01*
X225668492Y-71190000D01*
X226137508Y-71190000D01*
X226597512Y-71098500D01*
X227030827Y-70919015D01*
X227420799Y-70658444D01*
X227752444Y-70326799D01*
X228013015Y-69936827D01*
X228192500Y-69503512D01*
X228284000Y-69043508D01*
X228284000Y-68574492D01*
X228192500Y-68114488D01*
X228013015Y-67681173D01*
X227752444Y-67291201D01*
X227420799Y-66959556D01*
X227030827Y-66698985D01*
X226597512Y-66519500D01*
X226137508Y-66428000D01*
X225668492Y-66428000D01*
X225208488Y-66519500D01*
X224775173Y-66698985D01*
X224385201Y-66959556D01*
X224053556Y-67291201D01*
X223792985Y-67681173D01*
X223613500Y-68114488D01*
X223522000Y-68574492D01*
X219158162Y-68574492D01*
X219134265Y-68529784D01*
X218980434Y-68342340D01*
X218792989Y-68188509D01*
X218579136Y-68074202D01*
X218347091Y-68003812D01*
X218105774Y-67980044D01*
X217864456Y-68003812D01*
X217632411Y-68074202D01*
X217418558Y-68188509D01*
X217231114Y-68342340D01*
X217077283Y-68529785D01*
X216962976Y-68743638D01*
X216892586Y-68975683D01*
X216874774Y-69156529D01*
X216836774Y-69156529D01*
X216836774Y-69156528D01*
X216818962Y-68975682D01*
X216748572Y-68743637D01*
X216634265Y-68529784D01*
X216480434Y-68342340D01*
X216292989Y-68188509D01*
X216079136Y-68074202D01*
X215847091Y-68003812D01*
X215605774Y-67980044D01*
X215364456Y-68003812D01*
X215132411Y-68074202D01*
X214918558Y-68188509D01*
X214731114Y-68342340D01*
X214577283Y-68529785D01*
X214462976Y-68743638D01*
X214392586Y-68975683D01*
X214374774Y-69156529D01*
X214336774Y-69156529D01*
X214336774Y-69156528D01*
X214318962Y-68975682D01*
X214248572Y-68743637D01*
X214134265Y-68529784D01*
X213980434Y-68342340D01*
X213792989Y-68188509D01*
X213741659Y-68161073D01*
X213739249Y-68156825D01*
X213700956Y-68073788D01*
X213669489Y-67987087D01*
X213644737Y-67896069D01*
X213626763Y-67800140D01*
X213615753Y-67698738D01*
X213612071Y-67593520D01*
X216448220Y-64757372D01*
X216467527Y-64741527D01*
X216530759Y-64664479D01*
X216577745Y-64576575D01*
X216606678Y-64481193D01*
X216614000Y-64406854D01*
X216614000Y-64406853D01*
X216616448Y-64382000D01*
X216614000Y-64357146D01*
X216614000Y-63351963D01*
X216617979Y-63238261D01*
X216628989Y-63136859D01*
X216646963Y-63040930D01*
X216671715Y-62949912D01*
X216703184Y-62863206D01*
X216741474Y-62780177D01*
X216743885Y-62775928D01*
X216795216Y-62748491D01*
X216982660Y-62594660D01*
X217136491Y-62407215D01*
X217250798Y-62193362D01*
X217321188Y-61961317D01*
X217339000Y-61780471D01*
X217339000Y-61409529D01*
X217377000Y-61409529D01*
X217377000Y-61780472D01*
X217394812Y-61961318D01*
X217465202Y-62193363D01*
X217579509Y-62407216D01*
X217733341Y-62594660D01*
X217920785Y-62748491D01*
X218134638Y-62862798D01*
X218366683Y-62933188D01*
X218608000Y-62956956D01*
X218849318Y-62933188D01*
X219081363Y-62862798D01*
X219295216Y-62748491D01*
X219482660Y-62594660D01*
X219636491Y-62407215D01*
X219750798Y-62193362D01*
X219821188Y-61961317D01*
X219839000Y-61780471D01*
X219839000Y-61409528D01*
X219821188Y-61228682D01*
X219766683Y-61049000D01*
X223300157Y-61049000D01*
X223300157Y-62649000D01*
X223307513Y-62723689D01*
X223329299Y-62795508D01*
X223364678Y-62861696D01*
X223412289Y-62919711D01*
X223470304Y-62967322D01*
X223536492Y-63002701D01*
X223608311Y-63024487D01*
X223683000Y-63031843D01*
X225283000Y-63031843D01*
X225357689Y-63024487D01*
X225429508Y-63002701D01*
X225495696Y-62967322D01*
X225553711Y-62919711D01*
X225601322Y-62861696D01*
X225636701Y-62795508D01*
X225658487Y-62723689D01*
X225665843Y-62649000D01*
X225665843Y-61049000D01*
X225658487Y-60974311D01*
X225636701Y-60902492D01*
X225601322Y-60836304D01*
X225553711Y-60778289D01*
X225495696Y-60730678D01*
X225429508Y-60695299D01*
X225357689Y-60673513D01*
X225283000Y-60666157D01*
X223683000Y-60666157D01*
X223608311Y-60673513D01*
X223536492Y-60695299D01*
X223470304Y-60730678D01*
X223412289Y-60778289D01*
X223364678Y-60836304D01*
X223329299Y-60902492D01*
X223307513Y-60974311D01*
X223300157Y-61049000D01*
X219766683Y-61049000D01*
X219750798Y-60996637D01*
X219636491Y-60782784D01*
X219482660Y-60595340D01*
X219295215Y-60441509D01*
X219119678Y-60347682D01*
X226142000Y-60347682D01*
X226142000Y-60580318D01*
X226187386Y-60808485D01*
X226276412Y-61023413D01*
X226405658Y-61216843D01*
X226570157Y-61381342D01*
X226763587Y-61510588D01*
X226978515Y-61599614D01*
X227206682Y-61645000D01*
X227439318Y-61645000D01*
X227667485Y-61599614D01*
X227882413Y-61510588D01*
X228075843Y-61381342D01*
X228240342Y-61216843D01*
X228369588Y-61023413D01*
X228458614Y-60808485D01*
X228504000Y-60580318D01*
X228504000Y-60347682D01*
X228458614Y-60119515D01*
X228369588Y-59904587D01*
X228240342Y-59711157D01*
X228075843Y-59546658D01*
X227882413Y-59417412D01*
X227667485Y-59328386D01*
X227439318Y-59283000D01*
X227206682Y-59283000D01*
X226978515Y-59328386D01*
X226763587Y-59417412D01*
X226570157Y-59546658D01*
X226405658Y-59711157D01*
X226276412Y-59904587D01*
X226187386Y-60119515D01*
X226142000Y-60347682D01*
X219119678Y-60347682D01*
X219081362Y-60327202D01*
X218849317Y-60256812D01*
X218608000Y-60233044D01*
X218366682Y-60256812D01*
X218134637Y-60327202D01*
X217920784Y-60441509D01*
X217733340Y-60595340D01*
X217579509Y-60782785D01*
X217465202Y-60996638D01*
X217394812Y-61228683D01*
X217377000Y-61409529D01*
X217339000Y-61409529D01*
X217339000Y-61409528D01*
X217321188Y-61228682D01*
X217250798Y-60996637D01*
X217136491Y-60782784D01*
X216982660Y-60595340D01*
X216795215Y-60441509D01*
X216581362Y-60327202D01*
X216349317Y-60256812D01*
X216108000Y-60233044D01*
X215866682Y-60256812D01*
X215634637Y-60327202D01*
X215420784Y-60441509D01*
X215233340Y-60595340D01*
X215079509Y-60782785D01*
X214965202Y-60996638D01*
X214894812Y-61228683D01*
X214877000Y-61409529D01*
X214877000Y-61780472D01*
X214894812Y-61961318D01*
X214965202Y-62193363D01*
X215079509Y-62407216D01*
X215233341Y-62594660D01*
X215420785Y-62748491D01*
X215472114Y-62775927D01*
X215474526Y-62780177D01*
X215512816Y-62863206D01*
X215544285Y-62949912D01*
X215569037Y-63040930D01*
X215587011Y-63136859D01*
X215598021Y-63238261D01*
X215602000Y-63351974D01*
X215602000Y-64172408D01*
X212765555Y-67008854D01*
X212746248Y-67024699D01*
X212683016Y-67101747D01*
X212662375Y-67140363D01*
X212636029Y-67189652D01*
X212607096Y-67285034D01*
X212597327Y-67384226D01*
X212599775Y-67409082D01*
X212599775Y-67585012D01*
X212595795Y-67698738D01*
X212584786Y-67800131D01*
X212566806Y-67896085D01*
X212542062Y-67987080D01*
X212510592Y-68073788D01*
X212472300Y-68156822D01*
X212469888Y-68161073D01*
X212418558Y-68188509D01*
X212231114Y-68342340D01*
X212077283Y-68529785D01*
X211962976Y-68743638D01*
X211892586Y-68975683D01*
X211874774Y-69156529D01*
X205298887Y-69156529D01*
X205298887Y-69156528D01*
X205281075Y-68975682D01*
X205210685Y-68743637D01*
X205096378Y-68529784D01*
X204942547Y-68342340D01*
X204755102Y-68188509D01*
X204703772Y-68161073D01*
X204701362Y-68156825D01*
X204663069Y-68073788D01*
X204631602Y-67987087D01*
X204606850Y-67896069D01*
X204588876Y-67800140D01*
X204577866Y-67698738D01*
X204573887Y-67585037D01*
X204573887Y-62108741D01*
X204574649Y-62101000D01*
X206851037Y-62101000D01*
X206964738Y-62104979D01*
X207066140Y-62115989D01*
X207162069Y-62133963D01*
X207253087Y-62158715D01*
X207339788Y-62190182D01*
X207375157Y-62206493D01*
X207375157Y-62320000D01*
X207387317Y-62443462D01*
X207423329Y-62562179D01*
X207481810Y-62671589D01*
X207560512Y-62767488D01*
X207656411Y-62846190D01*
X207765821Y-62904671D01*
X207884538Y-62940683D01*
X208008000Y-62952843D01*
X209208000Y-62952843D01*
X209331462Y-62940683D01*
X209450179Y-62904671D01*
X209559589Y-62846190D01*
X209655488Y-62767488D01*
X209734190Y-62671589D01*
X209792671Y-62562179D01*
X209828683Y-62443462D01*
X209840843Y-62320000D01*
X209840843Y-60870000D01*
X209828683Y-60746538D01*
X209792671Y-60627821D01*
X209734190Y-60518411D01*
X209655488Y-60422512D01*
X209559589Y-60343810D01*
X209450179Y-60285329D01*
X209331462Y-60249317D01*
X209208000Y-60237157D01*
X208008000Y-60237157D01*
X207884538Y-60249317D01*
X207765821Y-60285329D01*
X207656411Y-60343810D01*
X207560512Y-60422512D01*
X207481810Y-60518411D01*
X207423329Y-60627821D01*
X207387317Y-60746538D01*
X207375157Y-60870000D01*
X207375157Y-60983507D01*
X207339788Y-60999818D01*
X207253087Y-61031285D01*
X207162069Y-61056037D01*
X207066140Y-61074011D01*
X206964738Y-61085021D01*
X206851037Y-61089000D01*
X204235963Y-61089000D01*
X204122261Y-61085021D01*
X204020859Y-61074011D01*
X203924930Y-61056037D01*
X203833912Y-61031285D01*
X203747206Y-60999816D01*
X203664177Y-60961526D01*
X203584209Y-60916147D01*
X203575651Y-60910303D01*
X203507491Y-60782784D01*
X203353660Y-60595340D01*
X203166215Y-60441509D01*
X202952362Y-60327202D01*
X202720317Y-60256812D01*
X202479000Y-60233044D01*
X202237682Y-60256812D01*
X202005637Y-60327202D01*
X201791784Y-60441509D01*
X201604340Y-60595340D01*
X201450509Y-60782785D01*
X201336202Y-60996638D01*
X201265812Y-61228683D01*
X201248000Y-61409529D01*
X201220245Y-61409529D01*
X201223439Y-61378428D01*
X201241561Y-61277348D01*
X201267523Y-61176365D01*
X201301561Y-61075102D01*
X201343963Y-60973279D01*
X201395060Y-60870679D01*
X201455161Y-60767227D01*
X201524587Y-60662866D01*
X201593510Y-60571082D01*
X202349592Y-59815000D01*
X211237409Y-59815000D01*
X211993492Y-60571083D01*
X212062408Y-60662859D01*
X212131838Y-60767227D01*
X212191940Y-60870681D01*
X212243038Y-60973280D01*
X212285439Y-61075100D01*
X212319476Y-61176364D01*
X212345438Y-61277348D01*
X212363560Y-61378426D01*
X212373999Y-61480081D01*
X212377000Y-61590104D01*
X212377000Y-61780472D01*
X212394812Y-61961318D01*
X212465202Y-62193363D01*
X212579509Y-62407216D01*
X212733341Y-62594660D01*
X212920785Y-62748491D01*
X213134638Y-62862798D01*
X213366683Y-62933188D01*
X213608000Y-62956956D01*
X213849318Y-62933188D01*
X214081363Y-62862798D01*
X214295216Y-62748491D01*
X214482660Y-62594660D01*
X214636491Y-62407215D01*
X214750798Y-62193362D01*
X214821188Y-61961317D01*
X214839000Y-61780471D01*
X214839000Y-61409528D01*
X214821188Y-61228682D01*
X214750798Y-60996637D01*
X214636491Y-60782784D01*
X214482660Y-60595340D01*
X214295215Y-60441509D01*
X214081362Y-60327202D01*
X213849317Y-60256812D01*
X213608000Y-60233044D01*
X213366682Y-60256812D01*
X213238458Y-60295708D01*
X213162911Y-60260511D01*
X213081654Y-60212584D01*
X213026025Y-60172434D01*
X211822376Y-58968785D01*
X211806527Y-58949473D01*
X211729479Y-58886241D01*
X211641575Y-58839255D01*
X211546193Y-58810322D01*
X211471854Y-58803000D01*
X211471846Y-58803000D01*
X211447000Y-58800553D01*
X211422154Y-58803000D01*
X202164854Y-58803000D01*
X202140000Y-58800552D01*
X202115146Y-58803000D01*
X202040807Y-58810322D01*
X201945425Y-58839255D01*
X201857521Y-58886241D01*
X201780473Y-58949473D01*
X201764628Y-58968780D01*
X200560978Y-60172431D01*
X200505345Y-60212584D01*
X200424088Y-60260511D01*
X200348541Y-60295708D01*
X200220317Y-60256812D01*
X199979000Y-60233044D01*
X199737682Y-60256812D01*
X199505637Y-60327202D01*
X199291784Y-60441509D01*
X199104340Y-60595340D01*
X198950509Y-60782785D01*
X198836202Y-60996638D01*
X198765812Y-61228683D01*
X198748000Y-61409529D01*
X198710000Y-61409529D01*
X198710000Y-61409528D01*
X198692188Y-61228682D01*
X198621798Y-60996637D01*
X198507491Y-60782784D01*
X198353660Y-60595340D01*
X198166215Y-60441509D01*
X197952362Y-60327202D01*
X197720317Y-60256812D01*
X197479000Y-60233044D01*
X197237682Y-60256812D01*
X197005637Y-60327202D01*
X196791784Y-60441509D01*
X196604340Y-60595340D01*
X196450509Y-60782785D01*
X196336202Y-60996638D01*
X196265812Y-61228683D01*
X196248000Y-61409529D01*
X196210000Y-61409529D01*
X196210000Y-61409528D01*
X196192188Y-61228682D01*
X196121798Y-60996637D01*
X196007491Y-60782784D01*
X195853660Y-60595340D01*
X195666215Y-60441509D01*
X195452362Y-60327202D01*
X195220317Y-60256812D01*
X194979000Y-60233044D01*
X194737682Y-60256812D01*
X194505637Y-60327202D01*
X194291784Y-60441509D01*
X194104340Y-60595340D01*
X193950509Y-60782785D01*
X193836202Y-60996638D01*
X193765812Y-61228683D01*
X193748000Y-61409529D01*
X193748000Y-61780472D01*
X193765812Y-61961318D01*
X193836202Y-62193363D01*
X193950509Y-62407216D01*
X194104341Y-62594660D01*
X194291785Y-62748491D01*
X194343114Y-62775927D01*
X194345526Y-62780177D01*
X194383816Y-62863206D01*
X194415285Y-62949912D01*
X194440037Y-63040930D01*
X194458011Y-63136859D01*
X194469021Y-63238261D01*
X194473001Y-63351984D01*
X194473000Y-68053499D01*
X194309204Y-68003812D01*
X194067887Y-67980044D01*
X193826569Y-68003812D01*
X193594524Y-68074202D01*
X193380671Y-68188509D01*
X193193227Y-68342340D01*
X193039396Y-68529785D01*
X192925089Y-68743638D01*
X192854699Y-68975683D01*
X192836887Y-69156529D01*
X188449392Y-69156529D01*
X190404362Y-67201560D01*
X190437975Y-67173975D01*
X190497250Y-67101747D01*
X190548068Y-67039826D01*
X190629875Y-66886775D01*
X190646640Y-66831509D01*
X190680252Y-66720706D01*
X190693000Y-66591273D01*
X190693000Y-66591270D01*
X190697262Y-66548000D01*
X190693000Y-66504730D01*
X190693000Y-59165921D01*
X202730922Y-47128000D01*
X207508273Y-47128000D01*
X207637706Y-47115252D01*
X207803775Y-47064875D01*
X207956825Y-46983068D01*
X208090975Y-46872975D01*
X208201068Y-46738825D01*
X208282875Y-46585775D01*
X208333252Y-46419706D01*
X208350262Y-46247000D01*
X208333252Y-46074294D01*
X208282875Y-45908225D01*
X208201068Y-45755175D01*
X208090975Y-45621025D01*
X207956825Y-45510932D01*
X207803775Y-45429125D01*
X207637706Y-45378748D01*
X207508273Y-45366000D01*
X202409269Y-45366000D01*
X202365999Y-45361738D01*
X202322729Y-45366000D01*
X202322727Y-45366000D01*
X202193294Y-45378748D01*
X202027225Y-45429125D01*
X201874174Y-45510932D01*
X201820615Y-45554887D01*
X201740025Y-45621025D01*
X201712439Y-45654639D01*
X189219640Y-58147439D01*
X189186026Y-58175025D01*
X189158441Y-58208638D01*
X189075932Y-58309175D01*
X188994125Y-58462226D01*
X188978665Y-58513192D01*
X188948892Y-58611342D01*
X188943749Y-58628295D01*
X188926738Y-58801000D01*
X188931001Y-58844280D01*
X188931000Y-66183078D01*
X185637079Y-69477000D01*
X183641608Y-69477000D01*
X182898933Y-68734326D01*
X182899311Y-68732175D01*
X182901405Y-68723509D01*
X183039854Y-68554808D01*
X183155424Y-68338592D01*
X183226592Y-68103984D01*
X183250622Y-67860000D01*
X183226592Y-67616016D01*
X183155424Y-67381408D01*
X183039854Y-67165192D01*
X182884323Y-66975677D01*
X182694808Y-66820146D01*
X182478592Y-66704576D01*
X182243984Y-66633408D01*
X182061143Y-66615400D01*
X181938857Y-66615400D01*
X181756016Y-66633408D01*
X181521408Y-66704576D01*
X181305192Y-66820146D01*
X181115677Y-66975677D01*
X180960146Y-67165192D01*
X180844576Y-67381408D01*
X180773408Y-67616016D01*
X180749378Y-67860000D01*
X176236956Y-67860000D01*
X176213188Y-67618682D01*
X176142798Y-67386637D01*
X176028491Y-67172784D01*
X175874660Y-66985340D01*
X175687216Y-66831509D01*
X175473363Y-66717202D01*
X175241318Y-66646812D01*
X175060472Y-66629000D01*
X174939528Y-66629000D01*
X174758682Y-66646812D01*
X174526637Y-66717202D01*
X174312784Y-66831509D01*
X174125340Y-66985340D01*
X173971509Y-67172784D01*
X173857202Y-67386637D01*
X173786812Y-67618682D01*
X173763044Y-67860000D01*
X170406000Y-67860000D01*
X170406000Y-65320000D01*
X173763044Y-65320000D01*
X173786812Y-65561318D01*
X173857202Y-65793363D01*
X173971509Y-66007216D01*
X174125340Y-66194660D01*
X174312784Y-66348491D01*
X174526637Y-66462798D01*
X174758682Y-66533188D01*
X174939528Y-66551000D01*
X175060472Y-66551000D01*
X175241318Y-66533188D01*
X175473363Y-66462798D01*
X175687216Y-66348491D01*
X175874660Y-66194660D01*
X176028491Y-66007216D01*
X176142798Y-65793363D01*
X176213188Y-65561318D01*
X176236956Y-65320000D01*
X180749378Y-65320000D01*
X180773408Y-65563984D01*
X180844576Y-65798592D01*
X180960146Y-66014808D01*
X181115677Y-66204323D01*
X181305192Y-66359854D01*
X181521408Y-66475424D01*
X181756016Y-66546592D01*
X181938857Y-66564600D01*
X182061143Y-66564600D01*
X182243984Y-66546592D01*
X182478592Y-66475424D01*
X182694808Y-66359854D01*
X182884323Y-66204323D01*
X183039854Y-66014808D01*
X183155424Y-65798592D01*
X183226592Y-65563984D01*
X183250622Y-65320000D01*
X183244420Y-65257029D01*
X183244238Y-65185126D01*
X183245845Y-65075390D01*
X183249277Y-64978864D01*
X183254372Y-64896144D01*
X183260815Y-64828285D01*
X183267968Y-64776855D01*
X183270283Y-64765308D01*
X183398192Y-64637399D01*
X184922885Y-64637399D01*
X184947731Y-64639846D01*
X184972577Y-64637399D01*
X184972585Y-64637399D01*
X185046924Y-64630077D01*
X185142306Y-64601144D01*
X185230210Y-64554158D01*
X185307258Y-64490926D01*
X185323107Y-64471614D01*
X188120220Y-61674502D01*
X188139527Y-61658657D01*
X188202759Y-61581609D01*
X188249745Y-61493705D01*
X188262035Y-61453188D01*
X188278678Y-61398324D01*
X188280207Y-61382798D01*
X188286000Y-61323984D01*
X188286000Y-61323977D01*
X188288447Y-61299131D01*
X188286000Y-61274285D01*
X188286000Y-53473811D01*
X197741440Y-44018372D01*
X197760747Y-44002527D01*
X197823979Y-43925479D01*
X197870965Y-43837575D01*
X197899898Y-43742193D01*
X197903666Y-43703935D01*
X197917963Y-43681036D01*
X197939520Y-43651089D01*
X198088436Y-43571491D01*
X198275880Y-43417660D01*
X198429711Y-43230215D01*
X198544018Y-43016362D01*
X198614408Y-42784317D01*
X198632220Y-42603471D01*
X198632220Y-42232528D01*
X198614408Y-42051682D01*
X198544018Y-41819637D01*
X198476330Y-41693000D01*
X208539597Y-41693000D01*
X208539597Y-43143000D01*
X208551757Y-43266462D01*
X208587769Y-43385179D01*
X208646250Y-43494589D01*
X208724952Y-43590488D01*
X208820851Y-43669190D01*
X208930261Y-43727671D01*
X209048978Y-43763683D01*
X209172440Y-43775843D01*
X209209522Y-43775843D01*
X209233477Y-43863930D01*
X209251451Y-43959859D01*
X209262461Y-44061261D01*
X209266440Y-44174974D01*
X209266440Y-45335594D01*
X209263993Y-45360440D01*
X209266440Y-45385286D01*
X209266440Y-45385293D01*
X209273762Y-45459632D01*
X209302695Y-45555014D01*
X209349681Y-45642919D01*
X209412913Y-45719967D01*
X209432225Y-45735816D01*
X220424628Y-56728220D01*
X220440473Y-56747527D01*
X220517521Y-56810759D01*
X220605425Y-56857745D01*
X220700807Y-56886678D01*
X220800000Y-56896448D01*
X220824854Y-56894000D01*
X223151022Y-56894000D01*
X223218248Y-56905096D01*
X223300054Y-56926472D01*
X223375861Y-56954325D01*
X223446725Y-56988695D01*
X223513741Y-57029982D01*
X223577775Y-57078840D01*
X223646454Y-57142639D01*
X223730157Y-57226342D01*
X223923587Y-57355588D01*
X224138515Y-57444614D01*
X224366682Y-57490000D01*
X224599318Y-57490000D01*
X224827485Y-57444614D01*
X225042413Y-57355588D01*
X225235843Y-57226342D01*
X225374001Y-57088184D01*
X225374001Y-57472407D01*
X224972124Y-57874285D01*
X224967937Y-57875189D01*
X224923302Y-57881930D01*
X224863363Y-57888151D01*
X224789679Y-57893153D01*
X224703271Y-57896581D01*
X224604800Y-57898248D01*
X224600526Y-57898240D01*
X224599318Y-57898000D01*
X224366682Y-57898000D01*
X224138515Y-57943386D01*
X223923587Y-58032412D01*
X223730157Y-58161658D01*
X223565658Y-58326157D01*
X223436412Y-58519587D01*
X223347386Y-58734515D01*
X223302000Y-58962682D01*
X223302000Y-59195318D01*
X223347386Y-59423485D01*
X223436412Y-59638413D01*
X223565658Y-59831843D01*
X223730157Y-59996342D01*
X223923587Y-60125588D01*
X224138515Y-60214614D01*
X224366682Y-60260000D01*
X224599318Y-60260000D01*
X224827485Y-60214614D01*
X225042413Y-60125588D01*
X225235843Y-59996342D01*
X225400342Y-59831843D01*
X225529588Y-59638413D01*
X225618614Y-59423485D01*
X225664000Y-59195318D01*
X225664000Y-58962682D01*
X225663760Y-58961474D01*
X225663752Y-58957201D01*
X225665418Y-58858762D01*
X225668849Y-58772288D01*
X225673848Y-58698639D01*
X225680070Y-58638693D01*
X225686810Y-58594064D01*
X225687714Y-58589877D01*
X226202535Y-58075057D01*
X226276412Y-58253413D01*
X226405658Y-58446843D01*
X226570157Y-58611342D01*
X226763587Y-58740588D01*
X226978515Y-58829614D01*
X227206682Y-58875000D01*
X227439318Y-58875000D01*
X227667485Y-58829614D01*
X227882413Y-58740588D01*
X228075843Y-58611342D01*
X228240342Y-58446843D01*
X228369588Y-58253413D01*
X228458614Y-58038485D01*
X228504000Y-57810318D01*
X228504000Y-57577682D01*
X228458614Y-57349515D01*
X228369588Y-57134587D01*
X228240342Y-56941157D01*
X228075843Y-56776658D01*
X227882413Y-56647412D01*
X227667485Y-56558386D01*
X227439318Y-56513000D01*
X227206682Y-56513000D01*
X226978515Y-56558386D01*
X226763587Y-56647412D01*
X226570157Y-56776658D01*
X226405658Y-56941157D01*
X226386000Y-56970577D01*
X226386000Y-55650854D01*
X226386295Y-55647864D01*
X226405658Y-55676843D01*
X226570157Y-55841342D01*
X226763587Y-55970588D01*
X226978515Y-56059614D01*
X227206682Y-56105000D01*
X227439318Y-56105000D01*
X227667485Y-56059614D01*
X227882413Y-55970588D01*
X228075843Y-55841342D01*
X228240342Y-55676843D01*
X228369588Y-55483413D01*
X228458614Y-55268485D01*
X228504000Y-55040318D01*
X228504000Y-54807682D01*
X228458614Y-54579515D01*
X228369588Y-54364587D01*
X228240342Y-54171157D01*
X228075843Y-54006658D01*
X227882413Y-53877412D01*
X227667485Y-53788386D01*
X227439318Y-53743000D01*
X227206682Y-53743000D01*
X226978515Y-53788386D01*
X226763587Y-53877412D01*
X226570157Y-54006658D01*
X226405658Y-54171157D01*
X226276412Y-54364587D01*
X226187386Y-54579515D01*
X226142000Y-54807682D01*
X226142000Y-55040318D01*
X226174799Y-55205207D01*
X225620376Y-54650785D01*
X225604527Y-54631473D01*
X225527479Y-54568241D01*
X225439575Y-54521255D01*
X225344193Y-54492322D01*
X225269854Y-54485000D01*
X225269846Y-54485000D01*
X225245000Y-54482553D01*
X225220154Y-54485000D01*
X225192953Y-54485000D01*
X225235843Y-54456342D01*
X225400342Y-54291843D01*
X225529588Y-54098413D01*
X225618614Y-53883485D01*
X225664000Y-53655318D01*
X225664000Y-53422682D01*
X225618614Y-53194515D01*
X225529588Y-52979587D01*
X225400342Y-52786157D01*
X225235843Y-52621658D01*
X225042413Y-52492412D01*
X224827485Y-52403386D01*
X224599318Y-52358000D01*
X224366682Y-52358000D01*
X224138515Y-52403386D01*
X223923587Y-52492412D01*
X223730157Y-52621658D01*
X223565658Y-52786157D01*
X223436412Y-52979587D01*
X223347386Y-53194515D01*
X223302000Y-53422682D01*
X223302000Y-53655318D01*
X223347386Y-53883485D01*
X223436412Y-54098413D01*
X223565658Y-54291843D01*
X223730157Y-54456342D01*
X223773047Y-54485000D01*
X221136592Y-54485000D01*
X218689274Y-52037682D01*
X226142000Y-52037682D01*
X226142000Y-52270318D01*
X226187386Y-52498485D01*
X226276412Y-52713413D01*
X226405658Y-52906843D01*
X226570157Y-53071342D01*
X226763587Y-53200588D01*
X226978515Y-53289614D01*
X227206682Y-53335000D01*
X227439318Y-53335000D01*
X227667485Y-53289614D01*
X227882413Y-53200588D01*
X228075843Y-53071342D01*
X228240342Y-52906843D01*
X228369588Y-52713413D01*
X228458614Y-52498485D01*
X228504000Y-52270318D01*
X228504000Y-52037682D01*
X228458614Y-51809515D01*
X228369588Y-51594587D01*
X228240342Y-51401157D01*
X228075843Y-51236658D01*
X227882413Y-51107412D01*
X227667485Y-51018386D01*
X227439318Y-50973000D01*
X227206682Y-50973000D01*
X226978515Y-51018386D01*
X226763587Y-51107412D01*
X226570157Y-51236658D01*
X226405658Y-51401157D01*
X226276412Y-51594587D01*
X226187386Y-51809515D01*
X226142000Y-52037682D01*
X218689274Y-52037682D01*
X212778440Y-46126849D01*
X212778440Y-44174963D01*
X212782419Y-44061261D01*
X212793429Y-43959864D01*
X212811404Y-43863923D01*
X212836153Y-43772915D01*
X212867624Y-43686206D01*
X212905914Y-43603177D01*
X212908325Y-43598928D01*
X212954041Y-43574492D01*
X223522000Y-43574492D01*
X223522000Y-44043508D01*
X223613500Y-44503512D01*
X223792985Y-44936827D01*
X224053556Y-45326799D01*
X224385201Y-45658444D01*
X224775173Y-45919015D01*
X225208488Y-46098500D01*
X225668492Y-46190000D01*
X226137508Y-46190000D01*
X226597512Y-46098500D01*
X227030827Y-45919015D01*
X227420799Y-45658444D01*
X227752444Y-45326799D01*
X228013015Y-44936827D01*
X228192500Y-44503512D01*
X228284000Y-44043508D01*
X228284000Y-43574492D01*
X228192500Y-43114488D01*
X228013015Y-42681173D01*
X227752444Y-42291201D01*
X227420799Y-41959556D01*
X227030827Y-41698985D01*
X226597512Y-41519500D01*
X226137508Y-41428000D01*
X225668492Y-41428000D01*
X225208488Y-41519500D01*
X224775173Y-41698985D01*
X224385201Y-41959556D01*
X224053556Y-42291201D01*
X223792985Y-42681173D01*
X223613500Y-43114488D01*
X223522000Y-43574492D01*
X212954041Y-43574492D01*
X212959656Y-43571491D01*
X213147100Y-43417660D01*
X213300931Y-43230215D01*
X213415238Y-43016362D01*
X213485628Y-42784317D01*
X213503440Y-42603471D01*
X213503440Y-42232528D01*
X213485628Y-42051682D01*
X213415238Y-41819637D01*
X213300931Y-41605784D01*
X213147100Y-41418340D01*
X212959655Y-41264509D01*
X212745802Y-41150202D01*
X212513757Y-41079812D01*
X212272440Y-41056044D01*
X212031122Y-41079812D01*
X211799077Y-41150202D01*
X211585224Y-41264509D01*
X211397780Y-41418340D01*
X211243949Y-41605785D01*
X211129642Y-41819638D01*
X211059252Y-42051683D01*
X211041440Y-42232529D01*
X211041440Y-42603472D01*
X211059252Y-42784318D01*
X211129642Y-43016363D01*
X211243949Y-43230216D01*
X211397781Y-43417660D01*
X211585225Y-43571491D01*
X211636553Y-43598927D01*
X211638967Y-43603180D01*
X211677256Y-43686206D01*
X211708725Y-43772912D01*
X211733477Y-43863930D01*
X211751451Y-43959859D01*
X211762461Y-44061261D01*
X211766440Y-44174976D01*
X211766441Y-46311584D01*
X211763993Y-46336440D01*
X211773762Y-46435632D01*
X211802695Y-46531014D01*
X211802696Y-46531015D01*
X211849682Y-46618919D01*
X211912914Y-46695967D01*
X211932221Y-46711812D01*
X220551628Y-55331220D01*
X220567473Y-55350527D01*
X220644521Y-55413759D01*
X220732425Y-55460745D01*
X220827806Y-55489678D01*
X220837694Y-55490652D01*
X220902146Y-55497000D01*
X220902153Y-55497000D01*
X220926999Y-55499447D01*
X220951845Y-55497000D01*
X223623688Y-55497000D01*
X223572016Y-55545926D01*
X223500442Y-55604155D01*
X223424368Y-55657061D01*
X223343393Y-55704849D01*
X223257052Y-55747645D01*
X223164918Y-55785456D01*
X223066653Y-55818184D01*
X222961896Y-55845693D01*
X222850451Y-55867775D01*
X222748079Y-55882000D01*
X221009592Y-55882000D01*
X210278440Y-45150849D01*
X210278440Y-44174963D01*
X210282419Y-44061261D01*
X210293429Y-43959864D01*
X210311404Y-43863923D01*
X210335357Y-43775843D01*
X210372440Y-43775843D01*
X210495902Y-43763683D01*
X210614619Y-43727671D01*
X210724029Y-43669190D01*
X210819928Y-43590488D01*
X210898630Y-43494589D01*
X210957111Y-43385179D01*
X210993123Y-43266462D01*
X211005283Y-43143000D01*
X211005283Y-41693000D01*
X210993123Y-41569538D01*
X210957111Y-41450821D01*
X210898630Y-41341411D01*
X210819928Y-41245512D01*
X210724029Y-41166810D01*
X210614619Y-41108329D01*
X210495902Y-41072317D01*
X210372440Y-41060157D01*
X209172440Y-41060157D01*
X209048978Y-41072317D01*
X208930261Y-41108329D01*
X208820851Y-41166810D01*
X208724952Y-41245512D01*
X208646250Y-41341411D01*
X208587769Y-41450821D01*
X208551757Y-41569538D01*
X208539597Y-41693000D01*
X198476330Y-41693000D01*
X198429711Y-41605784D01*
X198275880Y-41418340D01*
X198088435Y-41264509D01*
X197874582Y-41150202D01*
X197642537Y-41079812D01*
X197401220Y-41056044D01*
X197159902Y-41079812D01*
X196927857Y-41150202D01*
X196714004Y-41264509D01*
X196526560Y-41418340D01*
X196372729Y-41605785D01*
X196258422Y-41819638D01*
X196188032Y-42051683D01*
X196170220Y-42232529D01*
X196170220Y-42603472D01*
X196188032Y-42784318D01*
X196258422Y-43016363D01*
X196372729Y-43230216D01*
X196526561Y-43417660D01*
X196714005Y-43571491D01*
X196742113Y-43586515D01*
X187439785Y-52888844D01*
X187420473Y-52904693D01*
X187357241Y-52981741D01*
X187310255Y-53069646D01*
X187281322Y-53165028D01*
X187274000Y-53239367D01*
X187274000Y-53239374D01*
X187271553Y-53264220D01*
X187274000Y-53289066D01*
X187274001Y-61089537D01*
X184738140Y-63625399D01*
X183213446Y-63625399D01*
X183188600Y-63622952D01*
X183163754Y-63625399D01*
X183163747Y-63625399D01*
X183099295Y-63631747D01*
X183089407Y-63632721D01*
X183017083Y-63654660D01*
X182994026Y-63661654D01*
X182906122Y-63708640D01*
X182829074Y-63771872D01*
X182813225Y-63791184D01*
X182554694Y-64049715D01*
X182543146Y-64052030D01*
X182491711Y-64059184D01*
X182423855Y-64065627D01*
X182341135Y-64070722D01*
X182244609Y-64074154D01*
X182134871Y-64075761D01*
X182062967Y-64075580D01*
X182061143Y-64075400D01*
X181938857Y-64075400D01*
X181756016Y-64093408D01*
X181521408Y-64164576D01*
X181305192Y-64280146D01*
X181115677Y-64435677D01*
X180960146Y-64625192D01*
X180844576Y-64841408D01*
X180773408Y-65076016D01*
X180749378Y-65320000D01*
X176236956Y-65320000D01*
X176213188Y-65078682D01*
X176142798Y-64846637D01*
X176028491Y-64632784D01*
X175874660Y-64445340D01*
X175687216Y-64291509D01*
X175473363Y-64177202D01*
X175241318Y-64106812D01*
X175060472Y-64089000D01*
X174939528Y-64089000D01*
X174758682Y-64106812D01*
X174526637Y-64177202D01*
X174312784Y-64291509D01*
X174125340Y-64445340D01*
X173971509Y-64632784D01*
X173857202Y-64846637D01*
X173786812Y-65078682D01*
X173763044Y-65320000D01*
X170406000Y-65320000D01*
X170406000Y-62780000D01*
X173763044Y-62780000D01*
X173786812Y-63021318D01*
X173857202Y-63253363D01*
X173971509Y-63467216D01*
X174125340Y-63654660D01*
X174312784Y-63808491D01*
X174526637Y-63922798D01*
X174758682Y-63993188D01*
X174939528Y-64011000D01*
X175060472Y-64011000D01*
X175241318Y-63993188D01*
X175473363Y-63922798D01*
X175687216Y-63808491D01*
X175874660Y-63654660D01*
X176028491Y-63467216D01*
X176142798Y-63253363D01*
X176213188Y-63021318D01*
X176236956Y-62780000D01*
X180749378Y-62780000D01*
X180773408Y-63023984D01*
X180844576Y-63258592D01*
X180960146Y-63474808D01*
X181115677Y-63664323D01*
X181305192Y-63819854D01*
X181521408Y-63935424D01*
X181756016Y-64006592D01*
X181938857Y-64024600D01*
X182061143Y-64024600D01*
X182243984Y-64006592D01*
X182478592Y-63935424D01*
X182694808Y-63819854D01*
X182884323Y-63664323D01*
X183039854Y-63474808D01*
X183155424Y-63258592D01*
X183226592Y-63023984D01*
X183250622Y-62780000D01*
X183226592Y-62536016D01*
X183155424Y-62301408D01*
X183039854Y-62085192D01*
X182884323Y-61895677D01*
X182694808Y-61740146D01*
X182478592Y-61624576D01*
X182243984Y-61553408D01*
X182061143Y-61535400D01*
X181938857Y-61535400D01*
X181756016Y-61553408D01*
X181521408Y-61624576D01*
X181305192Y-61740146D01*
X181115677Y-61895677D01*
X180960146Y-62085192D01*
X180844576Y-62301408D01*
X180773408Y-62536016D01*
X180749378Y-62780000D01*
X176236956Y-62780000D01*
X176213188Y-62538682D01*
X176142798Y-62306637D01*
X176028491Y-62092784D01*
X175874660Y-61905340D01*
X175687216Y-61751509D01*
X175473363Y-61637202D01*
X175241318Y-61566812D01*
X175060472Y-61549000D01*
X174939528Y-61549000D01*
X174758682Y-61566812D01*
X174526637Y-61637202D01*
X174312784Y-61751509D01*
X174125340Y-61905340D01*
X173971509Y-62092784D01*
X173857202Y-62306637D01*
X173786812Y-62538682D01*
X173763044Y-62780000D01*
X170406000Y-62780000D01*
X170406000Y-60240000D01*
X173763044Y-60240000D01*
X173786812Y-60481318D01*
X173857202Y-60713363D01*
X173971509Y-60927216D01*
X174125340Y-61114660D01*
X174312784Y-61268491D01*
X174526637Y-61382798D01*
X174758682Y-61453188D01*
X174939528Y-61471000D01*
X175060472Y-61471000D01*
X175241318Y-61453188D01*
X175473363Y-61382798D01*
X175687216Y-61268491D01*
X175874660Y-61114660D01*
X176028491Y-60927216D01*
X176142798Y-60713363D01*
X176213188Y-60481318D01*
X176236956Y-60240000D01*
X180749378Y-60240000D01*
X180773408Y-60483984D01*
X180844576Y-60718592D01*
X180960146Y-60934808D01*
X181115677Y-61124323D01*
X181305192Y-61279854D01*
X181521408Y-61395424D01*
X181756016Y-61466592D01*
X181938857Y-61484600D01*
X182061143Y-61484600D01*
X182243984Y-61466592D01*
X182478592Y-61395424D01*
X182694808Y-61279854D01*
X182884323Y-61124323D01*
X183039854Y-60934808D01*
X183155424Y-60718592D01*
X183226592Y-60483984D01*
X183250622Y-60240000D01*
X183226592Y-59996016D01*
X183155424Y-59761408D01*
X183039854Y-59545192D01*
X182884323Y-59355677D01*
X182694808Y-59200146D01*
X182478592Y-59084576D01*
X182243984Y-59013408D01*
X182061143Y-58995400D01*
X181938857Y-58995400D01*
X181756016Y-59013408D01*
X181521408Y-59084576D01*
X181305192Y-59200146D01*
X181115677Y-59355677D01*
X180960146Y-59545192D01*
X180844576Y-59761408D01*
X180773408Y-59996016D01*
X180749378Y-60240000D01*
X176236956Y-60240000D01*
X176213188Y-59998682D01*
X176142798Y-59766637D01*
X176028491Y-59552784D01*
X175874660Y-59365340D01*
X175687216Y-59211509D01*
X175473363Y-59097202D01*
X175241318Y-59026812D01*
X175060472Y-59009000D01*
X174939528Y-59009000D01*
X174758682Y-59026812D01*
X174526637Y-59097202D01*
X174312784Y-59211509D01*
X174125340Y-59365340D01*
X173971509Y-59552784D01*
X173857202Y-59766637D01*
X173786812Y-59998682D01*
X173763044Y-60240000D01*
X170406000Y-60240000D01*
X170406000Y-57700000D01*
X173763044Y-57700000D01*
X173786812Y-57941318D01*
X173857202Y-58173363D01*
X173971509Y-58387216D01*
X174125340Y-58574660D01*
X174312784Y-58728491D01*
X174526637Y-58842798D01*
X174758682Y-58913188D01*
X174939528Y-58931000D01*
X175060472Y-58931000D01*
X175241318Y-58913188D01*
X175473363Y-58842798D01*
X175687216Y-58728491D01*
X175874660Y-58574660D01*
X176028491Y-58387216D01*
X176142798Y-58173363D01*
X176213188Y-57941318D01*
X176236956Y-57700000D01*
X180749378Y-57700000D01*
X180773408Y-57943984D01*
X180844576Y-58178592D01*
X180960146Y-58394808D01*
X181115677Y-58584323D01*
X181305192Y-58739854D01*
X181521408Y-58855424D01*
X181756016Y-58926592D01*
X181938857Y-58944600D01*
X182061143Y-58944600D01*
X182243984Y-58926592D01*
X182478592Y-58855424D01*
X182694808Y-58739854D01*
X182884323Y-58584323D01*
X183039854Y-58394808D01*
X183155424Y-58178592D01*
X183226592Y-57943984D01*
X183250622Y-57700000D01*
X183226592Y-57456016D01*
X183155424Y-57221408D01*
X183039854Y-57005192D01*
X182884323Y-56815677D01*
X182694808Y-56660146D01*
X182478592Y-56544576D01*
X182243984Y-56473408D01*
X182061143Y-56455400D01*
X181938857Y-56455400D01*
X181756016Y-56473408D01*
X181521408Y-56544576D01*
X181305192Y-56660146D01*
X181115677Y-56815677D01*
X180960146Y-57005192D01*
X180844576Y-57221408D01*
X180773408Y-57456016D01*
X180749378Y-57700000D01*
X176236956Y-57700000D01*
X176213188Y-57458682D01*
X176142798Y-57226637D01*
X176028491Y-57012784D01*
X175874660Y-56825340D01*
X175687216Y-56671509D01*
X175473363Y-56557202D01*
X175241318Y-56486812D01*
X175060472Y-56469000D01*
X174939528Y-56469000D01*
X174758682Y-56486812D01*
X174526637Y-56557202D01*
X174312784Y-56671509D01*
X174125340Y-56825340D01*
X173971509Y-57012784D01*
X173857202Y-57226637D01*
X173786812Y-57458682D01*
X173763044Y-57700000D01*
X170406000Y-57700000D01*
X170406000Y-55160000D01*
X173763044Y-55160000D01*
X173786812Y-55401318D01*
X173857202Y-55633363D01*
X173971509Y-55847216D01*
X174125340Y-56034660D01*
X174312784Y-56188491D01*
X174526637Y-56302798D01*
X174758682Y-56373188D01*
X174939528Y-56391000D01*
X175060472Y-56391000D01*
X175241318Y-56373188D01*
X175473363Y-56302798D01*
X175687216Y-56188491D01*
X175874660Y-56034660D01*
X176028491Y-55847216D01*
X176142798Y-55633363D01*
X176213188Y-55401318D01*
X176236956Y-55160000D01*
X180749378Y-55160000D01*
X180773408Y-55403984D01*
X180844576Y-55638592D01*
X180960146Y-55854808D01*
X181115677Y-56044323D01*
X181305192Y-56199854D01*
X181521408Y-56315424D01*
X181756016Y-56386592D01*
X181938857Y-56404600D01*
X182061143Y-56404600D01*
X182243984Y-56386592D01*
X182478592Y-56315424D01*
X182694808Y-56199854D01*
X182884323Y-56044323D01*
X183039854Y-55854808D01*
X183155424Y-55638592D01*
X183226592Y-55403984D01*
X183250622Y-55160000D01*
X183226592Y-54916016D01*
X183155424Y-54681408D01*
X183039854Y-54465192D01*
X182884323Y-54275677D01*
X182694808Y-54120146D01*
X182478592Y-54004576D01*
X182243984Y-53933408D01*
X182061143Y-53915400D01*
X181938857Y-53915400D01*
X181756016Y-53933408D01*
X181521408Y-54004576D01*
X181305192Y-54120146D01*
X181115677Y-54275677D01*
X180960146Y-54465192D01*
X180844576Y-54681408D01*
X180773408Y-54916016D01*
X180749378Y-55160000D01*
X176236956Y-55160000D01*
X176213188Y-54918682D01*
X176142798Y-54686637D01*
X176028491Y-54472784D01*
X175874660Y-54285340D01*
X175687216Y-54131509D01*
X175473363Y-54017202D01*
X175241318Y-53946812D01*
X175060472Y-53929000D01*
X174939528Y-53929000D01*
X174758682Y-53946812D01*
X174526637Y-54017202D01*
X174312784Y-54131509D01*
X174125340Y-54285340D01*
X173971509Y-54472784D01*
X173857202Y-54686637D01*
X173786812Y-54918682D01*
X173763044Y-55160000D01*
X170406000Y-55160000D01*
X170406000Y-52620000D01*
X173763044Y-52620000D01*
X173786812Y-52861318D01*
X173857202Y-53093363D01*
X173971509Y-53307216D01*
X174125340Y-53494660D01*
X174312784Y-53648491D01*
X174526637Y-53762798D01*
X174758682Y-53833188D01*
X174939528Y-53851000D01*
X175060472Y-53851000D01*
X175241318Y-53833188D01*
X175473363Y-53762798D01*
X175687216Y-53648491D01*
X175874660Y-53494660D01*
X176028491Y-53307216D01*
X176142798Y-53093363D01*
X176213188Y-52861318D01*
X176236956Y-52620000D01*
X180749378Y-52620000D01*
X180773408Y-52863984D01*
X180844576Y-53098592D01*
X180960146Y-53314808D01*
X181115677Y-53504323D01*
X181305192Y-53659854D01*
X181521408Y-53775424D01*
X181756016Y-53846592D01*
X181938857Y-53864600D01*
X182061143Y-53864600D01*
X182243984Y-53846592D01*
X182478592Y-53775424D01*
X182694808Y-53659854D01*
X182884323Y-53504323D01*
X183039854Y-53314808D01*
X183155424Y-53098592D01*
X183226592Y-52863984D01*
X183250622Y-52620000D01*
X183226592Y-52376016D01*
X183155424Y-52141408D01*
X183039854Y-51925192D01*
X182884323Y-51735677D01*
X182694808Y-51580146D01*
X182478592Y-51464576D01*
X182243984Y-51393408D01*
X182061143Y-51375400D01*
X181938857Y-51375400D01*
X181756016Y-51393408D01*
X181521408Y-51464576D01*
X181305192Y-51580146D01*
X181115677Y-51735677D01*
X180960146Y-51925192D01*
X180844576Y-52141408D01*
X180773408Y-52376016D01*
X180749378Y-52620000D01*
X176236956Y-52620000D01*
X176213188Y-52378682D01*
X176142798Y-52146637D01*
X176028491Y-51932784D01*
X175874660Y-51745340D01*
X175687216Y-51591509D01*
X175473363Y-51477202D01*
X175241318Y-51406812D01*
X175060472Y-51389000D01*
X174939528Y-51389000D01*
X174758682Y-51406812D01*
X174526637Y-51477202D01*
X174312784Y-51591509D01*
X174125340Y-51745340D01*
X173971509Y-51932784D01*
X173857202Y-52146637D01*
X173786812Y-52378682D01*
X173763044Y-52620000D01*
X170406000Y-52620000D01*
X170406000Y-50080000D01*
X173763044Y-50080000D01*
X173786812Y-50321318D01*
X173857202Y-50553363D01*
X173971509Y-50767216D01*
X174125340Y-50954660D01*
X174312784Y-51108491D01*
X174526637Y-51222798D01*
X174758682Y-51293188D01*
X174939528Y-51311000D01*
X175060472Y-51311000D01*
X175241318Y-51293188D01*
X175473363Y-51222798D01*
X175687216Y-51108491D01*
X175874660Y-50954660D01*
X176028491Y-50767216D01*
X176142798Y-50553363D01*
X176213188Y-50321318D01*
X176236956Y-50080000D01*
X180749378Y-50080000D01*
X180773408Y-50323984D01*
X180844576Y-50558592D01*
X180960146Y-50774808D01*
X181115677Y-50964323D01*
X181305192Y-51119854D01*
X181521408Y-51235424D01*
X181756016Y-51306592D01*
X181938857Y-51324600D01*
X182061143Y-51324600D01*
X182243984Y-51306592D01*
X182478592Y-51235424D01*
X182694808Y-51119854D01*
X182884323Y-50964323D01*
X183039854Y-50774808D01*
X183155424Y-50558592D01*
X183226592Y-50323984D01*
X183250622Y-50080000D01*
X183245592Y-50028924D01*
X183247099Y-49960999D01*
X183256147Y-49860958D01*
X183271524Y-49767371D01*
X183292922Y-49679872D01*
X183320126Y-49597932D01*
X183353070Y-49520906D01*
X183391841Y-49448146D01*
X183424775Y-49397399D01*
X188402975Y-49397399D01*
X188427821Y-49399846D01*
X188452667Y-49397399D01*
X188452675Y-49397399D01*
X188527014Y-49390077D01*
X188622396Y-49361144D01*
X188710300Y-49314158D01*
X188787348Y-49250926D01*
X188803197Y-49231614D01*
X194262757Y-43772055D01*
X194301220Y-43775843D01*
X195501220Y-43775843D01*
X195624682Y-43763683D01*
X195743399Y-43727671D01*
X195852809Y-43669190D01*
X195948708Y-43590488D01*
X196027410Y-43494589D01*
X196085891Y-43385179D01*
X196121903Y-43266462D01*
X196134063Y-43143000D01*
X196134063Y-41693000D01*
X196121903Y-41569538D01*
X196085891Y-41450821D01*
X196027410Y-41341411D01*
X195948708Y-41245512D01*
X195852809Y-41166810D01*
X195743399Y-41108329D01*
X195624682Y-41072317D01*
X195501220Y-41060157D01*
X194301220Y-41060157D01*
X194177758Y-41072317D01*
X194059041Y-41108329D01*
X193949631Y-41166810D01*
X193853732Y-41245512D01*
X193775030Y-41341411D01*
X193716549Y-41450821D01*
X193680537Y-41569538D01*
X193668377Y-41693000D01*
X193668377Y-42609896D01*
X193667201Y-42652831D01*
X193661779Y-42745708D01*
X193654119Y-42825448D01*
X193644737Y-42891147D01*
X193634551Y-42941477D01*
X193625212Y-42974715D01*
X193622854Y-42980774D01*
X188218230Y-48385399D01*
X183213455Y-48385399D01*
X183188601Y-48382951D01*
X183163747Y-48385399D01*
X183089408Y-48392721D01*
X182994026Y-48421654D01*
X182906122Y-48468640D01*
X182829074Y-48531872D01*
X182819322Y-48543755D01*
X182767171Y-48591818D01*
X182701040Y-48643257D01*
X182631853Y-48688158D01*
X182559093Y-48726929D01*
X182482067Y-48759873D01*
X182400127Y-48787077D01*
X182312628Y-48808475D01*
X182219041Y-48823852D01*
X182118999Y-48832900D01*
X182006394Y-48835400D01*
X181938857Y-48835400D01*
X181756016Y-48853408D01*
X181521408Y-48924576D01*
X181305192Y-49040146D01*
X181115677Y-49195677D01*
X180960146Y-49385192D01*
X180844576Y-49601408D01*
X180773408Y-49836016D01*
X180749378Y-50080000D01*
X176236956Y-50080000D01*
X176213188Y-49838682D01*
X176142798Y-49606637D01*
X176028491Y-49392784D01*
X175874660Y-49205340D01*
X175687216Y-49051509D01*
X175473363Y-48937202D01*
X175241318Y-48866812D01*
X175060472Y-48849000D01*
X174939528Y-48849000D01*
X174758682Y-48866812D01*
X174526637Y-48937202D01*
X174312784Y-49051509D01*
X174125340Y-49205340D01*
X173971509Y-49392784D01*
X173857202Y-49606637D01*
X173786812Y-49838682D01*
X173763044Y-50080000D01*
X170406000Y-50080000D01*
X170406000Y-47540000D01*
X173763044Y-47540000D01*
X173786812Y-47781318D01*
X173857202Y-48013363D01*
X173971509Y-48227216D01*
X174125340Y-48414660D01*
X174312784Y-48568491D01*
X174526637Y-48682798D01*
X174758682Y-48753188D01*
X174939528Y-48771000D01*
X175060472Y-48771000D01*
X175241318Y-48753188D01*
X175473363Y-48682798D01*
X175687216Y-48568491D01*
X175874660Y-48414660D01*
X176028491Y-48227216D01*
X176142798Y-48013363D01*
X176213188Y-47781318D01*
X176236956Y-47540000D01*
X180749378Y-47540000D01*
X180773408Y-47783984D01*
X180844576Y-48018592D01*
X180960146Y-48234808D01*
X181115677Y-48424323D01*
X181305192Y-48579854D01*
X181521408Y-48695424D01*
X181756016Y-48766592D01*
X181938857Y-48784600D01*
X182061143Y-48784600D01*
X182243984Y-48766592D01*
X182478592Y-48695424D01*
X182694808Y-48579854D01*
X182884323Y-48424323D01*
X183039854Y-48234808D01*
X183155424Y-48018592D01*
X183226592Y-47783984D01*
X183250622Y-47540000D01*
X183226592Y-47296016D01*
X183155424Y-47061408D01*
X183039854Y-46845192D01*
X182884323Y-46655677D01*
X182694808Y-46500146D01*
X182478592Y-46384576D01*
X182243984Y-46313408D01*
X182061143Y-46295400D01*
X181938857Y-46295400D01*
X181756016Y-46313408D01*
X181521408Y-46384576D01*
X181305192Y-46500146D01*
X181115677Y-46655677D01*
X180960146Y-46845192D01*
X180844576Y-47061408D01*
X180773408Y-47296016D01*
X180749378Y-47540000D01*
X176236956Y-47540000D01*
X176213188Y-47298682D01*
X176142798Y-47066637D01*
X176028491Y-46852784D01*
X175874660Y-46665340D01*
X175687216Y-46511509D01*
X175473363Y-46397202D01*
X175241318Y-46326812D01*
X175060472Y-46309000D01*
X174939528Y-46309000D01*
X174758682Y-46326812D01*
X174526637Y-46397202D01*
X174312784Y-46511509D01*
X174125340Y-46665340D01*
X173971509Y-46852784D01*
X173857202Y-47066637D01*
X173786812Y-47298682D01*
X173763044Y-47540000D01*
X170406000Y-47540000D01*
X170406000Y-45000000D01*
X171223044Y-45000000D01*
X171246812Y-45241318D01*
X171317202Y-45473363D01*
X171431509Y-45687216D01*
X171585340Y-45874660D01*
X171772784Y-46028491D01*
X171986637Y-46142798D01*
X172218682Y-46213188D01*
X172399528Y-46231000D01*
X172520472Y-46231000D01*
X172701318Y-46213188D01*
X172933363Y-46142798D01*
X173147216Y-46028491D01*
X173334660Y-45874660D01*
X173488491Y-45687216D01*
X173602798Y-45473363D01*
X173673188Y-45241318D01*
X173696956Y-45000000D01*
X173673188Y-44758682D01*
X173602798Y-44526637D01*
X173488491Y-44312784D01*
X173354898Y-44150000D01*
X173767157Y-44150000D01*
X173767157Y-45850000D01*
X173774513Y-45924689D01*
X173796299Y-45996508D01*
X173831678Y-46062696D01*
X173879289Y-46120711D01*
X173937304Y-46168322D01*
X174003492Y-46203701D01*
X174075311Y-46225487D01*
X174150000Y-46232843D01*
X175850000Y-46232843D01*
X175924689Y-46225487D01*
X175996508Y-46203701D01*
X176062696Y-46168322D01*
X176120711Y-46120711D01*
X176168322Y-46062696D01*
X176203701Y-45996508D01*
X176225487Y-45924689D01*
X176232843Y-45850000D01*
X176232843Y-44150000D01*
X176231504Y-44136400D01*
X180753557Y-44136400D01*
X180753557Y-45863600D01*
X180760913Y-45938289D01*
X180782699Y-46010108D01*
X180818078Y-46076296D01*
X180865689Y-46134311D01*
X180923704Y-46181922D01*
X180989892Y-46217301D01*
X181061711Y-46239087D01*
X181136400Y-46246443D01*
X182863600Y-46246443D01*
X182938289Y-46239087D01*
X183010108Y-46217301D01*
X183076296Y-46181922D01*
X183134311Y-46134311D01*
X183181922Y-46076296D01*
X183217301Y-46010108D01*
X183239087Y-45938289D01*
X183246443Y-45863600D01*
X183246443Y-45000000D01*
X183289378Y-45000000D01*
X183313408Y-45243984D01*
X183384576Y-45478592D01*
X183500146Y-45694808D01*
X183655677Y-45884323D01*
X183845192Y-46039854D01*
X184061408Y-46155424D01*
X184296016Y-46226592D01*
X184478857Y-46244600D01*
X184601143Y-46244600D01*
X184783984Y-46226592D01*
X185018592Y-46155424D01*
X185234808Y-46039854D01*
X185424323Y-45884323D01*
X185579854Y-45694808D01*
X185695424Y-45478592D01*
X185766592Y-45243984D01*
X185790622Y-45000000D01*
X185766592Y-44756016D01*
X185695424Y-44521408D01*
X185579854Y-44305192D01*
X185424323Y-44115677D01*
X185234808Y-43960146D01*
X185018592Y-43844576D01*
X184783984Y-43773408D01*
X184601143Y-43755400D01*
X184478857Y-43755400D01*
X184296016Y-43773408D01*
X184061408Y-43844576D01*
X183845192Y-43960146D01*
X183655677Y-44115677D01*
X183500146Y-44305192D01*
X183384576Y-44521408D01*
X183313408Y-44756016D01*
X183289378Y-45000000D01*
X183246443Y-45000000D01*
X183246443Y-44136400D01*
X183239087Y-44061711D01*
X183217301Y-43989892D01*
X183181922Y-43923704D01*
X183134311Y-43865689D01*
X183076296Y-43818078D01*
X183010108Y-43782699D01*
X182938289Y-43760913D01*
X182863600Y-43753557D01*
X181136400Y-43753557D01*
X181061711Y-43760913D01*
X180989892Y-43782699D01*
X180923704Y-43818078D01*
X180865689Y-43865689D01*
X180818078Y-43923704D01*
X180782699Y-43989892D01*
X180760913Y-44061711D01*
X180753557Y-44136400D01*
X176231504Y-44136400D01*
X176225487Y-44075311D01*
X176203701Y-44003492D01*
X176168322Y-43937304D01*
X176120711Y-43879289D01*
X176062696Y-43831678D01*
X175996508Y-43796299D01*
X175924689Y-43774513D01*
X175850000Y-43767157D01*
X174150000Y-43767157D01*
X174075311Y-43774513D01*
X174003492Y-43796299D01*
X173937304Y-43831678D01*
X173879289Y-43879289D01*
X173831678Y-43937304D01*
X173796299Y-44003492D01*
X173774513Y-44075311D01*
X173767157Y-44150000D01*
X173354898Y-44150000D01*
X173334660Y-44125340D01*
X173147216Y-43971509D01*
X172933363Y-43857202D01*
X172701318Y-43786812D01*
X172520472Y-43769000D01*
X172399528Y-43769000D01*
X172218682Y-43786812D01*
X171986637Y-43857202D01*
X171772784Y-43971509D01*
X171585340Y-44125340D01*
X171431509Y-44312784D01*
X171317202Y-44526637D01*
X171246812Y-44758682D01*
X171223044Y-45000000D01*
X170406000Y-45000000D01*
X170406000Y-37871000D01*
X229594000Y-37871000D01*
X229594001Y-75159000D01*
D25*
X207465000Y-46247000D03*
X202479000Y-61595000D03*
X199979000Y-61595000D03*
X197479000Y-61595000D03*
X194979000Y-61595000D03*
X192479000Y-61595000D03*
X218608000Y-61595000D03*
X216108000Y-61595000D03*
X213608000Y-61595000D03*
X211108000Y-61595000D03*
X208608000Y-61595000D03*
X172460000Y-67860000D03*
X175000000Y-67860000D03*
X172460000Y-65320000D03*
X175000000Y-65320000D03*
X172460000Y-62780000D03*
X175000000Y-62780000D03*
X172460000Y-60240000D03*
X175000000Y-60240000D03*
X172460000Y-57700000D03*
X175000000Y-57700000D03*
X172460000Y-55160000D03*
X175000000Y-55160000D03*
X172460000Y-52620000D03*
X175000000Y-52620000D03*
X172460000Y-50080000D03*
X175000000Y-50080000D03*
X172460000Y-47540000D03*
X175000000Y-47540000D03*
X172460000Y-45000000D03*
X175000000Y-45000000D03*
X184540000Y-67860000D03*
X182000000Y-67860000D03*
X184540000Y-65320000D03*
X182000000Y-65320000D03*
X184540000Y-62780000D03*
X182000000Y-62780000D03*
X184540000Y-60240000D03*
X182000000Y-60240000D03*
X184540000Y-57700000D03*
X182000000Y-57700000D03*
X184540000Y-55160000D03*
X182000000Y-55160000D03*
X184540000Y-52620000D03*
X182000000Y-52620000D03*
X184540000Y-50080000D03*
X182000000Y-50080000D03*
X184540000Y-47540000D03*
X182000000Y-47540000D03*
X184540000Y-45000000D03*
X182000000Y-45000000D03*
X214772440Y-42418000D03*
X212272440Y-42418000D03*
X209772440Y-42418000D03*
X199901220Y-42418000D03*
X197401220Y-42418000D03*
X194901220Y-42418000D03*
X225903000Y-43809000D03*
X225903000Y-68809000D03*
X227323000Y-52154000D03*
X227323000Y-54924000D03*
X227323000Y-57694000D03*
X227323000Y-60464000D03*
X224483000Y-50769000D03*
X224483000Y-53539000D03*
X224483000Y-56309000D03*
X224483000Y-59079000D03*
X224483000Y-61849000D03*
X204067887Y-69342000D03*
X201567887Y-69342000D03*
X199067887Y-69342000D03*
X196567887Y-69342000D03*
X194067887Y-69342000D03*
X191567887Y-69342000D03*
X218105774Y-69342000D03*
X215605774Y-69342000D03*
X213105774Y-69342000D03*
X210605774Y-69342000D03*
M02*
