%TF.GenerationSoftware,KiCad,Pcbnew,(5.1.4)-1*%
%TF.CreationDate,2019-11-11T10:46:24+08:00*%
%TF.ProjectId,jlink_vcom_to_rs232_adapter_plate,6a6c696e-6b5f-4766-936f-6d5f746f5f72,rev?*%
%TF.SameCoordinates,Original*%
%TF.FileFunction,Legend,Bot*%
%TF.FilePolarity,Positive*%
%FSLAX46Y46*%
G04 Gerber Fmt 4.6, Leading zero omitted, Abs format (unit mm)*
G04 Created by KiCad (PCBNEW (5.1.4)-1) date 2019-11-11 10:46:24*
%MOMM*%
%LPD*%
G04 APERTURE LIST*
%ADD10C,0.150000*%
G04 APERTURE END LIST*
D10*
X176643904Y-45632619D02*
X176977238Y-44632619D01*
X177310571Y-45632619D01*
X177501047Y-45632619D02*
X178072476Y-45632619D01*
X177786761Y-44632619D02*
X177786761Y-45632619D01*
X178405809Y-44632619D02*
X178405809Y-45299285D01*
X178405809Y-45108809D02*
X178453428Y-45204047D01*
X178501047Y-45251666D01*
X178596285Y-45299285D01*
X178691523Y-45299285D01*
X179405809Y-44680238D02*
X179310571Y-44632619D01*
X179120095Y-44632619D01*
X179024857Y-44680238D01*
X178977238Y-44775476D01*
X178977238Y-45156428D01*
X179024857Y-45251666D01*
X179120095Y-45299285D01*
X179310571Y-45299285D01*
X179405809Y-45251666D01*
X179453428Y-45156428D01*
X179453428Y-45061190D01*
X178977238Y-44965952D01*
X179739142Y-45299285D02*
X180120095Y-45299285D01*
X179882000Y-44632619D02*
X179882000Y-45489761D01*
X179929619Y-45585000D01*
X180024857Y-45632619D01*
X180120095Y-45632619D01*
X176455019Y-47844929D02*
X176455019Y-47178263D01*
X176455019Y-47749691D02*
X176502638Y-47797310D01*
X176597876Y-47844929D01*
X176740733Y-47844929D01*
X176835971Y-47797310D01*
X176883590Y-47702072D01*
X176883590Y-47178263D01*
X177216923Y-48178263D02*
X177788352Y-48178263D01*
X177502638Y-47178263D02*
X177502638Y-48178263D01*
X178693114Y-47178263D02*
X178359780Y-47654453D01*
X178121685Y-47178263D02*
X178121685Y-48178263D01*
X178502638Y-48178263D01*
X178597876Y-48130644D01*
X178645495Y-48083024D01*
X178693114Y-47987786D01*
X178693114Y-47844929D01*
X178645495Y-47749691D01*
X178597876Y-47702072D01*
X178502638Y-47654453D01*
X178121685Y-47654453D01*
X179074066Y-47225882D02*
X179216923Y-47178263D01*
X179455019Y-47178263D01*
X179550257Y-47225882D01*
X179597876Y-47273501D01*
X179645495Y-47368739D01*
X179645495Y-47463977D01*
X179597876Y-47559215D01*
X179550257Y-47606834D01*
X179455019Y-47654453D01*
X179264542Y-47702072D01*
X179169304Y-47749691D01*
X179121685Y-47797310D01*
X179074066Y-47892548D01*
X179074066Y-47987786D01*
X179121685Y-48083024D01*
X179169304Y-48130644D01*
X179264542Y-48178263D01*
X179502638Y-48178263D01*
X179645495Y-48130644D01*
X179931209Y-48178263D02*
X180502638Y-48178263D01*
X180216923Y-47178263D02*
X180216923Y-48178263D01*
X177510590Y-50723907D02*
X178082019Y-50723907D01*
X177796304Y-49723907D02*
X177796304Y-50723907D01*
X178415352Y-49723907D02*
X178415352Y-50723907D01*
X178653447Y-50723907D01*
X178796304Y-50676288D01*
X178891542Y-50581049D01*
X178939161Y-50485811D01*
X178986780Y-50295335D01*
X178986780Y-50152478D01*
X178939161Y-49962002D01*
X178891542Y-49866764D01*
X178796304Y-49771526D01*
X178653447Y-49723907D01*
X178415352Y-49723907D01*
X179415352Y-49723907D02*
X179415352Y-50723907D01*
X177302666Y-53269551D02*
X177874095Y-53269551D01*
X177588380Y-52269551D02*
X177588380Y-53269551D01*
X178207428Y-52269551D02*
X178207428Y-53269551D01*
X178540761Y-52555265D01*
X178874095Y-53269551D01*
X178874095Y-52269551D01*
X179302666Y-52317170D02*
X179445523Y-52269551D01*
X179683619Y-52269551D01*
X179778857Y-52317170D01*
X179826476Y-52364789D01*
X179874095Y-52460027D01*
X179874095Y-52555265D01*
X179826476Y-52650503D01*
X179778857Y-52698122D01*
X179683619Y-52745741D01*
X179493142Y-52793360D01*
X179397904Y-52840979D01*
X179350285Y-52888598D01*
X179302666Y-52983836D01*
X179302666Y-53079074D01*
X179350285Y-53174312D01*
X179397904Y-53221932D01*
X179493142Y-53269551D01*
X179731238Y-53269551D01*
X179874095Y-53221932D01*
X177451885Y-55815195D02*
X178023314Y-55815195D01*
X177737600Y-54815195D02*
X177737600Y-55815195D01*
X178928076Y-54910433D02*
X178880457Y-54862814D01*
X178737600Y-54815195D01*
X178642361Y-54815195D01*
X178499504Y-54862814D01*
X178404266Y-54958052D01*
X178356647Y-55053290D01*
X178309028Y-55243766D01*
X178309028Y-55386623D01*
X178356647Y-55577099D01*
X178404266Y-55672337D01*
X178499504Y-55767576D01*
X178642361Y-55815195D01*
X178737600Y-55815195D01*
X178880457Y-55767576D01*
X178928076Y-55719956D01*
X179356647Y-54815195D02*
X179356647Y-55815195D01*
X179928076Y-54815195D02*
X179499504Y-55386623D01*
X179928076Y-55815195D02*
X179356647Y-55243766D01*
X177564571Y-57360839D02*
X177231238Y-57837029D01*
X176993142Y-57360839D02*
X176993142Y-58360839D01*
X177374095Y-58360839D01*
X177469333Y-58313220D01*
X177516952Y-58265600D01*
X177564571Y-58170362D01*
X177564571Y-58027505D01*
X177516952Y-57932267D01*
X177469333Y-57884648D01*
X177374095Y-57837029D01*
X176993142Y-57837029D01*
X177850285Y-58360839D02*
X178421714Y-58360839D01*
X178136000Y-57360839D02*
X178136000Y-58360839D01*
X179326476Y-57456077D02*
X179278857Y-57408458D01*
X179136000Y-57360839D01*
X179040761Y-57360839D01*
X178897904Y-57408458D01*
X178802666Y-57503696D01*
X178755047Y-57598934D01*
X178707428Y-57789410D01*
X178707428Y-57932267D01*
X178755047Y-58122743D01*
X178802666Y-58217981D01*
X178897904Y-58313220D01*
X179040761Y-58360839D01*
X179136000Y-58360839D01*
X179278857Y-58313220D01*
X179326476Y-58265600D01*
X179755047Y-57360839D02*
X179755047Y-58360839D01*
X180326476Y-57360839D02*
X179897904Y-57932267D01*
X180326476Y-58360839D02*
X179755047Y-57789410D01*
X177428076Y-60906483D02*
X177999504Y-60906483D01*
X177713790Y-59906483D02*
X177713790Y-60906483D01*
X178332838Y-59906483D02*
X178332838Y-60906483D01*
X178570933Y-60906483D01*
X178713790Y-60858864D01*
X178809028Y-60763625D01*
X178856647Y-60668387D01*
X178904266Y-60477911D01*
X178904266Y-60335054D01*
X178856647Y-60144578D01*
X178809028Y-60049340D01*
X178713790Y-59954102D01*
X178570933Y-59906483D01*
X178332838Y-59906483D01*
X179523314Y-60906483D02*
X179713790Y-60906483D01*
X179809028Y-60858864D01*
X179904266Y-60763625D01*
X179951885Y-60573149D01*
X179951885Y-60239816D01*
X179904266Y-60049340D01*
X179809028Y-59954102D01*
X179713790Y-59906483D01*
X179523314Y-59906483D01*
X179428076Y-59954102D01*
X179332838Y-60049340D01*
X179285219Y-60239816D01*
X179285219Y-60573149D01*
X179332838Y-60763625D01*
X179428076Y-60858864D01*
X179523314Y-60906483D01*
X177013771Y-63118793D02*
X177013771Y-62452127D01*
X177013771Y-63023555D02*
X177061390Y-63071174D01*
X177156628Y-63118793D01*
X177299485Y-63118793D01*
X177394723Y-63071174D01*
X177442342Y-62975936D01*
X177442342Y-62452127D01*
X178489961Y-62452127D02*
X178156628Y-62928317D01*
X177918533Y-62452127D02*
X177918533Y-63452127D01*
X178299485Y-63452127D01*
X178394723Y-63404508D01*
X178442342Y-63356888D01*
X178489961Y-63261650D01*
X178489961Y-63118793D01*
X178442342Y-63023555D01*
X178394723Y-62975936D01*
X178299485Y-62928317D01*
X177918533Y-62928317D01*
X178870914Y-62499746D02*
X179013771Y-62452127D01*
X179251866Y-62452127D01*
X179347104Y-62499746D01*
X179394723Y-62547365D01*
X179442342Y-62642603D01*
X179442342Y-62737841D01*
X179394723Y-62833079D01*
X179347104Y-62880698D01*
X179251866Y-62928317D01*
X179061390Y-62975936D01*
X178966152Y-63023555D01*
X178918533Y-63071174D01*
X178870914Y-63166412D01*
X178870914Y-63261650D01*
X178918533Y-63356888D01*
X178966152Y-63404508D01*
X179061390Y-63452127D01*
X179299485Y-63452127D01*
X179442342Y-63404508D01*
X179728057Y-63452127D02*
X180299485Y-63452127D01*
X180013771Y-62452127D02*
X180013771Y-63452127D01*
X176223285Y-65028819D02*
X176223285Y-66028819D01*
X176461380Y-66028819D01*
X176604238Y-65981200D01*
X176699476Y-65885961D01*
X176747095Y-65790723D01*
X176794714Y-65600247D01*
X176794714Y-65457390D01*
X176747095Y-65266914D01*
X176699476Y-65171676D01*
X176604238Y-65076438D01*
X176461380Y-65028819D01*
X176223285Y-65028819D01*
X177556619Y-65552628D02*
X177699476Y-65505009D01*
X177747095Y-65457390D01*
X177794714Y-65362152D01*
X177794714Y-65219295D01*
X177747095Y-65124057D01*
X177699476Y-65076438D01*
X177604238Y-65028819D01*
X177223285Y-65028819D01*
X177223285Y-66028819D01*
X177556619Y-66028819D01*
X177651857Y-65981200D01*
X177699476Y-65933580D01*
X177747095Y-65838342D01*
X177747095Y-65743104D01*
X177699476Y-65647866D01*
X177651857Y-65600247D01*
X177556619Y-65552628D01*
X177223285Y-65552628D01*
X178747095Y-65981200D02*
X178651857Y-66028819D01*
X178509000Y-66028819D01*
X178366142Y-65981200D01*
X178270904Y-65885961D01*
X178223285Y-65790723D01*
X178175666Y-65600247D01*
X178175666Y-65457390D01*
X178223285Y-65266914D01*
X178270904Y-65171676D01*
X178366142Y-65076438D01*
X178509000Y-65028819D01*
X178604238Y-65028819D01*
X178747095Y-65076438D01*
X178794714Y-65124057D01*
X178794714Y-65457390D01*
X178604238Y-65457390D01*
X179794714Y-65028819D02*
X179461380Y-65505009D01*
X179223285Y-65028819D02*
X179223285Y-66028819D01*
X179604238Y-66028819D01*
X179699476Y-65981200D01*
X179747095Y-65933580D01*
X179794714Y-65838342D01*
X179794714Y-65695485D01*
X179747095Y-65600247D01*
X179699476Y-65552628D01*
X179604238Y-65505009D01*
X179223285Y-65505009D01*
X180889952Y-64933580D02*
X180794714Y-64981200D01*
X180699476Y-65076438D01*
X180556619Y-65219295D01*
X180461380Y-65266914D01*
X180366142Y-65266914D01*
X180413761Y-65028819D02*
X180318523Y-65076438D01*
X180223285Y-65171676D01*
X180175666Y-65362152D01*
X180175666Y-65695485D01*
X180223285Y-65885961D01*
X180318523Y-65981200D01*
X180413761Y-66028819D01*
X180604238Y-66028819D01*
X180699476Y-65981200D01*
X180794714Y-65885961D01*
X180842333Y-65695485D01*
X180842333Y-65362152D01*
X180794714Y-65171676D01*
X180699476Y-65076438D01*
X180604238Y-65028819D01*
X180413761Y-65028819D01*
X178623323Y-68543419D02*
X178147133Y-68543419D01*
X178099514Y-68067228D01*
X178147133Y-68114847D01*
X178242371Y-68162466D01*
X178480466Y-68162466D01*
X178575704Y-68114847D01*
X178623323Y-68067228D01*
X178670942Y-67971990D01*
X178670942Y-67733895D01*
X178623323Y-67638657D01*
X178575704Y-67591038D01*
X178480466Y-67543419D01*
X178242371Y-67543419D01*
X178147133Y-67591038D01*
X178099514Y-67638657D01*
X178956657Y-68543419D02*
X179289990Y-67543419D01*
X179623323Y-68543419D01*
X187011685Y-44573019D02*
X187011685Y-45573019D01*
X187583114Y-44573019D01*
X187583114Y-45573019D01*
X188630733Y-44668257D02*
X188583114Y-44620638D01*
X188440257Y-44573019D01*
X188345019Y-44573019D01*
X188202161Y-44620638D01*
X188106923Y-44715876D01*
X188059304Y-44811114D01*
X188011685Y-45001590D01*
X188011685Y-45144447D01*
X188059304Y-45334923D01*
X188106923Y-45430161D01*
X188202161Y-45525400D01*
X188345019Y-45573019D01*
X188440257Y-45573019D01*
X188583114Y-45525400D01*
X188630733Y-45477780D01*
X186535495Y-48062577D02*
X186440257Y-48110196D01*
X186297400Y-48110196D01*
X186154542Y-48062577D01*
X186059304Y-47967338D01*
X186011685Y-47872100D01*
X185964066Y-47681624D01*
X185964066Y-47538767D01*
X186011685Y-47348291D01*
X186059304Y-47253053D01*
X186154542Y-47157815D01*
X186297400Y-47110196D01*
X186392638Y-47110196D01*
X186535495Y-47157815D01*
X186583114Y-47205434D01*
X186583114Y-47538767D01*
X186392638Y-47538767D01*
X187011685Y-47110196D02*
X187011685Y-48110196D01*
X187583114Y-47110196D01*
X187583114Y-48110196D01*
X188059304Y-47110196D02*
X188059304Y-48110196D01*
X188297400Y-48110196D01*
X188440257Y-48062577D01*
X188535495Y-47967338D01*
X188583114Y-47872100D01*
X188630733Y-47681624D01*
X188630733Y-47538767D01*
X188583114Y-47348291D01*
X188535495Y-47253053D01*
X188440257Y-47157815D01*
X188297400Y-47110196D01*
X188059304Y-47110196D01*
X186535495Y-50599754D02*
X186440257Y-50647373D01*
X186297400Y-50647373D01*
X186154542Y-50599754D01*
X186059304Y-50504515D01*
X186011685Y-50409277D01*
X185964066Y-50218801D01*
X185964066Y-50075944D01*
X186011685Y-49885468D01*
X186059304Y-49790230D01*
X186154542Y-49694992D01*
X186297400Y-49647373D01*
X186392638Y-49647373D01*
X186535495Y-49694992D01*
X186583114Y-49742611D01*
X186583114Y-50075944D01*
X186392638Y-50075944D01*
X187011685Y-49647373D02*
X187011685Y-50647373D01*
X187583114Y-49647373D01*
X187583114Y-50647373D01*
X188059304Y-49647373D02*
X188059304Y-50647373D01*
X188297400Y-50647373D01*
X188440257Y-50599754D01*
X188535495Y-50504515D01*
X188583114Y-50409277D01*
X188630733Y-50218801D01*
X188630733Y-50075944D01*
X188583114Y-49885468D01*
X188535495Y-49790230D01*
X188440257Y-49694992D01*
X188297400Y-49647373D01*
X188059304Y-49647373D01*
X186535495Y-53136931D02*
X186440257Y-53184550D01*
X186297400Y-53184550D01*
X186154542Y-53136931D01*
X186059304Y-53041692D01*
X186011685Y-52946454D01*
X185964066Y-52755978D01*
X185964066Y-52613121D01*
X186011685Y-52422645D01*
X186059304Y-52327407D01*
X186154542Y-52232169D01*
X186297400Y-52184550D01*
X186392638Y-52184550D01*
X186535495Y-52232169D01*
X186583114Y-52279788D01*
X186583114Y-52613121D01*
X186392638Y-52613121D01*
X187011685Y-52184550D02*
X187011685Y-53184550D01*
X187583114Y-52184550D01*
X187583114Y-53184550D01*
X188059304Y-52184550D02*
X188059304Y-53184550D01*
X188297400Y-53184550D01*
X188440257Y-53136931D01*
X188535495Y-53041692D01*
X188583114Y-52946454D01*
X188630733Y-52755978D01*
X188630733Y-52613121D01*
X188583114Y-52422645D01*
X188535495Y-52327407D01*
X188440257Y-52232169D01*
X188297400Y-52184550D01*
X188059304Y-52184550D01*
X186535495Y-55674108D02*
X186440257Y-55721727D01*
X186297400Y-55721727D01*
X186154542Y-55674108D01*
X186059304Y-55578869D01*
X186011685Y-55483631D01*
X185964066Y-55293155D01*
X185964066Y-55150298D01*
X186011685Y-54959822D01*
X186059304Y-54864584D01*
X186154542Y-54769346D01*
X186297400Y-54721727D01*
X186392638Y-54721727D01*
X186535495Y-54769346D01*
X186583114Y-54816965D01*
X186583114Y-55150298D01*
X186392638Y-55150298D01*
X187011685Y-54721727D02*
X187011685Y-55721727D01*
X187583114Y-54721727D01*
X187583114Y-55721727D01*
X188059304Y-54721727D02*
X188059304Y-55721727D01*
X188297400Y-55721727D01*
X188440257Y-55674108D01*
X188535495Y-55578869D01*
X188583114Y-55483631D01*
X188630733Y-55293155D01*
X188630733Y-55150298D01*
X188583114Y-54959822D01*
X188535495Y-54864584D01*
X188440257Y-54769346D01*
X188297400Y-54721727D01*
X188059304Y-54721727D01*
X186535495Y-58211285D02*
X186440257Y-58258904D01*
X186297400Y-58258904D01*
X186154542Y-58211285D01*
X186059304Y-58116046D01*
X186011685Y-58020808D01*
X185964066Y-57830332D01*
X185964066Y-57687475D01*
X186011685Y-57496999D01*
X186059304Y-57401761D01*
X186154542Y-57306523D01*
X186297400Y-57258904D01*
X186392638Y-57258904D01*
X186535495Y-57306523D01*
X186583114Y-57354142D01*
X186583114Y-57687475D01*
X186392638Y-57687475D01*
X187011685Y-57258904D02*
X187011685Y-58258904D01*
X187583114Y-57258904D01*
X187583114Y-58258904D01*
X188059304Y-57258904D02*
X188059304Y-58258904D01*
X188297400Y-58258904D01*
X188440257Y-58211285D01*
X188535495Y-58116046D01*
X188583114Y-58020808D01*
X188630733Y-57830332D01*
X188630733Y-57687475D01*
X188583114Y-57496999D01*
X188535495Y-57401761D01*
X188440257Y-57306523D01*
X188297400Y-57258904D01*
X188059304Y-57258904D01*
X186535495Y-60748462D02*
X186440257Y-60796081D01*
X186297400Y-60796081D01*
X186154542Y-60748462D01*
X186059304Y-60653223D01*
X186011685Y-60557985D01*
X185964066Y-60367509D01*
X185964066Y-60224652D01*
X186011685Y-60034176D01*
X186059304Y-59938938D01*
X186154542Y-59843700D01*
X186297400Y-59796081D01*
X186392638Y-59796081D01*
X186535495Y-59843700D01*
X186583114Y-59891319D01*
X186583114Y-60224652D01*
X186392638Y-60224652D01*
X187011685Y-59796081D02*
X187011685Y-60796081D01*
X187583114Y-59796081D01*
X187583114Y-60796081D01*
X188059304Y-59796081D02*
X188059304Y-60796081D01*
X188297400Y-60796081D01*
X188440257Y-60748462D01*
X188535495Y-60653223D01*
X188583114Y-60557985D01*
X188630733Y-60367509D01*
X188630733Y-60224652D01*
X188583114Y-60034176D01*
X188535495Y-59938938D01*
X188440257Y-59843700D01*
X188297400Y-59796081D01*
X188059304Y-59796081D01*
X186535495Y-63285639D02*
X186440257Y-63333258D01*
X186297400Y-63333258D01*
X186154542Y-63285639D01*
X186059304Y-63190400D01*
X186011685Y-63095162D01*
X185964066Y-62904686D01*
X185964066Y-62761829D01*
X186011685Y-62571353D01*
X186059304Y-62476115D01*
X186154542Y-62380877D01*
X186297400Y-62333258D01*
X186392638Y-62333258D01*
X186535495Y-62380877D01*
X186583114Y-62428496D01*
X186583114Y-62761829D01*
X186392638Y-62761829D01*
X187011685Y-62333258D02*
X187011685Y-63333258D01*
X187583114Y-62333258D01*
X187583114Y-63333258D01*
X188059304Y-62333258D02*
X188059304Y-63333258D01*
X188297400Y-63333258D01*
X188440257Y-63285639D01*
X188535495Y-63190400D01*
X188583114Y-63095162D01*
X188630733Y-62904686D01*
X188630733Y-62761829D01*
X188583114Y-62571353D01*
X188535495Y-62476115D01*
X188440257Y-62380877D01*
X188297400Y-62333258D01*
X188059304Y-62333258D01*
X186535495Y-65822816D02*
X186440257Y-65870435D01*
X186297400Y-65870435D01*
X186154542Y-65822816D01*
X186059304Y-65727577D01*
X186011685Y-65632339D01*
X185964066Y-65441863D01*
X185964066Y-65299006D01*
X186011685Y-65108530D01*
X186059304Y-65013292D01*
X186154542Y-64918054D01*
X186297400Y-64870435D01*
X186392638Y-64870435D01*
X186535495Y-64918054D01*
X186583114Y-64965673D01*
X186583114Y-65299006D01*
X186392638Y-65299006D01*
X187011685Y-64870435D02*
X187011685Y-65870435D01*
X187583114Y-64870435D01*
X187583114Y-65870435D01*
X188059304Y-64870435D02*
X188059304Y-65870435D01*
X188297400Y-65870435D01*
X188440257Y-65822816D01*
X188535495Y-65727577D01*
X188583114Y-65632339D01*
X188630733Y-65441863D01*
X188630733Y-65299006D01*
X188583114Y-65108530D01*
X188535495Y-65013292D01*
X188440257Y-64918054D01*
X188297400Y-64870435D01*
X188059304Y-64870435D01*
X186535495Y-68360000D02*
X186440257Y-68407619D01*
X186297400Y-68407619D01*
X186154542Y-68360000D01*
X186059304Y-68264761D01*
X186011685Y-68169523D01*
X185964066Y-67979047D01*
X185964066Y-67836190D01*
X186011685Y-67645714D01*
X186059304Y-67550476D01*
X186154542Y-67455238D01*
X186297400Y-67407619D01*
X186392638Y-67407619D01*
X186535495Y-67455238D01*
X186583114Y-67502857D01*
X186583114Y-67836190D01*
X186392638Y-67836190D01*
X187011685Y-67407619D02*
X187011685Y-68407619D01*
X187583114Y-67407619D01*
X187583114Y-68407619D01*
X188059304Y-67407619D02*
X188059304Y-68407619D01*
X188297400Y-68407619D01*
X188440257Y-68360000D01*
X188535495Y-68264761D01*
X188583114Y-68169523D01*
X188630733Y-67979047D01*
X188630733Y-67836190D01*
X188583114Y-67645714D01*
X188535495Y-67550476D01*
X188440257Y-67455238D01*
X188297400Y-67407619D01*
X188059304Y-67407619D01*
X174299961Y-40838380D02*
X174347580Y-40886000D01*
X174442819Y-40933619D01*
X174680914Y-40933619D01*
X174776152Y-40886000D01*
X174823771Y-40838380D01*
X174871390Y-40743142D01*
X174871390Y-40647904D01*
X174823771Y-40505047D01*
X174252342Y-39933619D01*
X174871390Y-39933619D01*
X175490438Y-40933619D02*
X175585676Y-40933619D01*
X175680914Y-40886000D01*
X175728533Y-40838380D01*
X175776152Y-40743142D01*
X175823771Y-40552666D01*
X175823771Y-40314571D01*
X175776152Y-40124095D01*
X175728533Y-40028857D01*
X175680914Y-39981238D01*
X175585676Y-39933619D01*
X175490438Y-39933619D01*
X175395200Y-39981238D01*
X175347580Y-40028857D01*
X175299961Y-40124095D01*
X175252342Y-40314571D01*
X175252342Y-40552666D01*
X175299961Y-40743142D01*
X175347580Y-40838380D01*
X175395200Y-40886000D01*
X175490438Y-40933619D01*
X176776152Y-39933619D02*
X176204723Y-39933619D01*
X176490438Y-39933619D02*
X176490438Y-40933619D01*
X176395200Y-40790761D01*
X176299961Y-40695523D01*
X176204723Y-40647904D01*
X177252342Y-39933619D02*
X177442819Y-39933619D01*
X177538057Y-39981238D01*
X177585676Y-40028857D01*
X177680914Y-40171714D01*
X177728533Y-40362190D01*
X177728533Y-40743142D01*
X177680914Y-40838380D01*
X177633295Y-40886000D01*
X177538057Y-40933619D01*
X177347580Y-40933619D01*
X177252342Y-40886000D01*
X177204723Y-40838380D01*
X177157104Y-40743142D01*
X177157104Y-40505047D01*
X177204723Y-40409809D01*
X177252342Y-40362190D01*
X177347580Y-40314571D01*
X177538057Y-40314571D01*
X177633295Y-40362190D01*
X177680914Y-40409809D01*
X177728533Y-40505047D01*
X178157104Y-40314571D02*
X178919009Y-40314571D01*
X179919009Y-39933619D02*
X179347580Y-39933619D01*
X179633295Y-39933619D02*
X179633295Y-40933619D01*
X179538057Y-40790761D01*
X179442819Y-40695523D01*
X179347580Y-40647904D01*
X180871390Y-39933619D02*
X180299961Y-39933619D01*
X180585676Y-39933619D02*
X180585676Y-40933619D01*
X180490438Y-40790761D01*
X180395200Y-40695523D01*
X180299961Y-40647904D01*
X181299961Y-40314571D02*
X182061866Y-40314571D01*
X182442819Y-40933619D02*
X183109485Y-40933619D01*
X182680914Y-39933619D01*
X184776152Y-39933619D02*
X184204723Y-39933619D01*
X184490438Y-39933619D02*
X184490438Y-40933619D01*
X184395200Y-40790761D01*
X184299961Y-40695523D01*
X184204723Y-40647904D01*
X185109485Y-40933619D02*
X185776152Y-40933619D01*
X185347580Y-39933619D01*
X186157104Y-40028857D02*
X186204723Y-39981238D01*
X186157104Y-39933619D01*
X186109485Y-39981238D01*
X186157104Y-40028857D01*
X186157104Y-39933619D01*
X186157104Y-40552666D02*
X186204723Y-40505047D01*
X186157104Y-40457428D01*
X186109485Y-40505047D01*
X186157104Y-40552666D01*
X186157104Y-40457428D01*
X187157104Y-39933619D02*
X186585676Y-39933619D01*
X186871390Y-39933619D02*
X186871390Y-40933619D01*
X186776152Y-40790761D01*
X186680914Y-40695523D01*
X186585676Y-40647904D01*
X187728533Y-40505047D02*
X187633295Y-40552666D01*
X187585676Y-40600285D01*
X187538057Y-40695523D01*
X187538057Y-40743142D01*
X187585676Y-40838380D01*
X187633295Y-40886000D01*
X187728533Y-40933619D01*
X187919009Y-40933619D01*
X188014247Y-40886000D01*
X188061866Y-40838380D01*
X188109485Y-40743142D01*
X188109485Y-40695523D01*
X188061866Y-40600285D01*
X188014247Y-40552666D01*
X187919009Y-40505047D01*
X187728533Y-40505047D01*
X187633295Y-40457428D01*
X187585676Y-40409809D01*
X187538057Y-40314571D01*
X187538057Y-40124095D01*
X187585676Y-40028857D01*
X187633295Y-39981238D01*
X187728533Y-39933619D01*
X187919009Y-39933619D01*
X188014247Y-39981238D01*
X188061866Y-40028857D01*
X188109485Y-40124095D01*
X188109485Y-40314571D01*
X188061866Y-40409809D01*
X188014247Y-40457428D01*
X187919009Y-40505047D01*
X188538057Y-40028857D02*
X188585676Y-39981238D01*
X188538057Y-39933619D01*
X188490438Y-39981238D01*
X188538057Y-40028857D01*
X188538057Y-39933619D01*
X188538057Y-40552666D02*
X188585676Y-40505047D01*
X188538057Y-40457428D01*
X188490438Y-40505047D01*
X188538057Y-40552666D01*
X188538057Y-40457428D01*
X189538057Y-39933619D02*
X188966628Y-39933619D01*
X189252342Y-39933619D02*
X189252342Y-40933619D01*
X189157104Y-40790761D01*
X189061866Y-40695523D01*
X188966628Y-40647904D01*
X189919009Y-40838380D02*
X189966628Y-40886000D01*
X190061866Y-40933619D01*
X190299961Y-40933619D01*
X190395200Y-40886000D01*
X190442819Y-40838380D01*
X190490438Y-40743142D01*
X190490438Y-40647904D01*
X190442819Y-40505047D01*
X189871390Y-39933619D01*
X190490438Y-39933619D01*
X174123752Y-41508419D02*
X174123752Y-42508419D01*
X174361847Y-42508419D01*
X174504704Y-42460800D01*
X174599942Y-42365561D01*
X174647561Y-42270323D01*
X174695180Y-42079847D01*
X174695180Y-41936990D01*
X174647561Y-41746514D01*
X174599942Y-41651276D01*
X174504704Y-41556038D01*
X174361847Y-41508419D01*
X174123752Y-41508419D01*
X175123752Y-42032228D02*
X175457085Y-42032228D01*
X175599942Y-41508419D02*
X175123752Y-41508419D01*
X175123752Y-42508419D01*
X175599942Y-42508419D01*
X175980895Y-41556038D02*
X176123752Y-41508419D01*
X176361847Y-41508419D01*
X176457085Y-41556038D01*
X176504704Y-41603657D01*
X176552323Y-41698895D01*
X176552323Y-41794133D01*
X176504704Y-41889371D01*
X176457085Y-41936990D01*
X176361847Y-41984609D01*
X176171371Y-42032228D01*
X176076133Y-42079847D01*
X176028514Y-42127466D01*
X175980895Y-42222704D01*
X175980895Y-42317942D01*
X176028514Y-42413180D01*
X176076133Y-42460800D01*
X176171371Y-42508419D01*
X176409466Y-42508419D01*
X176552323Y-42460800D01*
X176980895Y-41508419D02*
X176980895Y-42508419D01*
X177980895Y-42460800D02*
X177885657Y-42508419D01*
X177742800Y-42508419D01*
X177599942Y-42460800D01*
X177504704Y-42365561D01*
X177457085Y-42270323D01*
X177409466Y-42079847D01*
X177409466Y-41936990D01*
X177457085Y-41746514D01*
X177504704Y-41651276D01*
X177599942Y-41556038D01*
X177742800Y-41508419D01*
X177838038Y-41508419D01*
X177980895Y-41556038D01*
X178028514Y-41603657D01*
X178028514Y-41936990D01*
X177838038Y-41936990D01*
X178457085Y-41508419D02*
X178457085Y-42508419D01*
X179028514Y-41508419D01*
X179028514Y-42508419D01*
X180599942Y-42032228D02*
X180742800Y-41984609D01*
X180790419Y-41936990D01*
X180838038Y-41841752D01*
X180838038Y-41698895D01*
X180790419Y-41603657D01*
X180742800Y-41556038D01*
X180647561Y-41508419D01*
X180266609Y-41508419D01*
X180266609Y-42508419D01*
X180599942Y-42508419D01*
X180695180Y-42460800D01*
X180742800Y-42413180D01*
X180790419Y-42317942D01*
X180790419Y-42222704D01*
X180742800Y-42127466D01*
X180695180Y-42079847D01*
X180599942Y-42032228D01*
X180266609Y-42032228D01*
X181457085Y-41984609D02*
X181457085Y-41508419D01*
X181123752Y-42508419D02*
X181457085Y-41984609D01*
X181790419Y-42508419D01*
X182838038Y-41556038D02*
X182980895Y-41508419D01*
X183218990Y-41508419D01*
X183314228Y-41556038D01*
X183361847Y-41603657D01*
X183409466Y-41698895D01*
X183409466Y-41794133D01*
X183361847Y-41889371D01*
X183314228Y-41936990D01*
X183218990Y-41984609D01*
X183028514Y-42032228D01*
X182933276Y-42079847D01*
X182885657Y-42127466D01*
X182838038Y-42222704D01*
X182838038Y-42317942D01*
X182885657Y-42413180D01*
X182933276Y-42460800D01*
X183028514Y-42508419D01*
X183266609Y-42508419D01*
X183409466Y-42460800D01*
X183838038Y-42508419D02*
X183838038Y-41698895D01*
X183885657Y-41603657D01*
X183933276Y-41556038D01*
X184028514Y-41508419D01*
X184218990Y-41508419D01*
X184314228Y-41556038D01*
X184361847Y-41603657D01*
X184409466Y-41698895D01*
X184409466Y-42508419D01*
X185076133Y-42508419D02*
X185266609Y-42508419D01*
X185361847Y-42460800D01*
X185457085Y-42365561D01*
X185504704Y-42175085D01*
X185504704Y-41841752D01*
X185457085Y-41651276D01*
X185361847Y-41556038D01*
X185266609Y-41508419D01*
X185076133Y-41508419D01*
X184980895Y-41556038D01*
X184885657Y-41651276D01*
X184838038Y-41841752D01*
X184838038Y-42175085D01*
X184885657Y-42365561D01*
X184980895Y-42460800D01*
X185076133Y-42508419D01*
X185838038Y-42508419D02*
X186504704Y-42508419D01*
X185838038Y-41508419D01*
X186504704Y-41508419D01*
X186885657Y-41508419D02*
X186885657Y-42508419D01*
X186885657Y-42032228D02*
X187457085Y-42032228D01*
X187457085Y-41508419D02*
X187457085Y-42508419D01*
X187885657Y-41794133D02*
X188361847Y-41794133D01*
X187790419Y-41508419D02*
X188123752Y-42508419D01*
X188457085Y-41508419D01*
X188790419Y-41508419D02*
X188790419Y-42508419D01*
X189361847Y-41508419D01*
X189361847Y-42508419D01*
X190361847Y-42460800D02*
X190266609Y-42508419D01*
X190123752Y-42508419D01*
X189980895Y-42460800D01*
X189885657Y-42365561D01*
X189838038Y-42270323D01*
X189790419Y-42079847D01*
X189790419Y-41936990D01*
X189838038Y-41746514D01*
X189885657Y-41651276D01*
X189980895Y-41556038D01*
X190123752Y-41508419D01*
X190218990Y-41508419D01*
X190361847Y-41556038D01*
X190409466Y-41603657D01*
X190409466Y-41936990D01*
X190218990Y-41936990D01*
X215677581Y-50322219D02*
X215344247Y-50798409D01*
X215106152Y-50322219D02*
X215106152Y-51322219D01*
X215487104Y-51322219D01*
X215582342Y-51274600D01*
X215629961Y-51226980D01*
X215677581Y-51131742D01*
X215677581Y-50988885D01*
X215629961Y-50893647D01*
X215582342Y-50846028D01*
X215487104Y-50798409D01*
X215106152Y-50798409D01*
X216058533Y-50369838D02*
X216201390Y-50322219D01*
X216439485Y-50322219D01*
X216534723Y-50369838D01*
X216582342Y-50417457D01*
X216629961Y-50512695D01*
X216629961Y-50607933D01*
X216582342Y-50703171D01*
X216534723Y-50750790D01*
X216439485Y-50798409D01*
X216249009Y-50846028D01*
X216153771Y-50893647D01*
X216106152Y-50941266D01*
X216058533Y-51036504D01*
X216058533Y-51131742D01*
X216106152Y-51226980D01*
X216153771Y-51274600D01*
X216249009Y-51322219D01*
X216487104Y-51322219D01*
X216629961Y-51274600D01*
X217010914Y-51226980D02*
X217058533Y-51274600D01*
X217153771Y-51322219D01*
X217391866Y-51322219D01*
X217487104Y-51274600D01*
X217534723Y-51226980D01*
X217582342Y-51131742D01*
X217582342Y-51036504D01*
X217534723Y-50893647D01*
X216963295Y-50322219D01*
X217582342Y-50322219D01*
X217915676Y-51322219D02*
X218534723Y-51322219D01*
X218201390Y-50941266D01*
X218344247Y-50941266D01*
X218439485Y-50893647D01*
X218487104Y-50846028D01*
X218534723Y-50750790D01*
X218534723Y-50512695D01*
X218487104Y-50417457D01*
X218439485Y-50369838D01*
X218344247Y-50322219D01*
X218058533Y-50322219D01*
X217963295Y-50369838D01*
X217915676Y-50417457D01*
X218915676Y-51226980D02*
X218963295Y-51274600D01*
X219058533Y-51322219D01*
X219296628Y-51322219D01*
X219391866Y-51274600D01*
X219439485Y-51226980D01*
X219487104Y-51131742D01*
X219487104Y-51036504D01*
X219439485Y-50893647D01*
X218868057Y-50322219D01*
X219487104Y-50322219D01*
X219677581Y-50226980D02*
X220439485Y-50226980D01*
X221201390Y-51274600D02*
X221106152Y-51322219D01*
X220963295Y-51322219D01*
X220820438Y-51274600D01*
X220725200Y-51179361D01*
X220677581Y-51084123D01*
X220629961Y-50893647D01*
X220629961Y-50750790D01*
X220677581Y-50560314D01*
X220725200Y-50465076D01*
X220820438Y-50369838D01*
X220963295Y-50322219D01*
X221058533Y-50322219D01*
X221201390Y-50369838D01*
X221249009Y-50417457D01*
X221249009Y-50750790D01*
X221058533Y-50750790D01*
X221677581Y-50322219D02*
X221677581Y-51322219D01*
X222249009Y-50322219D01*
X222249009Y-51322219D01*
X222725200Y-50322219D02*
X222725200Y-51322219D01*
X222963295Y-51322219D01*
X223106152Y-51274600D01*
X223201390Y-51179361D01*
X223249009Y-51084123D01*
X223296628Y-50893647D01*
X223296628Y-50750790D01*
X223249009Y-50560314D01*
X223201390Y-50465076D01*
X223106152Y-50369838D01*
X222963295Y-50322219D01*
X222725200Y-50322219D01*
X215772819Y-58653419D02*
X215439485Y-59129609D01*
X215201390Y-58653419D02*
X215201390Y-59653419D01*
X215582342Y-59653419D01*
X215677580Y-59605800D01*
X215725200Y-59558180D01*
X215772819Y-59462942D01*
X215772819Y-59320085D01*
X215725200Y-59224847D01*
X215677580Y-59177228D01*
X215582342Y-59129609D01*
X215201390Y-59129609D01*
X216153771Y-58701038D02*
X216296628Y-58653419D01*
X216534723Y-58653419D01*
X216629961Y-58701038D01*
X216677580Y-58748657D01*
X216725200Y-58843895D01*
X216725200Y-58939133D01*
X216677580Y-59034371D01*
X216629961Y-59081990D01*
X216534723Y-59129609D01*
X216344247Y-59177228D01*
X216249009Y-59224847D01*
X216201390Y-59272466D01*
X216153771Y-59367704D01*
X216153771Y-59462942D01*
X216201390Y-59558180D01*
X216249009Y-59605800D01*
X216344247Y-59653419D01*
X216582342Y-59653419D01*
X216725200Y-59605800D01*
X217106152Y-59558180D02*
X217153771Y-59605800D01*
X217249009Y-59653419D01*
X217487104Y-59653419D01*
X217582342Y-59605800D01*
X217629961Y-59558180D01*
X217677580Y-59462942D01*
X217677580Y-59367704D01*
X217629961Y-59224847D01*
X217058533Y-58653419D01*
X217677580Y-58653419D01*
X218010914Y-59653419D02*
X218629961Y-59653419D01*
X218296628Y-59272466D01*
X218439485Y-59272466D01*
X218534723Y-59224847D01*
X218582342Y-59177228D01*
X218629961Y-59081990D01*
X218629961Y-58843895D01*
X218582342Y-58748657D01*
X218534723Y-58701038D01*
X218439485Y-58653419D01*
X218153771Y-58653419D01*
X218058533Y-58701038D01*
X218010914Y-58748657D01*
X219010914Y-59558180D02*
X219058533Y-59605800D01*
X219153771Y-59653419D01*
X219391866Y-59653419D01*
X219487104Y-59605800D01*
X219534723Y-59558180D01*
X219582342Y-59462942D01*
X219582342Y-59367704D01*
X219534723Y-59224847D01*
X218963295Y-58653419D01*
X219582342Y-58653419D01*
X219772819Y-58558180D02*
X220534723Y-58558180D01*
X221344247Y-58653419D02*
X221010914Y-59129609D01*
X220772819Y-58653419D02*
X220772819Y-59653419D01*
X221153771Y-59653419D01*
X221249009Y-59605800D01*
X221296628Y-59558180D01*
X221344247Y-59462942D01*
X221344247Y-59320085D01*
X221296628Y-59224847D01*
X221249009Y-59177228D01*
X221153771Y-59129609D01*
X220772819Y-59129609D01*
X221677580Y-59653419D02*
X222344247Y-58653419D01*
X222344247Y-59653419D02*
X221677580Y-58653419D01*
X222725200Y-58653419D02*
X222725200Y-59653419D01*
X222963295Y-59653419D01*
X223106152Y-59605800D01*
X223201390Y-59510561D01*
X223249009Y-59415323D01*
X223296628Y-59224847D01*
X223296628Y-59081990D01*
X223249009Y-58891514D01*
X223201390Y-58796276D01*
X223106152Y-58701038D01*
X222963295Y-58653419D01*
X222725200Y-58653419D01*
X216010914Y-55859419D02*
X215677581Y-56335609D01*
X215439486Y-55859419D02*
X215439486Y-56859419D01*
X215820438Y-56859419D01*
X215915676Y-56811800D01*
X215963295Y-56764180D01*
X216010914Y-56668942D01*
X216010914Y-56526085D01*
X215963295Y-56430847D01*
X215915676Y-56383228D01*
X215820438Y-56335609D01*
X215439486Y-56335609D01*
X216391867Y-55907038D02*
X216534724Y-55859419D01*
X216772819Y-55859419D01*
X216868057Y-55907038D01*
X216915676Y-55954657D01*
X216963295Y-56049895D01*
X216963295Y-56145133D01*
X216915676Y-56240371D01*
X216868057Y-56287990D01*
X216772819Y-56335609D01*
X216582343Y-56383228D01*
X216487105Y-56430847D01*
X216439486Y-56478466D01*
X216391867Y-56573704D01*
X216391867Y-56668942D01*
X216439486Y-56764180D01*
X216487105Y-56811800D01*
X216582343Y-56859419D01*
X216820438Y-56859419D01*
X216963295Y-56811800D01*
X217344248Y-56764180D02*
X217391867Y-56811800D01*
X217487105Y-56859419D01*
X217725200Y-56859419D01*
X217820438Y-56811800D01*
X217868057Y-56764180D01*
X217915676Y-56668942D01*
X217915676Y-56573704D01*
X217868057Y-56430847D01*
X217296628Y-55859419D01*
X217915676Y-55859419D01*
X218249009Y-56859419D02*
X218868057Y-56859419D01*
X218534724Y-56478466D01*
X218677581Y-56478466D01*
X218772819Y-56430847D01*
X218820438Y-56383228D01*
X218868057Y-56287990D01*
X218868057Y-56049895D01*
X218820438Y-55954657D01*
X218772819Y-55907038D01*
X218677581Y-55859419D01*
X218391867Y-55859419D01*
X218296628Y-55907038D01*
X218249009Y-55954657D01*
X219249009Y-56764180D02*
X219296628Y-56811800D01*
X219391867Y-56859419D01*
X219629962Y-56859419D01*
X219725200Y-56811800D01*
X219772819Y-56764180D01*
X219820438Y-56668942D01*
X219820438Y-56573704D01*
X219772819Y-56430847D01*
X219201390Y-55859419D01*
X219820438Y-55859419D01*
X220010914Y-55764180D02*
X220772819Y-55764180D01*
X220868057Y-56859419D02*
X221439486Y-56859419D01*
X221153771Y-55859419D02*
X221153771Y-56859419D01*
X221677581Y-56859419D02*
X222344248Y-55859419D01*
X222344248Y-56859419D02*
X221677581Y-55859419D01*
X222725200Y-55859419D02*
X222725200Y-56859419D01*
X222963295Y-56859419D01*
X223106152Y-56811800D01*
X223201390Y-56716561D01*
X223249009Y-56621323D01*
X223296628Y-56430847D01*
X223296628Y-56287990D01*
X223249009Y-56097514D01*
X223201390Y-56002276D01*
X223106152Y-55907038D01*
X222963295Y-55859419D01*
X222725200Y-55859419D01*
X210619561Y-44505619D02*
X210286228Y-44981809D01*
X210048133Y-44505619D02*
X210048133Y-45505619D01*
X210429085Y-45505619D01*
X210524323Y-45458000D01*
X210571942Y-45410380D01*
X210619561Y-45315142D01*
X210619561Y-45172285D01*
X210571942Y-45077047D01*
X210524323Y-45029428D01*
X210429085Y-44981809D01*
X210048133Y-44981809D01*
X211000514Y-44553238D02*
X211143371Y-44505619D01*
X211381466Y-44505619D01*
X211476704Y-44553238D01*
X211524323Y-44600857D01*
X211571942Y-44696095D01*
X211571942Y-44791333D01*
X211524323Y-44886571D01*
X211476704Y-44934190D01*
X211381466Y-44981809D01*
X211190990Y-45029428D01*
X211095752Y-45077047D01*
X211048133Y-45124666D01*
X211000514Y-45219904D01*
X211000514Y-45315142D01*
X211048133Y-45410380D01*
X211095752Y-45458000D01*
X211190990Y-45505619D01*
X211429085Y-45505619D01*
X211571942Y-45458000D01*
X211952895Y-45410380D02*
X212000514Y-45458000D01*
X212095752Y-45505619D01*
X212333847Y-45505619D01*
X212429085Y-45458000D01*
X212476704Y-45410380D01*
X212524323Y-45315142D01*
X212524323Y-45219904D01*
X212476704Y-45077047D01*
X211905276Y-44505619D01*
X212524323Y-44505619D01*
X212857657Y-45505619D02*
X213476704Y-45505619D01*
X213143371Y-45124666D01*
X213286228Y-45124666D01*
X213381466Y-45077047D01*
X213429085Y-45029428D01*
X213476704Y-44934190D01*
X213476704Y-44696095D01*
X213429085Y-44600857D01*
X213381466Y-44553238D01*
X213286228Y-44505619D01*
X213000514Y-44505619D01*
X212905276Y-44553238D01*
X212857657Y-44600857D01*
X213857657Y-45410380D02*
X213905276Y-45458000D01*
X214000514Y-45505619D01*
X214238609Y-45505619D01*
X214333847Y-45458000D01*
X214381466Y-45410380D01*
X214429085Y-45315142D01*
X214429085Y-45219904D01*
X214381466Y-45077047D01*
X213810038Y-44505619D01*
X214429085Y-44505619D01*
X194335171Y-45581819D02*
X194335171Y-44867533D01*
X194287552Y-44724676D01*
X194192314Y-44629438D01*
X194049457Y-44581819D01*
X193954219Y-44581819D01*
X195287552Y-44581819D02*
X194811361Y-44581819D01*
X194811361Y-45581819D01*
X195620885Y-44581819D02*
X195620885Y-45581819D01*
X196097076Y-44581819D02*
X196097076Y-45581819D01*
X196668504Y-44581819D01*
X196668504Y-45581819D01*
X197144695Y-44581819D02*
X197144695Y-45581819D01*
X197716123Y-44581819D02*
X197287552Y-45153247D01*
X197716123Y-45581819D02*
X197144695Y-45010390D01*
X197906600Y-44486580D02*
X198668504Y-44486580D01*
X198763742Y-45581819D02*
X199335171Y-45581819D01*
X199049457Y-44581819D02*
X199049457Y-45581819D01*
X199525647Y-45581819D02*
X200097076Y-45581819D01*
X199811361Y-44581819D02*
X199811361Y-45581819D01*
X200906600Y-44581819D02*
X200430409Y-44581819D01*
X200430409Y-45581819D01*
X215204000Y-40411304D02*
X215251619Y-40506542D01*
X215251619Y-40649400D01*
X215204000Y-40792257D01*
X215108761Y-40887495D01*
X215013523Y-40935114D01*
X214823047Y-40982733D01*
X214680190Y-40982733D01*
X214489714Y-40935114D01*
X214394476Y-40887495D01*
X214299238Y-40792257D01*
X214251619Y-40649400D01*
X214251619Y-40554161D01*
X214299238Y-40411304D01*
X214346857Y-40363685D01*
X214680190Y-40363685D01*
X214680190Y-40554161D01*
X214251619Y-39935114D02*
X215251619Y-39935114D01*
X214251619Y-39363685D01*
X215251619Y-39363685D01*
X214251619Y-38887495D02*
X215251619Y-38887495D01*
X215251619Y-38649400D01*
X215204000Y-38506542D01*
X215108761Y-38411304D01*
X215013523Y-38363685D01*
X214823047Y-38316066D01*
X214680190Y-38316066D01*
X214489714Y-38363685D01*
X214394476Y-38411304D01*
X214299238Y-38506542D01*
X214251619Y-38649400D01*
X214251619Y-38887495D01*
X211775119Y-40268447D02*
X212251309Y-40601781D01*
X211775119Y-40839876D02*
X212775119Y-40839876D01*
X212775119Y-40458923D01*
X212727500Y-40363685D01*
X212679880Y-40316066D01*
X212584642Y-40268447D01*
X212441785Y-40268447D01*
X212346547Y-40316066D01*
X212298928Y-40363685D01*
X212251309Y-40458923D01*
X212251309Y-40839876D01*
X212775119Y-39935114D02*
X211775119Y-39268447D01*
X212775119Y-39268447D02*
X211775119Y-39935114D01*
X211775119Y-38887495D02*
X212775119Y-38887495D01*
X212775119Y-38649400D01*
X212727500Y-38506542D01*
X212632261Y-38411304D01*
X212537023Y-38363685D01*
X212346547Y-38316066D01*
X212203690Y-38316066D01*
X212013214Y-38363685D01*
X211917976Y-38411304D01*
X211822738Y-38506542D01*
X211775119Y-38649400D01*
X211775119Y-38887495D01*
X210298619Y-40744638D02*
X210298619Y-40173210D01*
X209298619Y-40458924D02*
X210298619Y-40458924D01*
X210298619Y-39935114D02*
X209298619Y-39268448D01*
X210298619Y-39268448D02*
X209298619Y-39935114D01*
X209298619Y-38887495D02*
X210298619Y-38887495D01*
X210298619Y-38649400D01*
X210251000Y-38506543D01*
X210155761Y-38411305D01*
X210060523Y-38363686D01*
X209870047Y-38316067D01*
X209727190Y-38316067D01*
X209536714Y-38363686D01*
X209441476Y-38411305D01*
X209346238Y-38506543D01*
X209298619Y-38649400D01*
X209298619Y-38887495D01*
X195312619Y-40566838D02*
X195312619Y-39995410D01*
X194312619Y-40281124D02*
X195312619Y-40281124D01*
X195312619Y-39757314D02*
X194312619Y-39090648D01*
X195312619Y-39090648D02*
X194312619Y-39757314D01*
X194312619Y-38709695D02*
X195312619Y-38709695D01*
X195312619Y-38471600D01*
X195265000Y-38328743D01*
X195169761Y-38233505D01*
X195074523Y-38185886D01*
X194884047Y-38138267D01*
X194741190Y-38138267D01*
X194550714Y-38185886D01*
X194455476Y-38233505D01*
X194360238Y-38328743D01*
X194312619Y-38471600D01*
X194312619Y-38709695D01*
X196827219Y-40090647D02*
X197303409Y-40423981D01*
X196827219Y-40662076D02*
X197827219Y-40662076D01*
X197827219Y-40281123D01*
X197779600Y-40185885D01*
X197731980Y-40138266D01*
X197636742Y-40090647D01*
X197493885Y-40090647D01*
X197398647Y-40138266D01*
X197351028Y-40185885D01*
X197303409Y-40281123D01*
X197303409Y-40662076D01*
X197827219Y-39757314D02*
X196827219Y-39090647D01*
X197827219Y-39090647D02*
X196827219Y-39757314D01*
X196827219Y-38709695D02*
X197827219Y-38709695D01*
X197827219Y-38471600D01*
X197779600Y-38328742D01*
X197684361Y-38233504D01*
X197589123Y-38185885D01*
X197398647Y-38138266D01*
X197255790Y-38138266D01*
X197065314Y-38185885D01*
X196970076Y-38233504D01*
X196874838Y-38328742D01*
X196827219Y-38471600D01*
X196827219Y-38709695D01*
X200294200Y-40233504D02*
X200341819Y-40328742D01*
X200341819Y-40471600D01*
X200294200Y-40614457D01*
X200198961Y-40709695D01*
X200103723Y-40757314D01*
X199913247Y-40804933D01*
X199770390Y-40804933D01*
X199579914Y-40757314D01*
X199484676Y-40709695D01*
X199389438Y-40614457D01*
X199341819Y-40471600D01*
X199341819Y-40376361D01*
X199389438Y-40233504D01*
X199437057Y-40185885D01*
X199770390Y-40185885D01*
X199770390Y-40376361D01*
X199341819Y-39757314D02*
X200341819Y-39757314D01*
X199341819Y-39185885D01*
X200341819Y-39185885D01*
X199341819Y-38709695D02*
X200341819Y-38709695D01*
X200341819Y-38471600D01*
X200294200Y-38328742D01*
X200198961Y-38233504D01*
X200103723Y-38185885D01*
X199913247Y-38138266D01*
X199770390Y-38138266D01*
X199579914Y-38185885D01*
X199484676Y-38233504D01*
X199389438Y-38328742D01*
X199341819Y-38471600D01*
X199341819Y-38709695D01*
X211565450Y-65373189D02*
X211613069Y-65468427D01*
X211613069Y-65611285D01*
X211565450Y-65754142D01*
X211470211Y-65849380D01*
X211374973Y-65896999D01*
X211184497Y-65944618D01*
X211041640Y-65944618D01*
X210851164Y-65896999D01*
X210755926Y-65849380D01*
X210660688Y-65754142D01*
X210613069Y-65611285D01*
X210613069Y-65516046D01*
X210660688Y-65373189D01*
X210708307Y-65325570D01*
X211041640Y-65325570D01*
X211041640Y-65516046D01*
X210613069Y-64896999D02*
X211613069Y-64896999D01*
X210613069Y-64325570D01*
X211613069Y-64325570D01*
X210613069Y-63849380D02*
X211613069Y-63849380D01*
X211613069Y-63611285D01*
X211565450Y-63468427D01*
X211470211Y-63373189D01*
X211374973Y-63325570D01*
X211184497Y-63277951D01*
X211041640Y-63277951D01*
X210851164Y-63325570D01*
X210755926Y-63373189D01*
X210660688Y-63468427D01*
X210613069Y-63611285D01*
X210613069Y-63849380D01*
X209130219Y-66658904D02*
X208130219Y-66325570D01*
X209130219Y-65992237D01*
X209130219Y-65801761D02*
X209130219Y-65230332D01*
X208130219Y-65516047D02*
X209130219Y-65516047D01*
X208130219Y-64896999D02*
X208796885Y-64896999D01*
X208606409Y-64896999D02*
X208701647Y-64849380D01*
X208749266Y-64801761D01*
X208796885Y-64706523D01*
X208796885Y-64611285D01*
X208177838Y-63896999D02*
X208130219Y-63992237D01*
X208130219Y-64182713D01*
X208177838Y-64277951D01*
X208273076Y-64325570D01*
X208654028Y-64325570D01*
X208749266Y-64277951D01*
X208796885Y-64182713D01*
X208796885Y-63992237D01*
X208749266Y-63896999D01*
X208654028Y-63849380D01*
X208558790Y-63849380D01*
X208463552Y-64325570D01*
X208796885Y-63563666D02*
X208796885Y-63182713D01*
X208130219Y-63420809D02*
X208987361Y-63420809D01*
X209082600Y-63373189D01*
X209130219Y-63277951D01*
X209130219Y-63182713D01*
X213095919Y-65373190D02*
X214095919Y-65373190D01*
X214095919Y-65135095D01*
X214048300Y-64992238D01*
X213953061Y-64897000D01*
X213857823Y-64849381D01*
X213667347Y-64801761D01*
X213524490Y-64801761D01*
X213334014Y-64849381D01*
X213238776Y-64897000D01*
X213143538Y-64992238D01*
X213095919Y-65135095D01*
X213095919Y-65373190D01*
X213095919Y-64373190D02*
X214095919Y-64373190D01*
X214095919Y-63706523D02*
X214095919Y-63516047D01*
X214048300Y-63420809D01*
X213953061Y-63325571D01*
X213762585Y-63277952D01*
X213429252Y-63277952D01*
X213238776Y-63325571D01*
X213143538Y-63420809D01*
X213095919Y-63516047D01*
X213095919Y-63706523D01*
X213143538Y-63801761D01*
X213238776Y-63897000D01*
X213429252Y-63944619D01*
X213762585Y-63944619D01*
X213953061Y-63897000D01*
X214048300Y-63801761D01*
X214095919Y-63706523D01*
X215674007Y-65087476D02*
X215626388Y-65135095D01*
X215578769Y-65277952D01*
X215578769Y-65373190D01*
X215626388Y-65516047D01*
X215721626Y-65611285D01*
X215816864Y-65658904D01*
X216007340Y-65706523D01*
X216150197Y-65706523D01*
X216340673Y-65658904D01*
X216435911Y-65611285D01*
X216531150Y-65516047D01*
X216578769Y-65373190D01*
X216578769Y-65277952D01*
X216531150Y-65135095D01*
X216483530Y-65087476D01*
X215578769Y-64182714D02*
X215578769Y-64658904D01*
X216578769Y-64658904D01*
X215578769Y-63849380D02*
X216578769Y-63849380D01*
X215578769Y-63277952D02*
X216150197Y-63706523D01*
X216578769Y-63277952D02*
X216007340Y-63849380D01*
X218728285Y-66468428D02*
X218061619Y-66468428D01*
X218633047Y-66468428D02*
X218680666Y-66420809D01*
X218728285Y-66325571D01*
X218728285Y-66182714D01*
X218680666Y-66087476D01*
X218585428Y-66039857D01*
X218061619Y-66039857D01*
X218061619Y-64992238D02*
X218537809Y-65325571D01*
X218061619Y-65563666D02*
X219061619Y-65563666D01*
X219061619Y-65182714D01*
X219014000Y-65087476D01*
X218966380Y-65039857D01*
X218871142Y-64992238D01*
X218728285Y-64992238D01*
X218633047Y-65039857D01*
X218585428Y-65087476D01*
X218537809Y-65182714D01*
X218537809Y-65563666D01*
X218109238Y-64611285D02*
X218061619Y-64468428D01*
X218061619Y-64230333D01*
X218109238Y-64135095D01*
X218156857Y-64087476D01*
X218252095Y-64039857D01*
X218347333Y-64039857D01*
X218442571Y-64087476D01*
X218490190Y-64135095D01*
X218537809Y-64230333D01*
X218585428Y-64420809D01*
X218633047Y-64516047D01*
X218680666Y-64563666D01*
X218775904Y-64611285D01*
X218871142Y-64611285D01*
X218966380Y-64563666D01*
X219014000Y-64516047D01*
X219061619Y-64420809D01*
X219061619Y-64182714D01*
X219014000Y-64039857D01*
X219061619Y-63754142D02*
X219061619Y-63182714D01*
X218061619Y-63468428D02*
X219061619Y-63468428D01*
X211165400Y-73284980D02*
X211213019Y-73380218D01*
X211213019Y-73523076D01*
X211165400Y-73665933D01*
X211070161Y-73761171D01*
X210974923Y-73808790D01*
X210784447Y-73856409D01*
X210641590Y-73856409D01*
X210451114Y-73808790D01*
X210355876Y-73761171D01*
X210260638Y-73665933D01*
X210213019Y-73523076D01*
X210213019Y-73427837D01*
X210260638Y-73284980D01*
X210308257Y-73237361D01*
X210641590Y-73237361D01*
X210641590Y-73427837D01*
X210213019Y-72808790D02*
X211213019Y-72808790D01*
X210213019Y-72237361D01*
X211213019Y-72237361D01*
X210213019Y-71761171D02*
X211213019Y-71761171D01*
X211213019Y-71523076D01*
X211165400Y-71380218D01*
X211070161Y-71284980D01*
X210974923Y-71237361D01*
X210784447Y-71189742D01*
X210641590Y-71189742D01*
X210451114Y-71237361D01*
X210355876Y-71284980D01*
X210260638Y-71380218D01*
X210213019Y-71523076D01*
X210213019Y-71761171D01*
X218585506Y-74570695D02*
X217585506Y-74237361D01*
X218585506Y-73904028D01*
X218585506Y-73713552D02*
X218585506Y-73142123D01*
X217585506Y-73427838D02*
X218585506Y-73427838D01*
X217585506Y-72808790D02*
X218252172Y-72808790D01*
X218061696Y-72808790D02*
X218156934Y-72761171D01*
X218204553Y-72713552D01*
X218252172Y-72618314D01*
X218252172Y-72523076D01*
X217633125Y-71808790D02*
X217585506Y-71904028D01*
X217585506Y-72094504D01*
X217633125Y-72189742D01*
X217728363Y-72237361D01*
X218109315Y-72237361D01*
X218204553Y-72189742D01*
X218252172Y-72094504D01*
X218252172Y-71904028D01*
X218204553Y-71808790D01*
X218109315Y-71761171D01*
X218014077Y-71761171D01*
X217918839Y-72237361D01*
X218252172Y-71475457D02*
X218252172Y-71094504D01*
X217585506Y-71332600D02*
X218442648Y-71332600D01*
X218537887Y-71284980D01*
X218585506Y-71189742D01*
X218585506Y-71094504D01*
X215085506Y-73284981D02*
X216085506Y-73284981D01*
X216085506Y-73046886D01*
X216037887Y-72904029D01*
X215942648Y-72808791D01*
X215847410Y-72761172D01*
X215656934Y-72713552D01*
X215514077Y-72713552D01*
X215323601Y-72761172D01*
X215228363Y-72808791D01*
X215133125Y-72904029D01*
X215085506Y-73046886D01*
X215085506Y-73284981D01*
X215085506Y-72284981D02*
X216085506Y-72284981D01*
X216085506Y-71618314D02*
X216085506Y-71427838D01*
X216037887Y-71332600D01*
X215942648Y-71237362D01*
X215752172Y-71189743D01*
X215418839Y-71189743D01*
X215228363Y-71237362D01*
X215133125Y-71332600D01*
X215085506Y-71427838D01*
X215085506Y-71618314D01*
X215133125Y-71713552D01*
X215228363Y-71808791D01*
X215418839Y-71856410D01*
X215752172Y-71856410D01*
X215942648Y-71808791D01*
X216037887Y-71713552D01*
X216085506Y-71618314D01*
X212680744Y-72999267D02*
X212633125Y-73046886D01*
X212585506Y-73189743D01*
X212585506Y-73284981D01*
X212633125Y-73427838D01*
X212728363Y-73523076D01*
X212823601Y-73570695D01*
X213014077Y-73618314D01*
X213156934Y-73618314D01*
X213347410Y-73570695D01*
X213442648Y-73523076D01*
X213537887Y-73427838D01*
X213585506Y-73284981D01*
X213585506Y-73189743D01*
X213537887Y-73046886D01*
X213490267Y-72999267D01*
X212585506Y-72094505D02*
X212585506Y-72570695D01*
X213585506Y-72570695D01*
X212585506Y-71761171D02*
X213585506Y-71761171D01*
X212585506Y-71189743D02*
X213156934Y-71618314D01*
X213585506Y-71189743D02*
X213014077Y-71761171D01*
X192801200Y-65481104D02*
X192848819Y-65576342D01*
X192848819Y-65719200D01*
X192801200Y-65862057D01*
X192705961Y-65957295D01*
X192610723Y-66004914D01*
X192420247Y-66052533D01*
X192277390Y-66052533D01*
X192086914Y-66004914D01*
X191991676Y-65957295D01*
X191896438Y-65862057D01*
X191848819Y-65719200D01*
X191848819Y-65623961D01*
X191896438Y-65481104D01*
X191944057Y-65433485D01*
X192277390Y-65433485D01*
X192277390Y-65623961D01*
X191848819Y-65004914D02*
X192848819Y-65004914D01*
X191848819Y-64433485D01*
X192848819Y-64433485D01*
X191848819Y-63957295D02*
X192848819Y-63957295D01*
X192848819Y-63719200D01*
X192801200Y-63576342D01*
X192705961Y-63481104D01*
X192610723Y-63433485D01*
X192420247Y-63385866D01*
X192277390Y-63385866D01*
X192086914Y-63433485D01*
X191991676Y-63481104D01*
X191896438Y-63576342D01*
X191848819Y-63719200D01*
X191848819Y-63957295D01*
X202812106Y-66766819D02*
X201812106Y-66433485D01*
X202812106Y-66100152D01*
X202812106Y-65909676D02*
X202812106Y-65338247D01*
X201812106Y-65623962D02*
X202812106Y-65623962D01*
X201812106Y-65004914D02*
X202478772Y-65004914D01*
X202288296Y-65004914D02*
X202383534Y-64957295D01*
X202431153Y-64909676D01*
X202478772Y-64814438D01*
X202478772Y-64719200D01*
X201859725Y-64004914D02*
X201812106Y-64100152D01*
X201812106Y-64290628D01*
X201859725Y-64385866D01*
X201954963Y-64433485D01*
X202335915Y-64433485D01*
X202431153Y-64385866D01*
X202478772Y-64290628D01*
X202478772Y-64100152D01*
X202431153Y-64004914D01*
X202335915Y-63957295D01*
X202240677Y-63957295D01*
X202145439Y-64433485D01*
X202478772Y-63671581D02*
X202478772Y-63290628D01*
X201812106Y-63528724D02*
X202669248Y-63528724D01*
X202764487Y-63481104D01*
X202812106Y-63385866D01*
X202812106Y-63290628D01*
X199321282Y-65481105D02*
X200321282Y-65481105D01*
X200321282Y-65243010D01*
X200273663Y-65100153D01*
X200178424Y-65004915D01*
X200083186Y-64957296D01*
X199892710Y-64909676D01*
X199749853Y-64909676D01*
X199559377Y-64957296D01*
X199464139Y-65004915D01*
X199368901Y-65100153D01*
X199321282Y-65243010D01*
X199321282Y-65481105D01*
X199321282Y-64481105D02*
X200321282Y-64481105D01*
X200321282Y-63814438D02*
X200321282Y-63623962D01*
X200273663Y-63528724D01*
X200178424Y-63433486D01*
X199987948Y-63385867D01*
X199654615Y-63385867D01*
X199464139Y-63433486D01*
X199368901Y-63528724D01*
X199321282Y-63623962D01*
X199321282Y-63814438D01*
X199368901Y-63909676D01*
X199464139Y-64004915D01*
X199654615Y-64052534D01*
X199987948Y-64052534D01*
X200178424Y-64004915D01*
X200273663Y-63909676D01*
X200321282Y-63814438D01*
X196925699Y-65195391D02*
X196878080Y-65243010D01*
X196830461Y-65385867D01*
X196830461Y-65481105D01*
X196878080Y-65623962D01*
X196973318Y-65719200D01*
X197068556Y-65766819D01*
X197259032Y-65814438D01*
X197401889Y-65814438D01*
X197592365Y-65766819D01*
X197687603Y-65719200D01*
X197782842Y-65623962D01*
X197830461Y-65481105D01*
X197830461Y-65385867D01*
X197782842Y-65243010D01*
X197735222Y-65195391D01*
X196830461Y-64290629D02*
X196830461Y-64766819D01*
X197830461Y-64766819D01*
X196830461Y-63957295D02*
X197830461Y-63957295D01*
X196830461Y-63385867D02*
X197401889Y-63814438D01*
X197830461Y-63385867D02*
X197259032Y-63957295D01*
X195006306Y-66576343D02*
X194339640Y-66576343D01*
X194911068Y-66576343D02*
X194958687Y-66528724D01*
X195006306Y-66433486D01*
X195006306Y-66290629D01*
X194958687Y-66195391D01*
X194863449Y-66147772D01*
X194339640Y-66147772D01*
X194339640Y-65100153D02*
X194815830Y-65433486D01*
X194339640Y-65671581D02*
X195339640Y-65671581D01*
X195339640Y-65290629D01*
X195292021Y-65195391D01*
X195244401Y-65147772D01*
X195149163Y-65100153D01*
X195006306Y-65100153D01*
X194911068Y-65147772D01*
X194863449Y-65195391D01*
X194815830Y-65290629D01*
X194815830Y-65671581D01*
X194387259Y-64719200D02*
X194339640Y-64576343D01*
X194339640Y-64338248D01*
X194387259Y-64243010D01*
X194434878Y-64195391D01*
X194530116Y-64147772D01*
X194625354Y-64147772D01*
X194720592Y-64195391D01*
X194768211Y-64243010D01*
X194815830Y-64338248D01*
X194863449Y-64528724D01*
X194911068Y-64623962D01*
X194958687Y-64671581D01*
X195053925Y-64719200D01*
X195149163Y-64719200D01*
X195244401Y-64671581D01*
X195292021Y-64623962D01*
X195339640Y-64528724D01*
X195339640Y-64290629D01*
X195292021Y-64147772D01*
X195339640Y-63862057D02*
X195339640Y-63290629D01*
X194339640Y-63576343D02*
X195339640Y-63576343D01*
X192042487Y-73284980D02*
X192090106Y-73380218D01*
X192090106Y-73523076D01*
X192042487Y-73665933D01*
X191947248Y-73761171D01*
X191852010Y-73808790D01*
X191661534Y-73856409D01*
X191518677Y-73856409D01*
X191328201Y-73808790D01*
X191232963Y-73761171D01*
X191137725Y-73665933D01*
X191090106Y-73523076D01*
X191090106Y-73427837D01*
X191137725Y-73284980D01*
X191185344Y-73237361D01*
X191518677Y-73237361D01*
X191518677Y-73427837D01*
X191090106Y-72808790D02*
X192090106Y-72808790D01*
X191090106Y-72237361D01*
X192090106Y-72237361D01*
X191090106Y-71761171D02*
X192090106Y-71761171D01*
X192090106Y-71523076D01*
X192042487Y-71380218D01*
X191947248Y-71284980D01*
X191852010Y-71237361D01*
X191661534Y-71189742D01*
X191518677Y-71189742D01*
X191328201Y-71237361D01*
X191232963Y-71284980D01*
X191137725Y-71380218D01*
X191090106Y-71523076D01*
X191090106Y-71761171D01*
X204590106Y-74570695D02*
X203590106Y-74237361D01*
X204590106Y-73904028D01*
X204590106Y-73713552D02*
X204590106Y-73142123D01*
X203590106Y-73427838D02*
X204590106Y-73427838D01*
X203590106Y-72808790D02*
X204256772Y-72808790D01*
X204066296Y-72808790D02*
X204161534Y-72761171D01*
X204209153Y-72713552D01*
X204256772Y-72618314D01*
X204256772Y-72523076D01*
X203637725Y-71808790D02*
X203590106Y-71904028D01*
X203590106Y-72094504D01*
X203637725Y-72189742D01*
X203732963Y-72237361D01*
X204113915Y-72237361D01*
X204209153Y-72189742D01*
X204256772Y-72094504D01*
X204256772Y-71904028D01*
X204209153Y-71808790D01*
X204113915Y-71761171D01*
X204018677Y-71761171D01*
X203923439Y-72237361D01*
X204256772Y-71475457D02*
X204256772Y-71094504D01*
X203590106Y-71332600D02*
X204447248Y-71332600D01*
X204542487Y-71284980D01*
X204590106Y-71189742D01*
X204590106Y-71094504D01*
X201090106Y-73284981D02*
X202090106Y-73284981D01*
X202090106Y-73046886D01*
X202042487Y-72904029D01*
X201947248Y-72808791D01*
X201852010Y-72761172D01*
X201661534Y-72713552D01*
X201518677Y-72713552D01*
X201328201Y-72761172D01*
X201232963Y-72808791D01*
X201137725Y-72904029D01*
X201090106Y-73046886D01*
X201090106Y-73284981D01*
X201090106Y-72284981D02*
X202090106Y-72284981D01*
X202090106Y-71618314D02*
X202090106Y-71427838D01*
X202042487Y-71332600D01*
X201947248Y-71237362D01*
X201756772Y-71189743D01*
X201423439Y-71189743D01*
X201232963Y-71237362D01*
X201137725Y-71332600D01*
X201090106Y-71427838D01*
X201090106Y-71618314D01*
X201137725Y-71713552D01*
X201232963Y-71808791D01*
X201423439Y-71856410D01*
X201756772Y-71856410D01*
X201947248Y-71808791D01*
X202042487Y-71713552D01*
X202090106Y-71618314D01*
X198685344Y-72999267D02*
X198637725Y-73046886D01*
X198590106Y-73189743D01*
X198590106Y-73284981D01*
X198637725Y-73427838D01*
X198732963Y-73523076D01*
X198828201Y-73570695D01*
X199018677Y-73618314D01*
X199161534Y-73618314D01*
X199352010Y-73570695D01*
X199447248Y-73523076D01*
X199542487Y-73427838D01*
X199590106Y-73284981D01*
X199590106Y-73189743D01*
X199542487Y-73046886D01*
X199494867Y-72999267D01*
X198590106Y-72094505D02*
X198590106Y-72570695D01*
X199590106Y-72570695D01*
X198590106Y-71761171D02*
X199590106Y-71761171D01*
X198590106Y-71189743D02*
X199161534Y-71618314D01*
X199590106Y-71189743D02*
X199018677Y-71761171D01*
X196137725Y-73951647D02*
X196090106Y-73808790D01*
X196090106Y-73570695D01*
X196137725Y-73475456D01*
X196185344Y-73427837D01*
X196280582Y-73380218D01*
X196375820Y-73380218D01*
X196471058Y-73427837D01*
X196518677Y-73475456D01*
X196566296Y-73570695D01*
X196613915Y-73761171D01*
X196661534Y-73856409D01*
X196709153Y-73904028D01*
X196804391Y-73951647D01*
X196899629Y-73951647D01*
X196994867Y-73904028D01*
X197042487Y-73856409D01*
X197090106Y-73761171D01*
X197090106Y-73523075D01*
X197042487Y-73380218D01*
X197090106Y-73046885D02*
X196090106Y-72808790D01*
X196804391Y-72618314D01*
X196090106Y-72427837D01*
X197090106Y-72189742D01*
X197090106Y-71618314D02*
X197090106Y-71427837D01*
X197042487Y-71332599D01*
X196947248Y-71237361D01*
X196756772Y-71189742D01*
X196423439Y-71189742D01*
X196232963Y-71237361D01*
X196137725Y-71332599D01*
X196090106Y-71427837D01*
X196090106Y-71618314D01*
X196137725Y-71713552D01*
X196232963Y-71808790D01*
X196423439Y-71856409D01*
X196756772Y-71856409D01*
X196947248Y-71808790D01*
X197042487Y-71713552D01*
X197090106Y-71618314D01*
X194256772Y-74380219D02*
X193590106Y-74380219D01*
X194161534Y-74380219D02*
X194209153Y-74332600D01*
X194256772Y-74237362D01*
X194256772Y-74094505D01*
X194209153Y-73999267D01*
X194113915Y-73951648D01*
X193590106Y-73951648D01*
X193590106Y-72904029D02*
X194066296Y-73237362D01*
X193590106Y-73475457D02*
X194590106Y-73475457D01*
X194590106Y-73094505D01*
X194542487Y-72999267D01*
X194494867Y-72951648D01*
X194399629Y-72904029D01*
X194256772Y-72904029D01*
X194161534Y-72951648D01*
X194113915Y-72999267D01*
X194066296Y-73094505D01*
X194066296Y-73475457D01*
X193637725Y-72523076D02*
X193590106Y-72380219D01*
X193590106Y-72142124D01*
X193637725Y-72046886D01*
X193685344Y-71999267D01*
X193780582Y-71951648D01*
X193875820Y-71951648D01*
X193971058Y-71999267D01*
X194018677Y-72046886D01*
X194066296Y-72142124D01*
X194113915Y-72332600D01*
X194161534Y-72427838D01*
X194209153Y-72475457D01*
X194304391Y-72523076D01*
X194399629Y-72523076D01*
X194494867Y-72475457D01*
X194542487Y-72427838D01*
X194590106Y-72332600D01*
X194590106Y-72094505D01*
X194542487Y-71951648D01*
X194590106Y-71665933D02*
X194590106Y-71094505D01*
X193590106Y-71380219D02*
X194590106Y-71380219D01*
M02*
