%TF.GenerationSoftware,KiCad,Pcbnew,(5.1.4)-1*%
%TF.CreationDate,2019-11-11T10:46:24+08:00*%
%TF.ProjectId,jlink_vcom_to_rs232_adapter_plate,6a6c696e-6b5f-4766-936f-6d5f746f5f72,rev?*%
%TF.SameCoordinates,Original*%
%TF.FileFunction,Paste,Top*%
%TF.FilePolarity,Positive*%
%FSLAX46Y46*%
G04 Gerber Fmt 4.6, Leading zero omitted, Abs format (unit mm)*
G04 Created by KiCad (PCBNEW (5.1.4)-1) date 2019-11-11 10:46:24*
%MOMM*%
%LPD*%
G04 APERTURE LIST*
%ADD10C,0.350000*%
%ADD11C,0.975000*%
%ADD12R,1.300000X0.800000*%
G04 APERTURE END LIST*
D10*
G36*
X219139542Y-46265774D02*
G01*
X219163203Y-46269284D01*
X219186407Y-46275096D01*
X219208929Y-46283154D01*
X219230553Y-46293382D01*
X219251070Y-46305679D01*
X219270283Y-46319929D01*
X219288007Y-46335993D01*
X219304071Y-46353717D01*
X219318321Y-46372930D01*
X219330618Y-46393447D01*
X219340846Y-46415071D01*
X219348904Y-46437593D01*
X219354716Y-46460797D01*
X219358226Y-46484458D01*
X219359400Y-46508350D01*
X219359400Y-47420850D01*
X219358226Y-47444742D01*
X219354716Y-47468403D01*
X219348904Y-47491607D01*
X219340846Y-47514129D01*
X219330618Y-47535753D01*
X219318321Y-47556270D01*
X219304071Y-47575483D01*
X219288007Y-47593207D01*
X219270283Y-47609271D01*
X219251070Y-47623521D01*
X219230553Y-47635818D01*
X219208929Y-47646046D01*
X219186407Y-47654104D01*
X219163203Y-47659916D01*
X219139542Y-47663426D01*
X219115650Y-47664600D01*
X218628150Y-47664600D01*
X218604258Y-47663426D01*
X218580597Y-47659916D01*
X218557393Y-47654104D01*
X218534871Y-47646046D01*
X218513247Y-47635818D01*
X218492730Y-47623521D01*
X218473517Y-47609271D01*
X218455793Y-47593207D01*
X218439729Y-47575483D01*
X218425479Y-47556270D01*
X218413182Y-47535753D01*
X218402954Y-47514129D01*
X218394896Y-47491607D01*
X218389084Y-47468403D01*
X218385574Y-47444742D01*
X218384400Y-47420850D01*
X218384400Y-46508350D01*
X218385574Y-46484458D01*
X218389084Y-46460797D01*
X218394896Y-46437593D01*
X218402954Y-46415071D01*
X218413182Y-46393447D01*
X218425479Y-46372930D01*
X218439729Y-46353717D01*
X218455793Y-46335993D01*
X218473517Y-46319929D01*
X218492730Y-46305679D01*
X218513247Y-46293382D01*
X218534871Y-46283154D01*
X218557393Y-46275096D01*
X218580597Y-46269284D01*
X218604258Y-46265774D01*
X218628150Y-46264600D01*
X219115650Y-46264600D01*
X219139542Y-46265774D01*
X219139542Y-46265774D01*
G37*
D11*
X218871900Y-46964600D03*
D10*
G36*
X221014542Y-46265774D02*
G01*
X221038203Y-46269284D01*
X221061407Y-46275096D01*
X221083929Y-46283154D01*
X221105553Y-46293382D01*
X221126070Y-46305679D01*
X221145283Y-46319929D01*
X221163007Y-46335993D01*
X221179071Y-46353717D01*
X221193321Y-46372930D01*
X221205618Y-46393447D01*
X221215846Y-46415071D01*
X221223904Y-46437593D01*
X221229716Y-46460797D01*
X221233226Y-46484458D01*
X221234400Y-46508350D01*
X221234400Y-47420850D01*
X221233226Y-47444742D01*
X221229716Y-47468403D01*
X221223904Y-47491607D01*
X221215846Y-47514129D01*
X221205618Y-47535753D01*
X221193321Y-47556270D01*
X221179071Y-47575483D01*
X221163007Y-47593207D01*
X221145283Y-47609271D01*
X221126070Y-47623521D01*
X221105553Y-47635818D01*
X221083929Y-47646046D01*
X221061407Y-47654104D01*
X221038203Y-47659916D01*
X221014542Y-47663426D01*
X220990650Y-47664600D01*
X220503150Y-47664600D01*
X220479258Y-47663426D01*
X220455597Y-47659916D01*
X220432393Y-47654104D01*
X220409871Y-47646046D01*
X220388247Y-47635818D01*
X220367730Y-47623521D01*
X220348517Y-47609271D01*
X220330793Y-47593207D01*
X220314729Y-47575483D01*
X220300479Y-47556270D01*
X220288182Y-47535753D01*
X220277954Y-47514129D01*
X220269896Y-47491607D01*
X220264084Y-47468403D01*
X220260574Y-47444742D01*
X220259400Y-47420850D01*
X220259400Y-46508350D01*
X220260574Y-46484458D01*
X220264084Y-46460797D01*
X220269896Y-46437593D01*
X220277954Y-46415071D01*
X220288182Y-46393447D01*
X220300479Y-46372930D01*
X220314729Y-46353717D01*
X220330793Y-46335993D01*
X220348517Y-46319929D01*
X220367730Y-46305679D01*
X220388247Y-46293382D01*
X220409871Y-46283154D01*
X220432393Y-46275096D01*
X220455597Y-46269284D01*
X220479258Y-46265774D01*
X220503150Y-46264600D01*
X220990650Y-46264600D01*
X221014542Y-46265774D01*
X221014542Y-46265774D01*
G37*
D11*
X220746900Y-46964600D03*
D10*
G36*
X221014542Y-48475574D02*
G01*
X221038203Y-48479084D01*
X221061407Y-48484896D01*
X221083929Y-48492954D01*
X221105553Y-48503182D01*
X221126070Y-48515479D01*
X221145283Y-48529729D01*
X221163007Y-48545793D01*
X221179071Y-48563517D01*
X221193321Y-48582730D01*
X221205618Y-48603247D01*
X221215846Y-48624871D01*
X221223904Y-48647393D01*
X221229716Y-48670597D01*
X221233226Y-48694258D01*
X221234400Y-48718150D01*
X221234400Y-49630650D01*
X221233226Y-49654542D01*
X221229716Y-49678203D01*
X221223904Y-49701407D01*
X221215846Y-49723929D01*
X221205618Y-49745553D01*
X221193321Y-49766070D01*
X221179071Y-49785283D01*
X221163007Y-49803007D01*
X221145283Y-49819071D01*
X221126070Y-49833321D01*
X221105553Y-49845618D01*
X221083929Y-49855846D01*
X221061407Y-49863904D01*
X221038203Y-49869716D01*
X221014542Y-49873226D01*
X220990650Y-49874400D01*
X220503150Y-49874400D01*
X220479258Y-49873226D01*
X220455597Y-49869716D01*
X220432393Y-49863904D01*
X220409871Y-49855846D01*
X220388247Y-49845618D01*
X220367730Y-49833321D01*
X220348517Y-49819071D01*
X220330793Y-49803007D01*
X220314729Y-49785283D01*
X220300479Y-49766070D01*
X220288182Y-49745553D01*
X220277954Y-49723929D01*
X220269896Y-49701407D01*
X220264084Y-49678203D01*
X220260574Y-49654542D01*
X220259400Y-49630650D01*
X220259400Y-48718150D01*
X220260574Y-48694258D01*
X220264084Y-48670597D01*
X220269896Y-48647393D01*
X220277954Y-48624871D01*
X220288182Y-48603247D01*
X220300479Y-48582730D01*
X220314729Y-48563517D01*
X220330793Y-48545793D01*
X220348517Y-48529729D01*
X220367730Y-48515479D01*
X220388247Y-48503182D01*
X220409871Y-48492954D01*
X220432393Y-48484896D01*
X220455597Y-48479084D01*
X220479258Y-48475574D01*
X220503150Y-48474400D01*
X220990650Y-48474400D01*
X221014542Y-48475574D01*
X221014542Y-48475574D01*
G37*
D11*
X220746900Y-49174400D03*
D10*
G36*
X219139542Y-48475574D02*
G01*
X219163203Y-48479084D01*
X219186407Y-48484896D01*
X219208929Y-48492954D01*
X219230553Y-48503182D01*
X219251070Y-48515479D01*
X219270283Y-48529729D01*
X219288007Y-48545793D01*
X219304071Y-48563517D01*
X219318321Y-48582730D01*
X219330618Y-48603247D01*
X219340846Y-48624871D01*
X219348904Y-48647393D01*
X219354716Y-48670597D01*
X219358226Y-48694258D01*
X219359400Y-48718150D01*
X219359400Y-49630650D01*
X219358226Y-49654542D01*
X219354716Y-49678203D01*
X219348904Y-49701407D01*
X219340846Y-49723929D01*
X219330618Y-49745553D01*
X219318321Y-49766070D01*
X219304071Y-49785283D01*
X219288007Y-49803007D01*
X219270283Y-49819071D01*
X219251070Y-49833321D01*
X219230553Y-49845618D01*
X219208929Y-49855846D01*
X219186407Y-49863904D01*
X219163203Y-49869716D01*
X219139542Y-49873226D01*
X219115650Y-49874400D01*
X218628150Y-49874400D01*
X218604258Y-49873226D01*
X218580597Y-49869716D01*
X218557393Y-49863904D01*
X218534871Y-49855846D01*
X218513247Y-49845618D01*
X218492730Y-49833321D01*
X218473517Y-49819071D01*
X218455793Y-49803007D01*
X218439729Y-49785283D01*
X218425479Y-49766070D01*
X218413182Y-49745553D01*
X218402954Y-49723929D01*
X218394896Y-49701407D01*
X218389084Y-49678203D01*
X218385574Y-49654542D01*
X218384400Y-49630650D01*
X218384400Y-48718150D01*
X218385574Y-48694258D01*
X218389084Y-48670597D01*
X218394896Y-48647393D01*
X218402954Y-48624871D01*
X218413182Y-48603247D01*
X218425479Y-48582730D01*
X218439729Y-48563517D01*
X218455793Y-48545793D01*
X218473517Y-48529729D01*
X218492730Y-48515479D01*
X218513247Y-48503182D01*
X218534871Y-48492954D01*
X218557393Y-48484896D01*
X218580597Y-48479084D01*
X218604258Y-48475574D01*
X218628150Y-48474400D01*
X219115650Y-48474400D01*
X219139542Y-48475574D01*
X219139542Y-48475574D01*
G37*
D11*
X218871900Y-49174400D03*
D12*
X210742000Y-47874000D03*
X210742000Y-49154000D03*
X210742000Y-50414000D03*
X210742000Y-51684000D03*
X210742000Y-52964000D03*
X210742000Y-54234000D03*
X210742000Y-55494000D03*
X210742000Y-56774000D03*
X204442000Y-56774000D03*
X204442000Y-55494000D03*
X204442000Y-54234000D03*
X204442000Y-52964000D03*
X204442000Y-51684000D03*
X204442000Y-50414000D03*
X204442000Y-49154000D03*
X204442000Y-47874000D03*
D10*
G36*
X195794642Y-52260174D02*
G01*
X195818303Y-52263684D01*
X195841507Y-52269496D01*
X195864029Y-52277554D01*
X195885653Y-52287782D01*
X195906170Y-52300079D01*
X195925383Y-52314329D01*
X195943107Y-52330393D01*
X195959171Y-52348117D01*
X195973421Y-52367330D01*
X195985718Y-52387847D01*
X195995946Y-52409471D01*
X196004004Y-52431993D01*
X196009816Y-52455197D01*
X196013326Y-52478858D01*
X196014500Y-52502750D01*
X196014500Y-53415250D01*
X196013326Y-53439142D01*
X196009816Y-53462803D01*
X196004004Y-53486007D01*
X195995946Y-53508529D01*
X195985718Y-53530153D01*
X195973421Y-53550670D01*
X195959171Y-53569883D01*
X195943107Y-53587607D01*
X195925383Y-53603671D01*
X195906170Y-53617921D01*
X195885653Y-53630218D01*
X195864029Y-53640446D01*
X195841507Y-53648504D01*
X195818303Y-53654316D01*
X195794642Y-53657826D01*
X195770750Y-53659000D01*
X195283250Y-53659000D01*
X195259358Y-53657826D01*
X195235697Y-53654316D01*
X195212493Y-53648504D01*
X195189971Y-53640446D01*
X195168347Y-53630218D01*
X195147830Y-53617921D01*
X195128617Y-53603671D01*
X195110893Y-53587607D01*
X195094829Y-53569883D01*
X195080579Y-53550670D01*
X195068282Y-53530153D01*
X195058054Y-53508529D01*
X195049996Y-53486007D01*
X195044184Y-53462803D01*
X195040674Y-53439142D01*
X195039500Y-53415250D01*
X195039500Y-52502750D01*
X195040674Y-52478858D01*
X195044184Y-52455197D01*
X195049996Y-52431993D01*
X195058054Y-52409471D01*
X195068282Y-52387847D01*
X195080579Y-52367330D01*
X195094829Y-52348117D01*
X195110893Y-52330393D01*
X195128617Y-52314329D01*
X195147830Y-52300079D01*
X195168347Y-52287782D01*
X195189971Y-52277554D01*
X195212493Y-52269496D01*
X195235697Y-52263684D01*
X195259358Y-52260174D01*
X195283250Y-52259000D01*
X195770750Y-52259000D01*
X195794642Y-52260174D01*
X195794642Y-52260174D01*
G37*
D11*
X195527000Y-52959000D03*
D10*
G36*
X193919642Y-52260174D02*
G01*
X193943303Y-52263684D01*
X193966507Y-52269496D01*
X193989029Y-52277554D01*
X194010653Y-52287782D01*
X194031170Y-52300079D01*
X194050383Y-52314329D01*
X194068107Y-52330393D01*
X194084171Y-52348117D01*
X194098421Y-52367330D01*
X194110718Y-52387847D01*
X194120946Y-52409471D01*
X194129004Y-52431993D01*
X194134816Y-52455197D01*
X194138326Y-52478858D01*
X194139500Y-52502750D01*
X194139500Y-53415250D01*
X194138326Y-53439142D01*
X194134816Y-53462803D01*
X194129004Y-53486007D01*
X194120946Y-53508529D01*
X194110718Y-53530153D01*
X194098421Y-53550670D01*
X194084171Y-53569883D01*
X194068107Y-53587607D01*
X194050383Y-53603671D01*
X194031170Y-53617921D01*
X194010653Y-53630218D01*
X193989029Y-53640446D01*
X193966507Y-53648504D01*
X193943303Y-53654316D01*
X193919642Y-53657826D01*
X193895750Y-53659000D01*
X193408250Y-53659000D01*
X193384358Y-53657826D01*
X193360697Y-53654316D01*
X193337493Y-53648504D01*
X193314971Y-53640446D01*
X193293347Y-53630218D01*
X193272830Y-53617921D01*
X193253617Y-53603671D01*
X193235893Y-53587607D01*
X193219829Y-53569883D01*
X193205579Y-53550670D01*
X193193282Y-53530153D01*
X193183054Y-53508529D01*
X193174996Y-53486007D01*
X193169184Y-53462803D01*
X193165674Y-53439142D01*
X193164500Y-53415250D01*
X193164500Y-52502750D01*
X193165674Y-52478858D01*
X193169184Y-52455197D01*
X193174996Y-52431993D01*
X193183054Y-52409471D01*
X193193282Y-52387847D01*
X193205579Y-52367330D01*
X193219829Y-52348117D01*
X193235893Y-52330393D01*
X193253617Y-52314329D01*
X193272830Y-52300079D01*
X193293347Y-52287782D01*
X193314971Y-52277554D01*
X193337493Y-52269496D01*
X193360697Y-52263684D01*
X193384358Y-52260174D01*
X193408250Y-52259000D01*
X193895750Y-52259000D01*
X193919642Y-52260174D01*
X193919642Y-52260174D01*
G37*
D11*
X193652000Y-52959000D03*
D10*
G36*
X195794642Y-47180174D02*
G01*
X195818303Y-47183684D01*
X195841507Y-47189496D01*
X195864029Y-47197554D01*
X195885653Y-47207782D01*
X195906170Y-47220079D01*
X195925383Y-47234329D01*
X195943107Y-47250393D01*
X195959171Y-47268117D01*
X195973421Y-47287330D01*
X195985718Y-47307847D01*
X195995946Y-47329471D01*
X196004004Y-47351993D01*
X196009816Y-47375197D01*
X196013326Y-47398858D01*
X196014500Y-47422750D01*
X196014500Y-48335250D01*
X196013326Y-48359142D01*
X196009816Y-48382803D01*
X196004004Y-48406007D01*
X195995946Y-48428529D01*
X195985718Y-48450153D01*
X195973421Y-48470670D01*
X195959171Y-48489883D01*
X195943107Y-48507607D01*
X195925383Y-48523671D01*
X195906170Y-48537921D01*
X195885653Y-48550218D01*
X195864029Y-48560446D01*
X195841507Y-48568504D01*
X195818303Y-48574316D01*
X195794642Y-48577826D01*
X195770750Y-48579000D01*
X195283250Y-48579000D01*
X195259358Y-48577826D01*
X195235697Y-48574316D01*
X195212493Y-48568504D01*
X195189971Y-48560446D01*
X195168347Y-48550218D01*
X195147830Y-48537921D01*
X195128617Y-48523671D01*
X195110893Y-48507607D01*
X195094829Y-48489883D01*
X195080579Y-48470670D01*
X195068282Y-48450153D01*
X195058054Y-48428529D01*
X195049996Y-48406007D01*
X195044184Y-48382803D01*
X195040674Y-48359142D01*
X195039500Y-48335250D01*
X195039500Y-47422750D01*
X195040674Y-47398858D01*
X195044184Y-47375197D01*
X195049996Y-47351993D01*
X195058054Y-47329471D01*
X195068282Y-47307847D01*
X195080579Y-47287330D01*
X195094829Y-47268117D01*
X195110893Y-47250393D01*
X195128617Y-47234329D01*
X195147830Y-47220079D01*
X195168347Y-47207782D01*
X195189971Y-47197554D01*
X195212493Y-47189496D01*
X195235697Y-47183684D01*
X195259358Y-47180174D01*
X195283250Y-47179000D01*
X195770750Y-47179000D01*
X195794642Y-47180174D01*
X195794642Y-47180174D01*
G37*
D11*
X195527000Y-47879000D03*
D10*
G36*
X193919642Y-47180174D02*
G01*
X193943303Y-47183684D01*
X193966507Y-47189496D01*
X193989029Y-47197554D01*
X194010653Y-47207782D01*
X194031170Y-47220079D01*
X194050383Y-47234329D01*
X194068107Y-47250393D01*
X194084171Y-47268117D01*
X194098421Y-47287330D01*
X194110718Y-47307847D01*
X194120946Y-47329471D01*
X194129004Y-47351993D01*
X194134816Y-47375197D01*
X194138326Y-47398858D01*
X194139500Y-47422750D01*
X194139500Y-48335250D01*
X194138326Y-48359142D01*
X194134816Y-48382803D01*
X194129004Y-48406007D01*
X194120946Y-48428529D01*
X194110718Y-48450153D01*
X194098421Y-48470670D01*
X194084171Y-48489883D01*
X194068107Y-48507607D01*
X194050383Y-48523671D01*
X194031170Y-48537921D01*
X194010653Y-48550218D01*
X193989029Y-48560446D01*
X193966507Y-48568504D01*
X193943303Y-48574316D01*
X193919642Y-48577826D01*
X193895750Y-48579000D01*
X193408250Y-48579000D01*
X193384358Y-48577826D01*
X193360697Y-48574316D01*
X193337493Y-48568504D01*
X193314971Y-48560446D01*
X193293347Y-48550218D01*
X193272830Y-48537921D01*
X193253617Y-48523671D01*
X193235893Y-48507607D01*
X193219829Y-48489883D01*
X193205579Y-48470670D01*
X193193282Y-48450153D01*
X193183054Y-48428529D01*
X193174996Y-48406007D01*
X193169184Y-48382803D01*
X193165674Y-48359142D01*
X193164500Y-48335250D01*
X193164500Y-47422750D01*
X193165674Y-47398858D01*
X193169184Y-47375197D01*
X193174996Y-47351993D01*
X193183054Y-47329471D01*
X193193282Y-47307847D01*
X193205579Y-47287330D01*
X193219829Y-47268117D01*
X193235893Y-47250393D01*
X193253617Y-47234329D01*
X193272830Y-47220079D01*
X193293347Y-47207782D01*
X193314971Y-47197554D01*
X193337493Y-47189496D01*
X193360697Y-47183684D01*
X193384358Y-47180174D01*
X193408250Y-47179000D01*
X193895750Y-47179000D01*
X193919642Y-47180174D01*
X193919642Y-47180174D01*
G37*
D11*
X193652000Y-47879000D03*
D10*
G36*
X199731642Y-52260174D02*
G01*
X199755303Y-52263684D01*
X199778507Y-52269496D01*
X199801029Y-52277554D01*
X199822653Y-52287782D01*
X199843170Y-52300079D01*
X199862383Y-52314329D01*
X199880107Y-52330393D01*
X199896171Y-52348117D01*
X199910421Y-52367330D01*
X199922718Y-52387847D01*
X199932946Y-52409471D01*
X199941004Y-52431993D01*
X199946816Y-52455197D01*
X199950326Y-52478858D01*
X199951500Y-52502750D01*
X199951500Y-53415250D01*
X199950326Y-53439142D01*
X199946816Y-53462803D01*
X199941004Y-53486007D01*
X199932946Y-53508529D01*
X199922718Y-53530153D01*
X199910421Y-53550670D01*
X199896171Y-53569883D01*
X199880107Y-53587607D01*
X199862383Y-53603671D01*
X199843170Y-53617921D01*
X199822653Y-53630218D01*
X199801029Y-53640446D01*
X199778507Y-53648504D01*
X199755303Y-53654316D01*
X199731642Y-53657826D01*
X199707750Y-53659000D01*
X199220250Y-53659000D01*
X199196358Y-53657826D01*
X199172697Y-53654316D01*
X199149493Y-53648504D01*
X199126971Y-53640446D01*
X199105347Y-53630218D01*
X199084830Y-53617921D01*
X199065617Y-53603671D01*
X199047893Y-53587607D01*
X199031829Y-53569883D01*
X199017579Y-53550670D01*
X199005282Y-53530153D01*
X198995054Y-53508529D01*
X198986996Y-53486007D01*
X198981184Y-53462803D01*
X198977674Y-53439142D01*
X198976500Y-53415250D01*
X198976500Y-52502750D01*
X198977674Y-52478858D01*
X198981184Y-52455197D01*
X198986996Y-52431993D01*
X198995054Y-52409471D01*
X199005282Y-52387847D01*
X199017579Y-52367330D01*
X199031829Y-52348117D01*
X199047893Y-52330393D01*
X199065617Y-52314329D01*
X199084830Y-52300079D01*
X199105347Y-52287782D01*
X199126971Y-52277554D01*
X199149493Y-52269496D01*
X199172697Y-52263684D01*
X199196358Y-52260174D01*
X199220250Y-52259000D01*
X199707750Y-52259000D01*
X199731642Y-52260174D01*
X199731642Y-52260174D01*
G37*
D11*
X199464000Y-52959000D03*
D10*
G36*
X197856642Y-52260174D02*
G01*
X197880303Y-52263684D01*
X197903507Y-52269496D01*
X197926029Y-52277554D01*
X197947653Y-52287782D01*
X197968170Y-52300079D01*
X197987383Y-52314329D01*
X198005107Y-52330393D01*
X198021171Y-52348117D01*
X198035421Y-52367330D01*
X198047718Y-52387847D01*
X198057946Y-52409471D01*
X198066004Y-52431993D01*
X198071816Y-52455197D01*
X198075326Y-52478858D01*
X198076500Y-52502750D01*
X198076500Y-53415250D01*
X198075326Y-53439142D01*
X198071816Y-53462803D01*
X198066004Y-53486007D01*
X198057946Y-53508529D01*
X198047718Y-53530153D01*
X198035421Y-53550670D01*
X198021171Y-53569883D01*
X198005107Y-53587607D01*
X197987383Y-53603671D01*
X197968170Y-53617921D01*
X197947653Y-53630218D01*
X197926029Y-53640446D01*
X197903507Y-53648504D01*
X197880303Y-53654316D01*
X197856642Y-53657826D01*
X197832750Y-53659000D01*
X197345250Y-53659000D01*
X197321358Y-53657826D01*
X197297697Y-53654316D01*
X197274493Y-53648504D01*
X197251971Y-53640446D01*
X197230347Y-53630218D01*
X197209830Y-53617921D01*
X197190617Y-53603671D01*
X197172893Y-53587607D01*
X197156829Y-53569883D01*
X197142579Y-53550670D01*
X197130282Y-53530153D01*
X197120054Y-53508529D01*
X197111996Y-53486007D01*
X197106184Y-53462803D01*
X197102674Y-53439142D01*
X197101500Y-53415250D01*
X197101500Y-52502750D01*
X197102674Y-52478858D01*
X197106184Y-52455197D01*
X197111996Y-52431993D01*
X197120054Y-52409471D01*
X197130282Y-52387847D01*
X197142579Y-52367330D01*
X197156829Y-52348117D01*
X197172893Y-52330393D01*
X197190617Y-52314329D01*
X197209830Y-52300079D01*
X197230347Y-52287782D01*
X197251971Y-52277554D01*
X197274493Y-52269496D01*
X197297697Y-52263684D01*
X197321358Y-52260174D01*
X197345250Y-52259000D01*
X197832750Y-52259000D01*
X197856642Y-52260174D01*
X197856642Y-52260174D01*
G37*
D11*
X197589000Y-52959000D03*
D10*
G36*
X195794642Y-49720174D02*
G01*
X195818303Y-49723684D01*
X195841507Y-49729496D01*
X195864029Y-49737554D01*
X195885653Y-49747782D01*
X195906170Y-49760079D01*
X195925383Y-49774329D01*
X195943107Y-49790393D01*
X195959171Y-49808117D01*
X195973421Y-49827330D01*
X195985718Y-49847847D01*
X195995946Y-49869471D01*
X196004004Y-49891993D01*
X196009816Y-49915197D01*
X196013326Y-49938858D01*
X196014500Y-49962750D01*
X196014500Y-50875250D01*
X196013326Y-50899142D01*
X196009816Y-50922803D01*
X196004004Y-50946007D01*
X195995946Y-50968529D01*
X195985718Y-50990153D01*
X195973421Y-51010670D01*
X195959171Y-51029883D01*
X195943107Y-51047607D01*
X195925383Y-51063671D01*
X195906170Y-51077921D01*
X195885653Y-51090218D01*
X195864029Y-51100446D01*
X195841507Y-51108504D01*
X195818303Y-51114316D01*
X195794642Y-51117826D01*
X195770750Y-51119000D01*
X195283250Y-51119000D01*
X195259358Y-51117826D01*
X195235697Y-51114316D01*
X195212493Y-51108504D01*
X195189971Y-51100446D01*
X195168347Y-51090218D01*
X195147830Y-51077921D01*
X195128617Y-51063671D01*
X195110893Y-51047607D01*
X195094829Y-51029883D01*
X195080579Y-51010670D01*
X195068282Y-50990153D01*
X195058054Y-50968529D01*
X195049996Y-50946007D01*
X195044184Y-50922803D01*
X195040674Y-50899142D01*
X195039500Y-50875250D01*
X195039500Y-49962750D01*
X195040674Y-49938858D01*
X195044184Y-49915197D01*
X195049996Y-49891993D01*
X195058054Y-49869471D01*
X195068282Y-49847847D01*
X195080579Y-49827330D01*
X195094829Y-49808117D01*
X195110893Y-49790393D01*
X195128617Y-49774329D01*
X195147830Y-49760079D01*
X195168347Y-49747782D01*
X195189971Y-49737554D01*
X195212493Y-49729496D01*
X195235697Y-49723684D01*
X195259358Y-49720174D01*
X195283250Y-49719000D01*
X195770750Y-49719000D01*
X195794642Y-49720174D01*
X195794642Y-49720174D01*
G37*
D11*
X195527000Y-50419000D03*
D10*
G36*
X193919642Y-49720174D02*
G01*
X193943303Y-49723684D01*
X193966507Y-49729496D01*
X193989029Y-49737554D01*
X194010653Y-49747782D01*
X194031170Y-49760079D01*
X194050383Y-49774329D01*
X194068107Y-49790393D01*
X194084171Y-49808117D01*
X194098421Y-49827330D01*
X194110718Y-49847847D01*
X194120946Y-49869471D01*
X194129004Y-49891993D01*
X194134816Y-49915197D01*
X194138326Y-49938858D01*
X194139500Y-49962750D01*
X194139500Y-50875250D01*
X194138326Y-50899142D01*
X194134816Y-50922803D01*
X194129004Y-50946007D01*
X194120946Y-50968529D01*
X194110718Y-50990153D01*
X194098421Y-51010670D01*
X194084171Y-51029883D01*
X194068107Y-51047607D01*
X194050383Y-51063671D01*
X194031170Y-51077921D01*
X194010653Y-51090218D01*
X193989029Y-51100446D01*
X193966507Y-51108504D01*
X193943303Y-51114316D01*
X193919642Y-51117826D01*
X193895750Y-51119000D01*
X193408250Y-51119000D01*
X193384358Y-51117826D01*
X193360697Y-51114316D01*
X193337493Y-51108504D01*
X193314971Y-51100446D01*
X193293347Y-51090218D01*
X193272830Y-51077921D01*
X193253617Y-51063671D01*
X193235893Y-51047607D01*
X193219829Y-51029883D01*
X193205579Y-51010670D01*
X193193282Y-50990153D01*
X193183054Y-50968529D01*
X193174996Y-50946007D01*
X193169184Y-50922803D01*
X193165674Y-50899142D01*
X193164500Y-50875250D01*
X193164500Y-49962750D01*
X193165674Y-49938858D01*
X193169184Y-49915197D01*
X193174996Y-49891993D01*
X193183054Y-49869471D01*
X193193282Y-49847847D01*
X193205579Y-49827330D01*
X193219829Y-49808117D01*
X193235893Y-49790393D01*
X193253617Y-49774329D01*
X193272830Y-49760079D01*
X193293347Y-49747782D01*
X193314971Y-49737554D01*
X193337493Y-49729496D01*
X193360697Y-49723684D01*
X193384358Y-49720174D01*
X193408250Y-49719000D01*
X193895750Y-49719000D01*
X193919642Y-49720174D01*
X193919642Y-49720174D01*
G37*
D11*
X193652000Y-50419000D03*
D10*
G36*
X213907142Y-47180174D02*
G01*
X213930803Y-47183684D01*
X213954007Y-47189496D01*
X213976529Y-47197554D01*
X213998153Y-47207782D01*
X214018670Y-47220079D01*
X214037883Y-47234329D01*
X214055607Y-47250393D01*
X214071671Y-47268117D01*
X214085921Y-47287330D01*
X214098218Y-47307847D01*
X214108446Y-47329471D01*
X214116504Y-47351993D01*
X214122316Y-47375197D01*
X214125826Y-47398858D01*
X214127000Y-47422750D01*
X214127000Y-48335250D01*
X214125826Y-48359142D01*
X214122316Y-48382803D01*
X214116504Y-48406007D01*
X214108446Y-48428529D01*
X214098218Y-48450153D01*
X214085921Y-48470670D01*
X214071671Y-48489883D01*
X214055607Y-48507607D01*
X214037883Y-48523671D01*
X214018670Y-48537921D01*
X213998153Y-48550218D01*
X213976529Y-48560446D01*
X213954007Y-48568504D01*
X213930803Y-48574316D01*
X213907142Y-48577826D01*
X213883250Y-48579000D01*
X213395750Y-48579000D01*
X213371858Y-48577826D01*
X213348197Y-48574316D01*
X213324993Y-48568504D01*
X213302471Y-48560446D01*
X213280847Y-48550218D01*
X213260330Y-48537921D01*
X213241117Y-48523671D01*
X213223393Y-48507607D01*
X213207329Y-48489883D01*
X213193079Y-48470670D01*
X213180782Y-48450153D01*
X213170554Y-48428529D01*
X213162496Y-48406007D01*
X213156684Y-48382803D01*
X213153174Y-48359142D01*
X213152000Y-48335250D01*
X213152000Y-47422750D01*
X213153174Y-47398858D01*
X213156684Y-47375197D01*
X213162496Y-47351993D01*
X213170554Y-47329471D01*
X213180782Y-47307847D01*
X213193079Y-47287330D01*
X213207329Y-47268117D01*
X213223393Y-47250393D01*
X213241117Y-47234329D01*
X213260330Y-47220079D01*
X213280847Y-47207782D01*
X213302471Y-47197554D01*
X213324993Y-47189496D01*
X213348197Y-47183684D01*
X213371858Y-47180174D01*
X213395750Y-47179000D01*
X213883250Y-47179000D01*
X213907142Y-47180174D01*
X213907142Y-47180174D01*
G37*
D11*
X213639500Y-47879000D03*
D10*
G36*
X215782142Y-47180174D02*
G01*
X215805803Y-47183684D01*
X215829007Y-47189496D01*
X215851529Y-47197554D01*
X215873153Y-47207782D01*
X215893670Y-47220079D01*
X215912883Y-47234329D01*
X215930607Y-47250393D01*
X215946671Y-47268117D01*
X215960921Y-47287330D01*
X215973218Y-47307847D01*
X215983446Y-47329471D01*
X215991504Y-47351993D01*
X215997316Y-47375197D01*
X216000826Y-47398858D01*
X216002000Y-47422750D01*
X216002000Y-48335250D01*
X216000826Y-48359142D01*
X215997316Y-48382803D01*
X215991504Y-48406007D01*
X215983446Y-48428529D01*
X215973218Y-48450153D01*
X215960921Y-48470670D01*
X215946671Y-48489883D01*
X215930607Y-48507607D01*
X215912883Y-48523671D01*
X215893670Y-48537921D01*
X215873153Y-48550218D01*
X215851529Y-48560446D01*
X215829007Y-48568504D01*
X215805803Y-48574316D01*
X215782142Y-48577826D01*
X215758250Y-48579000D01*
X215270750Y-48579000D01*
X215246858Y-48577826D01*
X215223197Y-48574316D01*
X215199993Y-48568504D01*
X215177471Y-48560446D01*
X215155847Y-48550218D01*
X215135330Y-48537921D01*
X215116117Y-48523671D01*
X215098393Y-48507607D01*
X215082329Y-48489883D01*
X215068079Y-48470670D01*
X215055782Y-48450153D01*
X215045554Y-48428529D01*
X215037496Y-48406007D01*
X215031684Y-48382803D01*
X215028174Y-48359142D01*
X215027000Y-48335250D01*
X215027000Y-47422750D01*
X215028174Y-47398858D01*
X215031684Y-47375197D01*
X215037496Y-47351993D01*
X215045554Y-47329471D01*
X215055782Y-47307847D01*
X215068079Y-47287330D01*
X215082329Y-47268117D01*
X215098393Y-47250393D01*
X215116117Y-47234329D01*
X215135330Y-47220079D01*
X215155847Y-47207782D01*
X215177471Y-47197554D01*
X215199993Y-47189496D01*
X215223197Y-47183684D01*
X215246858Y-47180174D01*
X215270750Y-47179000D01*
X215758250Y-47179000D01*
X215782142Y-47180174D01*
X215782142Y-47180174D01*
G37*
D11*
X215514500Y-47879000D03*
D10*
G36*
X197856642Y-49720174D02*
G01*
X197880303Y-49723684D01*
X197903507Y-49729496D01*
X197926029Y-49737554D01*
X197947653Y-49747782D01*
X197968170Y-49760079D01*
X197987383Y-49774329D01*
X198005107Y-49790393D01*
X198021171Y-49808117D01*
X198035421Y-49827330D01*
X198047718Y-49847847D01*
X198057946Y-49869471D01*
X198066004Y-49891993D01*
X198071816Y-49915197D01*
X198075326Y-49938858D01*
X198076500Y-49962750D01*
X198076500Y-50875250D01*
X198075326Y-50899142D01*
X198071816Y-50922803D01*
X198066004Y-50946007D01*
X198057946Y-50968529D01*
X198047718Y-50990153D01*
X198035421Y-51010670D01*
X198021171Y-51029883D01*
X198005107Y-51047607D01*
X197987383Y-51063671D01*
X197968170Y-51077921D01*
X197947653Y-51090218D01*
X197926029Y-51100446D01*
X197903507Y-51108504D01*
X197880303Y-51114316D01*
X197856642Y-51117826D01*
X197832750Y-51119000D01*
X197345250Y-51119000D01*
X197321358Y-51117826D01*
X197297697Y-51114316D01*
X197274493Y-51108504D01*
X197251971Y-51100446D01*
X197230347Y-51090218D01*
X197209830Y-51077921D01*
X197190617Y-51063671D01*
X197172893Y-51047607D01*
X197156829Y-51029883D01*
X197142579Y-51010670D01*
X197130282Y-50990153D01*
X197120054Y-50968529D01*
X197111996Y-50946007D01*
X197106184Y-50922803D01*
X197102674Y-50899142D01*
X197101500Y-50875250D01*
X197101500Y-49962750D01*
X197102674Y-49938858D01*
X197106184Y-49915197D01*
X197111996Y-49891993D01*
X197120054Y-49869471D01*
X197130282Y-49847847D01*
X197142579Y-49827330D01*
X197156829Y-49808117D01*
X197172893Y-49790393D01*
X197190617Y-49774329D01*
X197209830Y-49760079D01*
X197230347Y-49747782D01*
X197251971Y-49737554D01*
X197274493Y-49729496D01*
X197297697Y-49723684D01*
X197321358Y-49720174D01*
X197345250Y-49719000D01*
X197832750Y-49719000D01*
X197856642Y-49720174D01*
X197856642Y-49720174D01*
G37*
D11*
X197589000Y-50419000D03*
D10*
G36*
X199731642Y-49720174D02*
G01*
X199755303Y-49723684D01*
X199778507Y-49729496D01*
X199801029Y-49737554D01*
X199822653Y-49747782D01*
X199843170Y-49760079D01*
X199862383Y-49774329D01*
X199880107Y-49790393D01*
X199896171Y-49808117D01*
X199910421Y-49827330D01*
X199922718Y-49847847D01*
X199932946Y-49869471D01*
X199941004Y-49891993D01*
X199946816Y-49915197D01*
X199950326Y-49938858D01*
X199951500Y-49962750D01*
X199951500Y-50875250D01*
X199950326Y-50899142D01*
X199946816Y-50922803D01*
X199941004Y-50946007D01*
X199932946Y-50968529D01*
X199922718Y-50990153D01*
X199910421Y-51010670D01*
X199896171Y-51029883D01*
X199880107Y-51047607D01*
X199862383Y-51063671D01*
X199843170Y-51077921D01*
X199822653Y-51090218D01*
X199801029Y-51100446D01*
X199778507Y-51108504D01*
X199755303Y-51114316D01*
X199731642Y-51117826D01*
X199707750Y-51119000D01*
X199220250Y-51119000D01*
X199196358Y-51117826D01*
X199172697Y-51114316D01*
X199149493Y-51108504D01*
X199126971Y-51100446D01*
X199105347Y-51090218D01*
X199084830Y-51077921D01*
X199065617Y-51063671D01*
X199047893Y-51047607D01*
X199031829Y-51029883D01*
X199017579Y-51010670D01*
X199005282Y-50990153D01*
X198995054Y-50968529D01*
X198986996Y-50946007D01*
X198981184Y-50922803D01*
X198977674Y-50899142D01*
X198976500Y-50875250D01*
X198976500Y-49962750D01*
X198977674Y-49938858D01*
X198981184Y-49915197D01*
X198986996Y-49891993D01*
X198995054Y-49869471D01*
X199005282Y-49847847D01*
X199017579Y-49827330D01*
X199031829Y-49808117D01*
X199047893Y-49790393D01*
X199065617Y-49774329D01*
X199084830Y-49760079D01*
X199105347Y-49747782D01*
X199126971Y-49737554D01*
X199149493Y-49729496D01*
X199172697Y-49723684D01*
X199196358Y-49720174D01*
X199220250Y-49719000D01*
X199707750Y-49719000D01*
X199731642Y-49720174D01*
X199731642Y-49720174D01*
G37*
D11*
X199464000Y-50419000D03*
D10*
G36*
X197856642Y-47180174D02*
G01*
X197880303Y-47183684D01*
X197903507Y-47189496D01*
X197926029Y-47197554D01*
X197947653Y-47207782D01*
X197968170Y-47220079D01*
X197987383Y-47234329D01*
X198005107Y-47250393D01*
X198021171Y-47268117D01*
X198035421Y-47287330D01*
X198047718Y-47307847D01*
X198057946Y-47329471D01*
X198066004Y-47351993D01*
X198071816Y-47375197D01*
X198075326Y-47398858D01*
X198076500Y-47422750D01*
X198076500Y-48335250D01*
X198075326Y-48359142D01*
X198071816Y-48382803D01*
X198066004Y-48406007D01*
X198057946Y-48428529D01*
X198047718Y-48450153D01*
X198035421Y-48470670D01*
X198021171Y-48489883D01*
X198005107Y-48507607D01*
X197987383Y-48523671D01*
X197968170Y-48537921D01*
X197947653Y-48550218D01*
X197926029Y-48560446D01*
X197903507Y-48568504D01*
X197880303Y-48574316D01*
X197856642Y-48577826D01*
X197832750Y-48579000D01*
X197345250Y-48579000D01*
X197321358Y-48577826D01*
X197297697Y-48574316D01*
X197274493Y-48568504D01*
X197251971Y-48560446D01*
X197230347Y-48550218D01*
X197209830Y-48537921D01*
X197190617Y-48523671D01*
X197172893Y-48507607D01*
X197156829Y-48489883D01*
X197142579Y-48470670D01*
X197130282Y-48450153D01*
X197120054Y-48428529D01*
X197111996Y-48406007D01*
X197106184Y-48382803D01*
X197102674Y-48359142D01*
X197101500Y-48335250D01*
X197101500Y-47422750D01*
X197102674Y-47398858D01*
X197106184Y-47375197D01*
X197111996Y-47351993D01*
X197120054Y-47329471D01*
X197130282Y-47307847D01*
X197142579Y-47287330D01*
X197156829Y-47268117D01*
X197172893Y-47250393D01*
X197190617Y-47234329D01*
X197209830Y-47220079D01*
X197230347Y-47207782D01*
X197251971Y-47197554D01*
X197274493Y-47189496D01*
X197297697Y-47183684D01*
X197321358Y-47180174D01*
X197345250Y-47179000D01*
X197832750Y-47179000D01*
X197856642Y-47180174D01*
X197856642Y-47180174D01*
G37*
D11*
X197589000Y-47879000D03*
D10*
G36*
X199731642Y-47180174D02*
G01*
X199755303Y-47183684D01*
X199778507Y-47189496D01*
X199801029Y-47197554D01*
X199822653Y-47207782D01*
X199843170Y-47220079D01*
X199862383Y-47234329D01*
X199880107Y-47250393D01*
X199896171Y-47268117D01*
X199910421Y-47287330D01*
X199922718Y-47307847D01*
X199932946Y-47329471D01*
X199941004Y-47351993D01*
X199946816Y-47375197D01*
X199950326Y-47398858D01*
X199951500Y-47422750D01*
X199951500Y-48335250D01*
X199950326Y-48359142D01*
X199946816Y-48382803D01*
X199941004Y-48406007D01*
X199932946Y-48428529D01*
X199922718Y-48450153D01*
X199910421Y-48470670D01*
X199896171Y-48489883D01*
X199880107Y-48507607D01*
X199862383Y-48523671D01*
X199843170Y-48537921D01*
X199822653Y-48550218D01*
X199801029Y-48560446D01*
X199778507Y-48568504D01*
X199755303Y-48574316D01*
X199731642Y-48577826D01*
X199707750Y-48579000D01*
X199220250Y-48579000D01*
X199196358Y-48577826D01*
X199172697Y-48574316D01*
X199149493Y-48568504D01*
X199126971Y-48560446D01*
X199105347Y-48550218D01*
X199084830Y-48537921D01*
X199065617Y-48523671D01*
X199047893Y-48507607D01*
X199031829Y-48489883D01*
X199017579Y-48470670D01*
X199005282Y-48450153D01*
X198995054Y-48428529D01*
X198986996Y-48406007D01*
X198981184Y-48382803D01*
X198977674Y-48359142D01*
X198976500Y-48335250D01*
X198976500Y-47422750D01*
X198977674Y-47398858D01*
X198981184Y-47375197D01*
X198986996Y-47351993D01*
X198995054Y-47329471D01*
X199005282Y-47307847D01*
X199017579Y-47287330D01*
X199031829Y-47268117D01*
X199047893Y-47250393D01*
X199065617Y-47234329D01*
X199084830Y-47220079D01*
X199105347Y-47207782D01*
X199126971Y-47197554D01*
X199149493Y-47189496D01*
X199172697Y-47183684D01*
X199196358Y-47180174D01*
X199220250Y-47179000D01*
X199707750Y-47179000D01*
X199731642Y-47180174D01*
X199731642Y-47180174D01*
G37*
D11*
X199464000Y-47879000D03*
M02*
